<svg width="204" height="55" viewBox="0 0 204 55" fill="none" xmlns="http://www.w3.org/2000/svg">
<rect width="204" height="55" rx="27.5" fill="#91C12F"/>
<path fill-rule="evenodd" clip-rule="evenodd" d="M35.1055 7.04112C35.1362 6.9975 35.1967 6.9869 35.2406 7.01744L38.2409 9.10563C38.2848 9.13617 38.2954 9.19628 38.2647 9.2399L34.0888 15.1678C36.1189 15.8124 37.5021 16.5078 37.5021 16.5078C37.5021 16.5078 34.1213 22.288 28.3872 22.288C22.6531 22.288 18.5785 16.9008 18.5785 16.9008C18.5785 16.9008 20.0233 15.9843 22.1649 15.1983L17.5845 9.7725C17.5501 9.73171 17.5555 9.6709 17.5965 9.63667L20.4022 7.29652C20.4433 7.26229 20.5045 7.26761 20.5389 7.3084L26.3385 14.1784C26.835 14.1225 27.341 14.0913 27.8515 14.0913C28.5853 14.0913 29.3181 14.1468 30.0336 14.2409L35.1055 7.04112ZM36.2399 22.5617C37.7701 21.4755 40.0856 18.6403 40.0856 18.6403C40.0856 18.6403 46 23.2989 46 33.1769C46 43.0549 35.7749 49 35.7749 49C35.7749 49 30.8895 44.096 29.6902 37.8795C28.4909 31.663 31.4642 24.7603 31.4642 24.7603C31.4642 24.7603 34.7097 23.648 36.2399 22.5617ZM19.7601 22.5617C18.2299 21.4755 15.9144 18.6403 15.9144 18.6403C15.9144 18.6403 10 23.2989 10 33.1769C10 43.0549 20.2251 49 20.2251 49C20.2251 49 25.1105 44.096 26.3098 37.8795C27.5091 31.663 24.5358 24.7603 24.5358 24.7603C24.5358 24.7603 21.2904 23.648 19.7601 22.5617Z" fill="#ADD080"/>
<path d="M107.248 22.188C107.248 22.5987 107.164 23.0373 106.996 23.504C106.828 23.9707 106.595 24.4 106.296 24.792C106.016 25.184 105.671 25.52 105.26 25.8C104.849 26.0613 104.401 26.2013 103.916 26.22C104.42 26.2573 104.915 26.4067 105.4 26.668C105.904 26.9107 106.352 27.2467 106.744 27.676C107.136 28.1053 107.453 28.6 107.696 29.16C107.957 29.72 108.088 30.3173 108.088 30.952C108.088 32.072 107.92 33.024 107.584 33.808C107.248 34.5733 106.791 35.1987 106.212 35.684C105.633 36.1507 104.952 36.4867 104.168 36.692C103.403 36.8973 102.581 37 101.704 37H92.24V16.504H101.256C102.077 16.504 102.852 16.588 103.58 16.756C104.308 16.9053 104.943 17.1947 105.484 17.624C106.025 18.0347 106.455 18.6133 106.772 19.36C107.089 20.088 107.248 21.0307 107.248 22.188ZM101.704 33.528C102.04 33.528 102.357 33.4533 102.656 33.304C102.955 33.136 103.216 32.9213 103.44 32.66C103.664 32.38 103.841 32.0813 103.972 31.764C104.103 31.428 104.168 31.092 104.168 30.756C104.168 30.0653 103.907 29.4867 103.384 29.02C102.88 28.5533 102.18 28.32 101.284 28.32H96.16V33.528H101.704ZM96.16 24.82H100.976C101.368 24.82 101.704 24.7453 101.984 24.596C102.283 24.4467 102.525 24.2507 102.712 24.008C102.917 23.7653 103.067 23.4947 103.16 23.196C103.272 22.8787 103.328 22.5707 103.328 22.272C103.328 21.9733 103.272 21.684 103.16 21.404C103.048 21.124 102.899 20.8813 102.712 20.676C102.525 20.4707 102.301 20.3027 102.04 20.172C101.797 20.0413 101.536 19.976 101.256 19.976H96.16V24.82ZM119.503 37.364C118.178 37.364 116.974 37.1587 115.891 36.748C114.809 36.3373 113.885 35.7587 113.119 35.012C112.354 34.2653 111.757 33.36 111.327 32.296C110.917 31.232 110.711 30.0467 110.711 28.74V16.532H114.631V28.74C114.631 29.7667 114.799 30.616 115.135 31.288C115.471 31.96 115.882 32.492 116.367 32.884C116.871 33.276 117.403 33.5467 117.963 33.696C118.542 33.8453 119.055 33.92 119.503 33.92C119.951 33.92 120.455 33.8453 121.015 33.696C121.594 33.5467 122.126 33.276 122.611 32.884C123.115 32.492 123.535 31.96 123.871 31.288C124.207 30.616 124.375 29.7667 124.375 28.74V16.532H128.295V28.74C128.295 30.0467 128.09 31.232 127.679 32.296C127.269 33.36 126.681 34.2653 125.915 35.012C125.15 35.7587 124.226 36.3373 123.143 36.748C122.061 37.1587 120.847 37.364 119.503 37.364ZM152.098 25.8C152.079 26.192 152.07 26.556 152.07 26.892C152.051 27.1907 152.042 27.4893 152.042 27.788C152.042 28.068 152.032 28.2827 152.014 28.432C151.902 29.72 151.547 30.9147 150.95 32.016C150.371 33.1173 149.615 34.0693 148.682 34.872C147.767 35.656 146.703 36.272 145.49 36.72C144.295 37.168 143.035 37.392 141.71 37.392C140.254 37.392 138.882 37.112 137.594 36.552C136.306 35.992 135.176 35.236 134.206 34.284C133.254 33.3133 132.498 32.184 131.938 30.896C131.378 29.608 131.098 28.236 131.098 26.78C131.098 25.324 131.378 23.952 131.938 22.664C132.498 21.3573 133.254 20.228 134.206 19.276C135.176 18.3053 136.306 17.54 137.594 16.98C138.882 16.42 140.254 16.14 141.71 16.14C143.558 16.14 145.247 16.5693 146.778 17.428C148.327 18.2867 149.578 19.4347 150.53 20.872L147.17 22.916C146.572 22.0387 145.788 21.3013 144.818 20.704C143.866 20.1067 142.83 19.808 141.71 19.808C140.776 19.808 139.899 20.004 139.078 20.396C138.275 20.7693 137.566 21.2733 136.95 21.908C136.352 22.5427 135.876 23.2893 135.522 24.148C135.167 24.988 134.99 25.8653 134.99 26.78C134.99 27.7133 135.167 28.6 135.522 29.44C135.876 30.28 136.352 31.0173 136.95 31.652C137.566 32.2867 138.275 32.8 139.078 33.192C139.899 33.5653 140.776 33.752 141.71 33.752C142.419 33.752 143.1 33.6493 143.754 33.444C144.407 33.22 145.004 32.912 145.546 32.52C146.087 32.128 146.554 31.6613 146.946 31.12C147.356 30.5787 147.655 29.9813 147.842 29.328H140.282V25.8H152.098Z" fill="white"/>
</svg>
