<svg width="204" height="55" viewBox="0 0 204 55" fill="none" xmlns="http://www.w3.org/2000/svg">
<rect width="204" height="55" rx="27.5" fill="#0B6DC3"/>
<path fill-rule="evenodd" clip-rule="evenodd" d="M29.4416 26.9169C29.7129 26.7599 29.943 26.4308 30.1286 26.0651C32.5711 27.0128 34.2876 29.2525 34.2876 31.8643C34.2876 35.334 31.2584 38.1468 27.5217 38.1468C25.9878 38.1468 24.5731 37.6728 23.4383 36.874C23.0661 36.7066 22.7598 36.5459 22.5092 36.4143C22.1204 36.2103 21.8655 36.0764 21.7059 36.0974C21.2392 36.1584 21.3747 36.5661 21.4978 36.9363C21.5814 37.1879 21.6593 37.4222 21.5387 37.5188C21.4126 37.62 21.0039 37.2501 20.5263 36.8178C19.8762 36.2293 19.0986 35.5254 18.7319 35.7368C18.4419 35.904 18.7234 36.3576 19.068 36.9127L19.0936 36.9539C19.2391 37.1886 19.4078 37.4276 19.5617 37.6456C19.8747 38.0888 20.1267 38.4459 20.0006 38.5064C19.8482 38.5794 18.7861 37.8988 17.8911 36.9539C17.5457 36.5893 17.2111 36.194 16.9001 35.8267V35.8266C16.2195 35.0225 15.6524 34.3527 15.3341 34.432C14.9512 34.5275 15.2408 35.2774 15.6665 35.999C15.8655 36.3365 16.0996 36.6801 16.3023 36.9777V36.9777C16.6176 37.4404 16.8569 37.7916 16.7701 37.8348C16.653 37.8929 15.6226 36.9389 14.9228 35.7368C14.5071 35.0228 14.1581 34.2337 13.8755 33.5949C13.569 32.902 13.3408 32.386 13.1905 32.334C12.6682 32.1536 12.6682 33.1645 12.8777 34.6236C12.905 34.814 12.9457 35.0136 12.9958 35.2169C15.027 41.4567 21.2668 46 28.6494 46C37.6796 46 45 39.2025 45 30.8172C45 22.8363 38.3687 16.2937 29.9434 15.6812C29.954 15.3052 30.1607 14.5597 30.1607 14.5597C30.1607 14.5597 31.6481 11.143 31.7267 10.4128C31.7319 10.3644 31.738 10.3117 31.7447 10.2556C31.8373 9.46678 32.0097 8 30.6806 8C29.9708 8 29.6408 8.50132 29.2633 9.07468C29.1183 9.29479 28.9664 9.52553 28.7833 9.74258C27.4647 11.306 25.2474 13.2583 23.9901 14.2984C21.3327 16.4969 18.7255 18.3036 17.2049 19.3574L17.2048 19.3575C16.5133 19.8367 16.0465 20.1602 15.902 20.2939C14.8134 21.3015 10.9101 27.9861 10.9101 27.9861C10.9101 27.9861 9.64778 30.1307 10.0964 30.5657C10.5451 31.0006 11.6271 30.9009 11.6271 30.9009C11.6271 30.9009 26.1625 27.735 27.4639 27.4853C27.8143 27.4181 28.0616 27.3793 28.2515 27.3495C28.767 27.2687 28.8596 27.2541 29.4416 26.9169ZM19.1645 22.8485C18.3843 23.5526 17.0903 25.2333 17.0903 25.2333C17.0903 25.2333 19.4952 25.3739 20.8197 24.1786C22.1442 22.9833 21.8408 20.9462 21.8408 20.9462C21.8408 20.9462 19.9447 22.1444 19.1645 22.8485Z" fill="#7998CE"/>
<path d="M68.332 37H60.24V16.504H68.332C71.2627 16.504 73.6707 17.3627 75.556 19.08C76.564 19.9947 77.32 21.1053 77.824 22.412C78.3467 23.7 78.608 25.1467 78.608 26.752C78.608 28.376 78.3467 29.8413 77.824 31.148C77.32 32.436 76.564 33.5373 75.556 34.452C74.6413 35.292 73.568 35.9267 72.336 36.356C71.1227 36.7853 69.788 37 68.332 37ZM64.16 33.528H68.332C69.06 33.528 69.7973 33.444 70.544 33.276C71.2907 33.108 71.9627 32.7813 72.56 32.296C73.176 31.792 73.68 31.1013 74.072 30.224C74.464 29.3467 74.66 28.1987 74.66 26.78C74.66 25.3613 74.464 24.2133 74.072 23.336C73.68 22.44 73.176 21.7493 72.56 21.264C71.944 20.7787 71.2627 20.452 70.516 20.284C69.7693 20.116 69.0413 20.032 68.332 20.032H64.16V33.528ZM85.5837 37H81.6917V16.504H90.9877C92.0331 16.504 92.9851 16.6813 93.8437 17.036C94.7211 17.372 95.4677 17.8573 96.0837 18.492C96.6997 19.108 97.1757 19.8547 97.5117 20.732C97.8664 21.5907 98.0437 22.5333 98.0437 23.56C98.0437 25.1093 97.6517 26.4627 96.8677 27.62C96.1024 28.7773 95.0757 29.608 93.7877 30.112C95.5237 32.3893 97.2317 34.6853 98.9117 37H94.2357C93.4144 35.936 92.6117 34.8627 91.8277 33.78C91.0437 32.6973 90.2597 31.596 89.4757 30.476H85.5837V37ZM85.5837 27.004H90.9877C91.3424 27.004 91.7064 26.9387 92.0797 26.808C92.4717 26.6587 92.8171 26.444 93.1157 26.164C93.4144 25.8653 93.6571 25.5013 93.8437 25.072C94.0491 24.6427 94.1517 24.1387 94.1517 23.56C94.1517 23.2613 94.1144 22.9067 94.0397 22.496C93.9651 22.0853 93.8157 21.6933 93.5917 21.32C93.3677 20.9467 93.0504 20.6293 92.6397 20.368C92.2291 20.1067 91.6784 19.976 90.9877 19.976H85.5837V27.004ZM98.9113 37L109.383 16.532H109.775L120.247 37H115.991L114.395 33.78H104.735L103.167 37H98.9113ZM106.639 30.364H112.491L109.579 24.176L106.639 30.364ZM140.674 25.8C140.656 26.192 140.646 26.556 140.646 26.892C140.628 27.1907 140.618 27.4893 140.618 27.788C140.618 28.068 140.609 28.2827 140.59 28.432C140.478 29.72 140.124 30.9147 139.526 32.016C138.948 33.1173 138.192 34.0693 137.258 34.872C136.344 35.656 135.28 36.272 134.066 36.72C132.872 37.168 131.612 37.392 130.286 37.392C128.83 37.392 127.458 37.112 126.17 36.552C124.882 35.992 123.753 35.236 122.782 34.284C121.83 33.3133 121.074 32.184 120.514 30.896C119.954 29.608 119.674 28.236 119.674 26.78C119.674 25.324 119.954 23.952 120.514 22.664C121.074 21.3573 121.83 20.228 122.782 19.276C123.753 18.3053 124.882 17.54 126.17 16.98C127.458 16.42 128.83 16.14 130.286 16.14C132.134 16.14 133.824 16.5693 135.354 17.428C136.904 18.2867 138.154 19.4347 139.106 20.872L135.746 22.916C135.149 22.0387 134.365 21.3013 133.394 20.704C132.442 20.1067 131.406 19.808 130.286 19.808C129.353 19.808 128.476 20.004 127.654 20.396C126.852 20.7693 126.142 21.2733 125.526 21.908C124.929 22.5427 124.453 23.2893 124.098 24.148C123.744 24.988 123.566 25.8653 123.566 26.78C123.566 27.7133 123.744 28.6 124.098 29.44C124.453 30.28 124.929 31.0173 125.526 31.652C126.142 32.2867 126.852 32.8 127.654 33.192C128.476 33.5653 129.353 33.752 130.286 33.752C130.996 33.752 131.677 33.6493 132.33 33.444C132.984 33.22 133.581 32.912 134.122 32.52C134.664 32.128 135.13 31.6613 135.522 31.12C135.933 30.5787 136.232 29.9813 136.418 29.328H128.858V25.8H140.674ZM152.998 37.392C151.542 37.392 150.17 37.112 148.882 36.552C147.594 35.992 146.465 35.236 145.494 34.284C144.542 33.3133 143.786 32.184 143.226 30.896C142.666 29.608 142.386 28.2267 142.386 26.752C142.386 25.296 142.666 23.924 143.226 22.636C143.786 21.3293 144.542 20.2 145.494 19.248C146.465 18.2773 147.594 17.512 148.882 16.952C150.17 16.392 151.542 16.112 152.998 16.112C154.473 16.112 155.854 16.392 157.142 16.952C158.43 17.512 159.55 18.2773 160.502 19.248C161.473 20.2 162.238 21.3293 162.798 22.636C163.358 23.924 163.638 25.296 163.638 26.752C163.638 28.2267 163.358 29.608 162.798 30.896C162.238 32.184 161.473 33.3133 160.502 34.284C159.55 35.236 158.43 35.992 157.142 36.552C155.854 37.112 154.473 37.392 152.998 37.392ZM152.998 19.78C152.065 19.78 151.187 19.976 150.366 20.368C149.563 20.7413 148.854 21.2453 148.238 21.88C147.641 22.5147 147.165 23.2613 146.81 24.12C146.455 24.96 146.278 25.8373 146.278 26.752C146.278 27.6853 146.455 28.572 146.81 29.412C147.165 30.252 147.641 30.9987 148.238 31.652C148.854 32.2867 149.563 32.8 150.366 33.192C151.187 33.5653 152.065 33.752 152.998 33.752C153.931 33.752 154.799 33.5653 155.602 33.192C156.423 32.8 157.133 32.2867 157.73 31.652C158.346 30.9987 158.831 30.252 159.186 29.412C159.541 28.572 159.718 27.6853 159.718 26.752C159.718 25.8373 159.541 24.96 159.186 24.12C158.831 23.2613 158.346 22.5147 157.73 21.88C157.133 21.2453 156.423 20.7413 155.602 20.368C154.799 19.976 153.931 19.78 152.998 19.78ZM183.93 37L170.434 24.82V37H166.542V16.532H166.962L180.43 28.908V16.532H184.35V37H183.93Z" fill="white"/>
</svg>
