<svg width="204" height="55" viewBox="0 0 204 55" fill="none" xmlns="http://www.w3.org/2000/svg">
<rect width="204" height="55" rx="27.5" fill="#5A5465"/>
<path fill-rule="evenodd" clip-rule="evenodd" d="M26.6011 41.7255C27.304 41.8331 28.0239 41.8889 28.757 41.8889C36.5618 41.8889 42.8889 35.5618 42.8889 27.757C42.8889 19.9521 36.5618 13.625 28.757 13.625C28.2333 13.625 27.7163 13.6535 27.2074 13.709C31.0791 16.6422 33.6389 21.7232 33.6389 27.5C33.6389 33.5732 30.8096 38.8775 26.6011 41.7255ZM28.5 46C38.7173 46 47 37.7173 47 27.5C47 17.2827 38.7173 9 28.5 9C18.2827 9 10 17.2827 10 27.5C10 37.7173 18.2827 46 28.5 46Z" fill="#908D96"/>
<path d="M93.332 37H85.24V16.504H93.332C96.2627 16.504 98.6707 17.3627 100.556 19.08C101.564 19.9947 102.32 21.1053 102.824 22.412C103.347 23.7 103.608 25.1467 103.608 26.752C103.608 28.376 103.347 29.8413 102.824 31.148C102.32 32.436 101.564 33.5373 100.556 34.452C99.6413 35.292 98.568 35.9267 97.336 36.356C96.1227 36.7853 94.788 37 93.332 37ZM89.16 33.528H93.332C94.06 33.528 94.7973 33.444 95.544 33.276C96.2907 33.108 96.9627 32.7813 97.56 32.296C98.176 31.792 98.68 31.1013 99.072 30.224C99.464 29.3467 99.66 28.1987 99.66 26.78C99.66 25.3613 99.464 24.2133 99.072 23.336C98.68 22.44 98.176 21.7493 97.56 21.264C96.944 20.7787 96.2627 20.452 95.516 20.284C94.7693 20.116 94.0413 20.032 93.332 20.032H89.16V33.528ZM102.432 37L112.904 16.532H113.296L123.768 37H119.512L117.916 33.78H108.256L106.688 37H102.432ZM110.16 30.364H116.012L113.1 24.176L110.16 30.364ZM128.426 37H124.534V16.504H133.83C134.875 16.504 135.827 16.6813 136.686 17.036C137.563 17.372 138.31 17.8573 138.926 18.492C139.542 19.108 140.018 19.8547 140.354 20.732C140.709 21.5907 140.886 22.5333 140.886 23.56C140.886 25.1093 140.494 26.4627 139.71 27.62C138.945 28.7773 137.918 29.608 136.63 30.112C138.366 32.3893 140.074 34.6853 141.754 37H137.078C136.257 35.936 135.454 34.8627 134.67 33.78C133.886 32.6973 133.102 31.596 132.318 30.476H128.426V37ZM128.426 27.004H133.83C134.185 27.004 134.549 26.9387 134.922 26.808C135.314 26.6587 135.659 26.444 135.958 26.164C136.257 25.8653 136.499 25.5013 136.686 25.072C136.891 24.6427 136.994 24.1387 136.994 23.56C136.994 23.2613 136.957 22.9067 136.882 22.496C136.807 22.0853 136.658 21.6933 136.434 21.32C136.21 20.9467 135.893 20.6293 135.482 20.368C135.071 20.1067 134.521 19.976 133.83 19.976H128.426V27.004ZM156.642 37L148.046 27.676V37H144.126V16.504H148.046V26.92L156.194 16.532H161.01L152.582 27.116L161.822 37H156.642Z" fill="white"/>
</svg>
