<svg width="204" height="55" viewBox="0 0 204 55" fill="none" xmlns="http://www.w3.org/2000/svg">
<rect width="204" height="55" rx="27.5" fill="#FF9D55"/>
<path fill-rule="evenodd" clip-rule="evenodd" d="M35.5402 36.6624C36.0349 34.8101 35.0747 31.0022 35.0747 31.0022C35.0747 31.0022 34.3783 34.1043 33.2902 35.2509C32.3618 36.2289 31.2245 36.9072 29.5934 37.0855C30.927 36.4221 31.8441 35.0389 31.8441 33.4402C31.8441 31.1959 30.0369 29.3765 27.8076 29.3765C25.5782 29.3765 23.7709 31.1959 23.7709 33.4402C23.7709 34.0531 23.9058 34.6344 24.1472 35.1555C22.7528 34.0179 22.5336 32.1941 22.5336 32.1941C22.5336 32.1941 20.9766 38.8141 25.2668 41.9282C29.5569 45.0423 37.9612 42.3656 37.9612 42.3656C37.9612 42.3656 25.9342 51.0319 17.022 41.5997C9.34495 33.4745 15.0183 22.7776 15.0183 22.7776C15.0183 22.7776 14.7733 23.7699 14.7733 24.9218C14.7733 26.0738 15.3831 26.9502 15.3831 26.9502C15.3831 26.9502 17.2023 23.0233 18.6181 21.4263C19.9581 19.9149 21.6378 18.689 23.0886 17.6302C24.2054 16.8152 25.1866 16.0992 25.7725 15.428C29.0002 11.7321 27.0212 5 27.0212 5C27.0212 5 30.6595 8.28481 31.6753 12.5272C32.0625 14.1443 31.8134 15.9842 31.5907 17.6296C31.2291 20.3007 30.9369 22.459 33.549 22.319C37.7701 22.0926 34.1021 15.428 34.1021 15.428C34.1021 15.428 43.6771 20.5818 42.9618 29.5956C42.2464 38.6094 32.4958 40.6586 32.4958 40.6586C32.4958 40.6586 35.0455 38.5147 35.5402 36.6624Z" fill="#FFB68D"/>
<path d="M95.16 19.004V24.044H105.044V27.656H95.16V36H91.24V15.504H106.304V19.004H95.16ZM113.426 36H109.506V15.532H113.426V36ZM121.793 36H117.901V15.504H127.197C128.243 15.504 129.195 15.6813 130.053 16.036C130.931 16.372 131.677 16.8573 132.293 17.492C132.909 18.108 133.385 18.8547 133.721 19.732C134.076 20.5907 134.253 21.5333 134.253 22.56C134.253 24.1093 133.861 25.4627 133.077 26.62C132.312 27.7773 131.285 28.608 129.997 29.112C131.733 31.3893 133.441 33.6853 135.121 36H130.445C129.624 34.936 128.821 33.8627 128.037 32.78C127.253 31.6973 126.469 30.596 125.685 29.476H121.793V36ZM121.793 26.004H127.197C127.552 26.004 127.916 25.9387 128.289 25.808C128.681 25.6587 129.027 25.444 129.325 25.164C129.624 24.8653 129.867 24.5013 130.053 24.072C130.259 23.6427 130.361 23.1387 130.361 22.56C130.361 22.2613 130.324 21.9067 130.249 21.496C130.175 21.0853 130.025 20.6933 129.801 20.32C129.577 19.9467 129.26 19.6293 128.849 19.368C128.439 19.1067 127.888 18.976 127.197 18.976H121.793V26.004ZM141.386 18.976V24.1H151.298V27.656H141.386V32.472H152.558V36H137.494V15.504H152.558V18.976H141.386Z" fill="white"/>
</svg>
