<svg width="204" height="55" viewBox="0 0 204 55" fill="none" xmlns="http://www.w3.org/2000/svg">
<rect width="204" height="55" rx="27.5" fill="#999999"/>
<path d="M32.4671 19.8248L29.2787 20.3928V22.1729L30.3436 23.7367L33.9948 23.178L32.4671 19.8248Z" fill="#525252"/>
<path d="M37.3783 16.4568C36.1514 16.4085 34.9865 16.4568 33.857 16.5542L35.1946 17.4406C31.9272 17.4406 29.2787 19.5594 29.2787 22.1729C29.2787 24.7865 31.9272 26.9049 35.1946 26.9049C38.4616 26.9049 41.1101 29.0236 41.1101 31.6368C41.1101 34.2503 38.4616 36.3687 35.1946 36.3687C35.1946 36.3687 33.7437 36.4895 32.2579 36.6017C30.6982 36.7193 29.2758 35.9251 28.6032 35.7903C26.5357 35.3748 23.6866 34.7513 20.8336 31.5282C21.6205 32.5236 22.5001 33.396 23.1839 34.1162C25.3073 36.3514 29.6664 37.8044 29.6664 37.8044C29.6664 37.8044 33.5782 39.2574 41.0669 37.5808C48.5555 35.9042 50.7908 30.0925 51.4612 26.1803C52.1316 22.2689 45.8727 16.7922 37.3783 16.4568Z" fill="#525252"/>
<path d="M37.3783 14.6767C36.1514 14.6283 34.9865 14.6767 33.857 14.774L35.1946 15.6605C31.9272 15.6605 29.2787 17.7792 29.2787 20.3928C29.2787 23.0063 31.9272 25.1247 35.1946 25.1247C38.4616 25.1247 41.1101 27.2435 41.1101 29.8566C41.1101 32.4698 38.4616 34.5886 35.1946 34.5886C35.1946 34.5886 33.7437 34.7094 32.2579 34.8216C30.6982 34.9391 29.2758 34.145 28.6032 34.0101C26.5357 33.5947 23.6866 32.9711 20.8336 29.7481C21.6205 30.7435 22.5001 31.6158 23.1839 32.336C25.3073 34.5713 29.6664 36.0243 29.6664 36.0243C29.6664 36.0243 33.5782 37.4773 41.0669 35.8007C48.5555 34.1241 50.7908 28.3124 51.4612 24.4002C52.1316 20.4887 45.8727 15.0121 37.3783 14.6767Z" fill="white"/>
<path d="M35.0006 14.7874C26.7347 14.7874 19.7506 19.0833 19.7506 24.1691C19.7506 24.547 19.8011 24.9188 19.8754 25.287C20.8076 20.7062 27.3493 17.023 35.0006 17.023C42.6519 17.023 49.1946 20.7062 50.1268 25.287C50.2015 24.9192 50.2516 24.5474 50.2516 24.1691C50.2516 19.0833 43.2664 14.7874 35.0006 14.7874Z" fill="#525252"/>
<path d="M35.0005 37.3677C25.6301 37.3677 17.9167 32.4698 17.0833 26.2409C17.0339 26.6095 17 26.9813 17 27.3585C17 34.11 25.0754 39.6029 35.0005 39.6029C44.9271 39.6029 53 34.11 53 27.3585C53 26.9813 52.9661 26.6095 52.9167 26.2409C52.0829 32.4702 44.3721 37.3677 35.0005 37.3677Z" fill="#525252"/>
<path d="M17 27.3589L18.2727 28.5429L18.4216 25.0779L17 25.1233V27.3589Z" fill="#525252"/>
<path d="M52.0638 25.339L52.0266 28.2821L52.4734 29.1015L53 27.3589V25.1233L52.0638 25.339Z" fill="#525252"/>
<path d="M35.0005 37.3677C25.0754 37.3677 17 31.8748 17 25.1233C17 18.3729 25.0754 12.88 35.0005 12.88C44.9271 12.88 53 18.3729 53 25.1233C53 31.8748 44.9271 37.3677 35.0005 37.3677ZM35.0005 15.742C26.7949 15.742 19.8617 20.038 19.8617 25.1237C19.8617 30.2101 26.7949 34.5064 35.0005 34.5064C43.2061 34.5064 50.1405 30.2105 50.1405 25.1237C50.1405 20.038 43.2061 15.742 35.0005 15.742Z" fill="white"/>
<path d="M72.428 34.312L74.556 31.176C75.5827 31.8853 76.6373 32.5013 77.72 33.024C78.8213 33.528 79.9693 33.78 81.164 33.78C81.7987 33.78 82.3587 33.7053 82.844 33.556C83.3293 33.388 83.74 33.1827 84.076 32.94C84.412 32.6787 84.664 32.3893 84.832 32.072C85 31.736 85.084 31.4093 85.084 31.092C85.084 30.6813 84.9533 30.336 84.692 30.056C84.4493 29.7573 84.1133 29.5147 83.684 29.328C83.2733 29.1413 82.7787 28.9827 82.2 28.852C81.64 28.7213 81.052 28.6 80.436 28.488C80.0253 28.4133 79.5493 28.3293 79.008 28.236C78.4667 28.124 77.9067 27.984 77.328 27.816C76.7493 27.6293 76.18 27.396 75.62 27.116C75.06 26.8173 74.556 26.4533 74.108 26.024C73.66 25.576 73.296 25.0533 73.016 24.456C72.7547 23.84 72.624 23.1213 72.624 22.3C72.624 21.1053 72.8667 20.116 73.352 19.332C73.8373 18.5293 74.4533 17.904 75.2 17.456C75.9653 16.9893 76.8053 16.6627 77.72 16.476C78.6533 16.2893 79.5493 16.196 80.408 16.196C81.2667 16.196 82.032 16.252 82.704 16.364C83.376 16.476 84.0013 16.644 84.58 16.868C85.1587 17.0733 85.7187 17.344 86.26 17.68C86.82 17.9973 87.4173 18.38 88.052 18.828L85.868 21.908C84.8973 21.236 83.964 20.7227 83.068 20.368C82.172 20.0133 81.2293 19.836 80.24 19.836C79.904 19.836 79.5213 19.8827 79.092 19.976C78.6627 20.0507 78.252 20.1813 77.86 20.368C77.4867 20.5547 77.1693 20.7973 76.908 21.096C76.6653 21.376 76.544 21.7213 76.544 22.132C76.544 22.5427 76.6933 22.888 76.992 23.168C77.2907 23.448 77.6733 23.6813 78.14 23.868C78.6067 24.0547 79.12 24.2133 79.68 24.344C80.24 24.4747 80.7813 24.6053 81.304 24.736C81.696 24.8293 82.1533 24.9227 82.676 25.016C83.2173 25.1093 83.768 25.24 84.328 25.408C84.9067 25.576 85.476 25.8 86.036 26.08C86.596 26.36 87.0907 26.724 87.52 27.172C87.968 27.6013 88.3227 28.1427 88.584 28.796C88.864 29.4307 89.004 30.2053 89.004 31.12C89.004 32.184 88.8173 33.108 88.444 33.892C88.0707 34.676 87.5387 35.3293 86.848 35.852C86.1573 36.356 85.336 36.7387 84.384 37C83.432 37.2613 82.3773 37.392 81.22 37.392C80.156 37.392 79.2133 37.308 78.392 37.14C77.5893 36.9907 76.852 36.7853 76.18 36.524C75.508 36.244 74.8733 35.9173 74.276 35.544C73.6787 35.1707 73.0627 34.76 72.428 34.312ZM104.717 19.976H98.8646V37H94.9446V19.976H89.0646V16.504H104.717V19.976ZM101.548 37L112.02 16.532H112.412L122.884 37H118.628L117.032 33.78H107.372L105.804 37H101.548ZM109.276 30.364H115.128L112.216 24.176L109.276 30.364ZM135.534 19.976H129.682V37H125.762V19.976H119.882V16.504H135.534V19.976ZM146.456 37.364C145.131 37.364 143.927 37.1587 142.844 36.748C141.761 36.3373 140.837 35.7587 140.072 35.012C139.307 34.2653 138.709 33.36 138.28 32.296C137.869 31.232 137.664 30.0467 137.664 28.74V16.532H141.584V28.74C141.584 29.7667 141.752 30.616 142.088 31.288C142.424 31.96 142.835 32.492 143.32 32.884C143.824 33.276 144.356 33.5467 144.916 33.696C145.495 33.8453 146.008 33.92 146.456 33.92C146.904 33.92 147.408 33.8453 147.968 33.696C148.547 33.5467 149.079 33.276 149.564 32.884C150.068 32.492 150.488 31.96 150.824 31.288C151.16 30.616 151.328 29.7667 151.328 28.74V16.532H155.248V28.74C155.248 30.0467 155.043 31.232 154.632 32.296C154.221 33.36 153.633 34.2653 152.868 35.012C152.103 35.7587 151.179 36.3373 150.096 36.748C149.013 37.1587 147.8 37.364 146.456 37.364ZM157.456 34.312L159.584 31.176C160.611 31.8853 161.665 32.5013 162.748 33.024C163.849 33.528 164.997 33.78 166.192 33.78C166.827 33.78 167.387 33.7053 167.872 33.556C168.357 33.388 168.768 33.1827 169.104 32.94C169.44 32.6787 169.692 32.3893 169.86 32.072C170.028 31.736 170.112 31.4093 170.112 31.092C170.112 30.6813 169.981 30.336 169.72 30.056C169.477 29.7573 169.141 29.5147 168.712 29.328C168.301 29.1413 167.807 28.9827 167.228 28.852C166.668 28.7213 166.08 28.6 165.464 28.488C165.053 28.4133 164.577 28.3293 164.036 28.236C163.495 28.124 162.935 27.984 162.356 27.816C161.777 27.6293 161.208 27.396 160.648 27.116C160.088 26.8173 159.584 26.4533 159.136 26.024C158.688 25.576 158.324 25.0533 158.044 24.456C157.783 23.84 157.652 23.1213 157.652 22.3C157.652 21.1053 157.895 20.116 158.38 19.332C158.865 18.5293 159.481 17.904 160.228 17.456C160.993 16.9893 161.833 16.6627 162.748 16.476C163.681 16.2893 164.577 16.196 165.436 16.196C166.295 16.196 167.06 16.252 167.732 16.364C168.404 16.476 169.029 16.644 169.608 16.868C170.187 17.0733 170.747 17.344 171.288 17.68C171.848 17.9973 172.445 18.38 173.08 18.828L170.896 21.908C169.925 21.236 168.992 20.7227 168.096 20.368C167.2 20.0133 166.257 19.836 165.268 19.836C164.932 19.836 164.549 19.8827 164.12 19.976C163.691 20.0507 163.28 20.1813 162.888 20.368C162.515 20.5547 162.197 20.7973 161.936 21.096C161.693 21.376 161.572 21.7213 161.572 22.132C161.572 22.5427 161.721 22.888 162.02 23.168C162.319 23.448 162.701 23.6813 163.168 23.868C163.635 24.0547 164.148 24.2133 164.708 24.344C165.268 24.4747 165.809 24.6053 166.332 24.736C166.724 24.8293 167.181 24.9227 167.704 25.016C168.245 25.1093 168.796 25.24 169.356 25.408C169.935 25.576 170.504 25.8 171.064 26.08C171.624 26.36 172.119 26.724 172.548 27.172C172.996 27.6013 173.351 28.1427 173.612 28.796C173.892 29.4307 174.032 30.2053 174.032 31.12C174.032 32.184 173.845 33.108 173.472 33.892C173.099 34.676 172.567 35.3293 171.876 35.852C171.185 36.356 170.364 36.7387 169.412 37C168.46 37.2613 167.405 37.392 166.248 37.392C165.184 37.392 164.241 37.308 163.42 37.14C162.617 36.9907 161.88 36.7853 161.208 36.524C160.536 36.244 159.901 35.9173 159.304 35.544C158.707 35.1707 158.091 34.76 157.456 34.312Z" fill="white"/>
</svg>
