<svg width="204" height="55" viewBox="0 0 204 55" fill="none" xmlns="http://www.w3.org/2000/svg">
<rect width="204" height="55" rx="27.5" fill="#1E4E92"/>
<path d="M31.0013 41.3886C21.0757 41.3886 13 35.8955 13 29.1437C13 22.393 21.0757 16.8999 31.0013 16.8999C40.9268 16.8999 49 22.393 49 29.1437C49 35.8955 40.9268 41.3886 31.0013 41.3886ZM31.0013 19.7617C22.7953 19.7617 15.8618 24.0578 15.8618 29.1437C15.8618 34.2304 22.7953 38.5268 31.0013 38.5268C39.3482 38.5268 46.1407 34.318 46.1407 29.1437C46.1404 24.0581 39.2061 19.7617 31.0013 19.7617Z" fill="#4A3952"/>
<path d="M31.0013 35.3088C24.4021 35.3088 19.4247 32.6587 19.4247 29.1438C19.4247 25.6288 24.4021 22.9788 31.0013 22.9788C37.6016 22.9788 42.5779 25.6288 42.5779 29.1438C42.5779 32.6587 37.6016 35.3088 31.0013 35.3088ZM31.0013 25.3634C25.7397 25.3634 21.809 27.3589 21.809 29.1438C21.809 30.9286 25.7397 32.9241 31.0013 32.9241C36.2628 32.9241 40.1936 30.9286 40.1936 29.1438C40.1936 27.3589 36.2625 25.3634 31.0013 25.3634Z" fill="#4A3952"/>
<path d="M13 27.2439V29.1438L13.8335 31.9136L14.5043 29.6411L14.6532 26.735L13 27.2439Z" fill="#4A3952"/>
<path d="M47.0672 31.0194L48.9999 29.1437V27.2438L46.9182 28.039L47.0672 31.0194Z" fill="#4A3952"/>
<path d="M42.2612 26.6603L41.0688 27.8526L41.8886 30.3115L42.5778 29.1437V27.2438L42.2612 26.6603Z" fill="#4A3952"/>
<path d="M20.2791 26.5485L19.4247 27.2438V29.1437L20.2791 30.9823L20.4655 29.3428L20.2791 26.5485Z" fill="#4A3952"/>
<path d="M31.0013 39.4887C21.0757 39.4887 13 33.9956 13 27.2438C13 20.4931 21.0757 15 31.0013 15C40.9268 15 49 20.4931 49 27.2438C49 33.9956 40.9268 39.4887 31.0013 39.4887ZM31.0013 17.8618C22.7953 17.8618 15.8618 22.1579 15.8618 27.2438C15.8618 32.3305 22.7953 36.6269 31.0013 36.6269C39.3482 36.6269 46.1407 32.4181 46.1407 27.2438C46.1404 22.1579 39.2061 17.8618 31.0013 17.8618Z" fill="#C7DCF3"/>
<path d="M31.0013 33.4084C24.4021 33.4084 19.4247 30.7584 19.4247 27.2434C19.4247 23.7285 24.4021 21.0784 31.0013 21.0784C37.6016 21.0784 42.5779 23.7285 42.5779 27.2434C42.5779 30.7584 37.6016 33.4084 31.0013 33.4084ZM31.0013 23.4631C25.7397 23.4631 21.809 25.4586 21.809 27.2434C21.809 29.0283 25.7397 31.0238 31.0013 31.0238C36.2628 31.0238 40.1936 29.0283 40.1936 27.2434C40.1936 25.4586 36.2625 23.4631 31.0013 23.4631Z" fill="#C7DCF3"/>
<path d="M26.9396 28.5855L29.2874 29.1499L29.3617 27.2193L26.9396 27.2438V28.5855Z" fill="#4A3952"/>
<path d="M35.0629 27.2438L33.4973 27.2193L32.1189 28.2623V29.5718L33.1619 28.9634L35.0629 28.5855V27.2438Z" fill="#4A3952"/>
<path d="M31.001 29.8091C33.2442 29.8091 35.0627 29.2613 35.0627 28.5854C35.0627 27.9096 33.2442 27.3618 31.001 27.3618C28.7578 27.3618 26.9393 27.9096 26.9393 28.5854C26.9393 29.2613 28.7578 29.8091 31.001 29.8091Z" fill="#4A3952"/>
<path d="M31.001 28.4678C33.2442 28.4678 35.0627 27.92 35.0627 27.2441C35.0627 26.5683 33.2442 26.0204 31.001 26.0204C28.7578 26.0204 26.9393 26.5683 26.9393 27.2441C26.9393 27.92 28.7578 28.4678 31.001 28.4678Z" fill="#C7DCF3"/>
<path d="M62.428 34.312L64.556 31.176C65.5827 31.8853 66.6373 32.5013 67.72 33.024C68.8213 33.528 69.9693 33.78 71.164 33.78C71.7987 33.78 72.3587 33.7053 72.844 33.556C73.3293 33.388 73.74 33.1827 74.076 32.94C74.412 32.6787 74.664 32.3893 74.832 32.072C75 31.736 75.084 31.4093 75.084 31.092C75.084 30.6813 74.9533 30.336 74.692 30.056C74.4493 29.7573 74.1133 29.5147 73.684 29.328C73.2733 29.1413 72.7787 28.9827 72.2 28.852C71.64 28.7213 71.052 28.6 70.436 28.488C70.0253 28.4133 69.5493 28.3293 69.008 28.236C68.4667 28.124 67.9067 27.984 67.328 27.816C66.7493 27.6293 66.18 27.396 65.62 27.116C65.06 26.8173 64.556 26.4533 64.108 26.024C63.66 25.576 63.296 25.0533 63.016 24.456C62.7547 23.84 62.624 23.1213 62.624 22.3C62.624 21.1053 62.8667 20.116 63.352 19.332C63.8373 18.5293 64.4533 17.904 65.2 17.456C65.9653 16.9893 66.8053 16.6627 67.72 16.476C68.6533 16.2893 69.5493 16.196 70.408 16.196C71.2667 16.196 72.032 16.252 72.704 16.364C73.376 16.476 74.0013 16.644 74.58 16.868C75.1587 17.0733 75.7187 17.344 76.26 17.68C76.82 17.9973 77.4173 18.38 78.052 18.828L75.868 21.908C74.8973 21.236 73.964 20.7227 73.068 20.368C72.172 20.0133 71.2293 19.836 70.24 19.836C69.904 19.836 69.5213 19.8827 69.092 19.976C68.6627 20.0507 68.252 20.1813 67.86 20.368C67.4867 20.5547 67.1693 20.7973 66.908 21.096C66.6653 21.376 66.544 21.7213 66.544 22.132C66.544 22.5427 66.6933 22.888 66.992 23.168C67.2907 23.448 67.6733 23.6813 68.14 23.868C68.6067 24.0547 69.12 24.2133 69.68 24.344C70.24 24.4747 70.7813 24.6053 71.304 24.736C71.696 24.8293 72.1533 24.9227 72.676 25.016C73.2173 25.1093 73.768 25.24 74.328 25.408C74.9067 25.576 75.476 25.8 76.036 26.08C76.596 26.36 77.0907 26.724 77.52 27.172C77.968 27.6013 78.3227 28.1427 78.584 28.796C78.864 29.4307 79.004 30.2053 79.004 31.12C79.004 32.184 78.8173 33.108 78.444 33.892C78.0707 34.676 77.5387 35.3293 76.848 35.852C76.1573 36.356 75.336 36.7387 74.384 37C73.432 37.2613 72.3773 37.392 71.22 37.392C70.156 37.392 69.2133 37.308 68.392 37.14C67.5893 36.9907 66.852 36.7853 66.18 36.524C65.508 36.244 64.8733 35.9173 64.276 35.544C63.6787 35.1707 63.0627 34.76 62.428 34.312ZM90.8393 16.504C91.8473 16.504 92.7899 16.7 93.6673 17.092C94.5633 17.4653 95.3379 17.9787 95.9913 18.632C96.6446 19.2853 97.1579 20.06 97.5313 20.956C97.9233 21.8333 98.1193 22.776 98.1193 23.784C98.1193 24.792 97.9513 25.7253 97.6153 26.584C97.2793 27.4427 96.7846 28.1987 96.1313 28.852C95.4779 29.4867 94.6473 29.9907 93.6393 30.364C92.6499 30.7187 91.5019 30.896 90.1953 30.896H85.6313V37H81.7113V16.504H90.8393ZM90.8393 27.368C91.4179 27.368 91.9219 27.2747 92.3513 27.088C92.7806 26.8827 93.1259 26.612 93.3873 26.276C93.6673 25.94 93.8726 25.5573 94.0033 25.128C94.1339 24.6987 94.1993 24.2507 94.1993 23.784C94.1993 23.3173 94.1153 22.86 93.9473 22.412C93.7793 21.9453 93.5366 21.5347 93.2193 21.18C92.9019 20.8253 92.5099 20.536 92.0433 20.312C91.5766 20.088 91.0353 19.976 90.4193 19.976H85.6313V27.368H90.8393ZM104.02 19.976V25.1H113.932V28.656H104.02V33.472H115.192V37H100.128V16.504H115.192V19.976H104.02ZM136.894 31.96C136.446 32.7813 135.896 33.528 135.242 34.2C134.589 34.8533 133.861 35.4227 133.058 35.908C132.274 36.3747 131.416 36.7387 130.482 37C129.568 37.2613 128.616 37.392 127.626 37.392C126.17 37.392 124.798 37.112 123.51 36.552C122.222 35.992 121.093 35.236 120.122 34.284C119.17 33.3133 118.414 32.184 117.854 30.896C117.294 29.608 117.014 28.236 117.014 26.78C117.014 25.324 117.294 23.952 117.854 22.664C118.414 21.376 119.17 20.256 120.122 19.304C121.093 18.3333 122.222 17.568 123.51 17.008C124.798 16.448 126.17 16.168 127.626 16.168C128.616 16.168 129.568 16.2987 130.482 16.56C131.416 16.8213 132.274 17.1947 133.058 17.68C133.861 18.1467 134.589 18.716 135.242 19.388C135.896 20.0413 136.446 20.7693 136.894 21.572L133.226 23.056C132.928 22.608 132.573 22.188 132.162 21.796C131.77 21.404 131.332 21.0587 130.846 20.76C130.361 20.4613 129.848 20.228 129.306 20.06C128.765 19.892 128.205 19.808 127.626 19.808C126.693 19.808 125.816 20.004 124.994 20.396C124.192 20.7693 123.492 21.2733 122.894 21.908C122.297 22.5427 121.821 23.2893 121.466 24.148C121.112 24.988 120.934 25.8653 120.934 26.78C120.934 27.7133 121.112 28.6 121.466 29.44C121.821 30.28 122.297 31.0173 122.894 31.652C123.492 32.2867 124.192 32.8 124.994 33.192C125.816 33.5653 126.693 33.752 127.626 33.752C128.205 33.752 128.765 33.668 129.306 33.5C129.848 33.332 130.361 33.0987 130.846 32.8C131.332 32.5013 131.77 32.156 132.162 31.764C132.573 31.3533 132.928 30.924 133.226 30.476L136.894 31.96ZM143.847 37H139.927V16.532H143.847V37ZM146.251 37L156.723 16.532H157.115L167.587 37H163.331L161.735 33.78H152.075L150.507 37H146.251ZM153.979 30.364H159.831L156.919 24.176L153.979 30.364ZM183.519 33.528V37H168.763V16.504H172.683V33.528H183.519Z" fill="white"/>
</svg>
