<svg width="119" height="114" viewBox="0 0 119 114" fill="none" xmlns="http://www.w3.org/2000/svg">
<path d="M74.9591 18.0975L65.3592 27.7162L58.6037 27.2175L51.9193 26.7187L49.5016 22.4437C45.946 16.1025 45.8038 16.1025 45.8038 22.8712V28.9275L43.1727 30.21C41.6794 30.9225 39.2617 32.4187 37.7683 33.63C35.0661 35.8387 34.995 35.8387 31.0128 34.9125C28.8084 34.4137 23.1196 32.9175 18.4974 31.635C13.8041 30.2812 9.60855 29.2125 9.253 29.2125C8.82634 29.2125 12.8796 33.63 18.2129 38.9737L27.9551 48.8062L27.244 52.0125C26.8173 53.7937 26.604 56.6437 26.7462 58.425L26.8884 61.56L22.124 64.4812L17.3596 67.3312L23.0484 67.545C28.5951 67.7587 28.8084 67.83 29.5195 69.6825C29.9462 70.7512 31.5106 73.3162 33.075 75.3825L35.9195 79.0875L33.9995 86.07C33.0039 89.8462 31.3684 95.8312 30.5151 99.3225L28.8084 105.735L38.5505 95.9737L48.2927 86.2837L55.0482 86.7825L61.7326 87.2812L64.1503 91.5562C67.7059 97.8975 67.8481 97.8975 67.8481 91.1287V85.0725L70.4792 83.79C71.9725 83.0775 74.3903 81.5812 75.8836 80.37C78.5858 78.1612 78.6569 78.1612 82.6391 79.0875C84.8435 79.5862 90.5324 81.0825 95.1545 82.365C99.8478 83.7187 104.043 84.7875 104.399 84.7875C104.826 84.7875 100.772 80.37 95.439 74.955L85.6968 65.1937L86.4079 61.6312C86.7635 59.6362 87.0479 56.7862 86.9057 55.2187C86.6924 52.44 86.7635 52.3687 91.5279 49.5187L96.2923 46.6687L90.6035 46.455C85.0568 46.2412 84.8435 46.17 84.1324 44.3175C83.7057 43.2487 82.1413 40.6837 80.5769 38.6175L77.7325 34.9125L79.6524 27.93C82.2835 18.0262 84.7724 8.54998 84.6302 8.54998C84.6302 8.54998 80.2213 12.825 74.9591 18.0975ZM71.1903 34.5562L70.0525 37.8337L72.8969 40.6837C78.6569 46.455 81.2169 55.7887 78.9413 63.0562L77.8747 66.6187L80.2924 69.1125C81.6435 70.5375 82.7813 71.82 82.7813 72.105C82.7813 72.3187 81.5724 72.105 80.1502 71.535C76.2391 70.1812 75.9547 70.2525 72.968 73.245C67.4214 78.8025 58.0348 81.225 50.3549 79.0875L47.1549 78.1612L44.3105 80.94C41.2527 83.9325 41.0394 83.6475 42.6038 79.1587L43.5994 76.1662L40.755 73.3162C34.995 67.545 32.435 58.2112 34.7106 50.9437L35.7772 47.3812L33.3595 44.8875C32.0084 43.4625 30.8706 42.18 30.8706 41.895C30.8706 41.6812 32.0795 41.895 33.5728 42.465C37.4128 43.8187 37.6972 43.7475 40.6839 40.755C46.2305 35.1975 55.6171 32.775 63.297 34.9125C66.5681 35.8387 66.5681 35.8387 69.1281 33.2737C70.5503 31.8487 71.8303 30.8512 71.9725 30.9937C72.1147 31.1362 71.7592 32.775 71.1903 34.5562Z" fill="#EC6B15"/>
<path d="M51.4926 39.1163C46.3015 40.755 41.8927 44.6738 39.6883 49.7325C36.9861 55.86 38.8349 65.6925 43.4571 69.8963C44.4527 70.8225 45.0927 71.25 44.8793 70.7513C44.0971 69.54 45.5193 66.4763 47.226 65.55C52.0615 62.985 56.7548 69.54 52.9148 73.3875C51.6348 74.67 51.6348 74.8838 52.5593 75.3113C54.5504 76.0238 63.1547 75.0975 65.5014 73.815C68.7014 72.2475 72.2569 68.4713 73.9636 65.1225C75.7413 61.4888 75.8124 52.6538 74.1058 49.5188L72.8969 47.3813L72.8258 50.8013C72.8258 54.72 71.688 57.2138 68.7725 59.9925C65.5014 63.1275 59.8837 64.41 57.1815 62.7C56.3992 62.2013 56.6126 61.9875 58.3192 61.9875C64.3636 61.9875 66.0703 53.01 60.5948 50.16C54.977 47.2388 49.2882 53.6513 52.3459 59.3513C53.0571 60.7763 53.0571 60.8475 51.9193 59.9213C50.3549 58.6388 48.9326 55.86 48.3638 52.9388C47.2971 48.165 50.7815 41.4675 55.4037 39.4725L57.537 38.5463H55.4037C54.2659 38.6175 52.4882 38.8313 51.4926 39.1163Z" fill="#154096"/>
</svg>
