<svg width="55" height="55" viewBox="0 0 55 55" fill="none" xmlns="http://www.w3.org/2000/svg">
<rect width="55" height="55" rx="27.5" fill="#91C12F"/>
<path fill-rule="evenodd" clip-rule="evenodd" d="M35.1055 7.04112C35.1362 6.9975 35.1967 6.9869 35.2406 7.01744L38.2409 9.10563C38.2848 9.13617 38.2954 9.19628 38.2647 9.2399L34.0888 15.1678C36.1189 15.8124 37.5021 16.5078 37.5021 16.5078C37.5021 16.5078 34.1213 22.288 28.3872 22.288C22.6531 22.288 18.5785 16.9008 18.5785 16.9008C18.5785 16.9008 20.0233 15.9843 22.1649 15.1983L17.5845 9.7725C17.5501 9.73171 17.5555 9.6709 17.5965 9.63667L20.4022 7.29652C20.4433 7.26229 20.5045 7.26761 20.5389 7.3084L26.3385 14.1784C26.835 14.1225 27.341 14.0913 27.8515 14.0913C28.5853 14.0913 29.3181 14.1468 30.0336 14.2409L35.1055 7.04112ZM36.2399 22.5617C37.7701 21.4755 40.0856 18.6403 40.0856 18.6403C40.0856 18.6403 46 23.2989 46 33.1769C46 43.0549 35.7749 49 35.7749 49C35.7749 49 30.8895 44.096 29.6902 37.8795C28.4909 31.663 31.4642 24.7603 31.4642 24.7603C31.4642 24.7603 34.7097 23.648 36.2399 22.5617ZM19.7601 22.5617C18.2299 21.4755 15.9144 18.6403 15.9144 18.6403C15.9144 18.6403 10 23.2989 10 33.1769C10 43.0549 20.2251 49 20.2251 49C20.2251 49 25.1105 44.096 26.3098 37.8795C27.5091 31.663 24.5358 24.7603 24.5358 24.7603C24.5358 24.7603 21.2904 23.648 19.7601 22.5617Z" fill="#ADD080"/>
</svg>
