<svg width="55" height="55" viewBox="0 0 55 55" fill="none" xmlns="http://www.w3.org/2000/svg">
<rect width="55" height="55" rx="27.5" fill="#5A5465"/>
<path fill-rule="evenodd" clip-rule="evenodd" d="M25.6011 41.7255C26.304 41.8331 27.0239 41.8889 27.757 41.8889C35.5618 41.8889 41.8889 35.5618 41.8889 27.757C41.8889 19.9521 35.5618 13.625 27.757 13.625C27.2333 13.625 26.7163 13.6535 26.2074 13.709C30.0791 16.6422 32.6389 21.7232 32.6389 27.5C32.6389 33.5732 29.8096 38.8775 25.6011 41.7255ZM27.5 46C37.7173 46 46 37.7173 46 27.5C46 17.2827 37.7173 9 27.5 9C17.2827 9 9 17.2827 9 27.5C9 37.7173 17.2827 46 27.5 46Z" fill="#908D96"/>
</svg>
