<svg width="55" height="55" viewBox="0 0 55 55" fill="none" xmlns="http://www.w3.org/2000/svg">
<rect width="55" height="55" rx="27.5" fill="#0B6DC3"/>
<path fill-rule="evenodd" clip-rule="evenodd" d="M29.4416 26.9169C29.7129 26.7599 29.943 26.4308 30.1286 26.0651C32.5711 27.0128 34.2876 29.2525 34.2876 31.8643C34.2876 35.334 31.2584 38.1468 27.5217 38.1468C25.9878 38.1468 24.5731 37.6728 23.4383 36.874C23.0661 36.7066 22.7598 36.5459 22.5092 36.4143C22.1204 36.2103 21.8655 36.0764 21.7059 36.0974C21.2392 36.1584 21.3747 36.5661 21.4978 36.9363C21.5814 37.1879 21.6593 37.4222 21.5387 37.5188C21.4126 37.62 21.0039 37.2501 20.5263 36.8178C19.8762 36.2293 19.0986 35.5254 18.7319 35.7368C18.4419 35.904 18.7234 36.3576 19.068 36.9127L19.0936 36.9539C19.2391 37.1886 19.4078 37.4276 19.5617 37.6456C19.8747 38.0888 20.1267 38.4459 20.0006 38.5064C19.8482 38.5794 18.7861 37.8988 17.8911 36.9539C17.5457 36.5893 17.2111 36.194 16.9001 35.8267V35.8266C16.2195 35.0225 15.6524 34.3527 15.3341 34.432C14.9512 34.5275 15.2408 35.2774 15.6665 35.999C15.8655 36.3365 16.0996 36.6801 16.3023 36.9777V36.9777C16.6176 37.4404 16.8569 37.7916 16.7701 37.8348C16.653 37.8929 15.6226 36.9389 14.9228 35.7368C14.5071 35.0228 14.1581 34.2337 13.8755 33.5949C13.569 32.902 13.3408 32.386 13.1905 32.334C12.6682 32.1536 12.6682 33.1645 12.8777 34.6236C12.905 34.814 12.9457 35.0136 12.9958 35.2169C15.027 41.4567 21.2668 46 28.6494 46C37.6796 46 45 39.2025 45 30.8172C45 22.8363 38.3687 16.2937 29.9434 15.6812C29.954 15.3052 30.1607 14.5597 30.1607 14.5597C30.1607 14.5597 31.6481 11.143 31.7267 10.4128C31.7319 10.3644 31.738 10.3117 31.7447 10.2556C31.8373 9.46678 32.0097 8 30.6806 8C29.9708 8 29.6408 8.50132 29.2633 9.07468C29.1183 9.29479 28.9664 9.52553 28.7833 9.74258C27.4647 11.306 25.2474 13.2583 23.9901 14.2984C21.3327 16.4969 18.7255 18.3036 17.2049 19.3574L17.2048 19.3575C16.5133 19.8367 16.0465 20.1602 15.902 20.2939C14.8134 21.3015 10.9101 27.9861 10.9101 27.9861C10.9101 27.9861 9.64778 30.1307 10.0964 30.5657C10.5451 31.0006 11.6271 30.9009 11.6271 30.9009C11.6271 30.9009 26.1625 27.735 27.4639 27.4853C27.8143 27.4181 28.0616 27.3793 28.2515 27.3495C28.767 27.2687 28.8596 27.2541 29.4416 26.9169ZM19.1645 22.8485C18.3843 23.5526 17.0903 25.2333 17.0903 25.2333C17.0903 25.2333 19.4952 25.3739 20.8197 24.1786C22.1442 22.9833 21.8408 20.9462 21.8408 20.9462C21.8408 20.9462 19.9447 22.1444 19.1645 22.8485Z" fill="#7998CE"/>
</svg>
