<svg width="204" height="55" viewBox="0 0 204 55" fill="none" xmlns="http://www.w3.org/2000/svg">
<rect width="204" height="55" rx="27.5" fill="#F4D23C"/>
<path fill-rule="evenodd" clip-rule="evenodd" d="M18.0953 10.0412C18.0863 10.021 18.1057 10 18.1331 10H34.4606C34.4781 10 34.4936 10.0089 34.4988 10.0219L41.9982 28.8484C42.0061 28.8684 41.9869 28.8887 41.96 28.8887H31.0902C31.0769 28.8887 31.0674 28.8985 31.071 28.9084L37.3051 45.9603C37.3173 45.9934 37.2615 46.015 37.2349 45.9874L13.0081 20.9538C12.9883 20.9334 13.0071 20.9042 13.04 20.9042H22.9053C22.919 20.9042 22.9286 20.8936 22.9241 20.8835L18.0953 10.0412Z" fill="#F6DD83"/>
<path d="M58.132 19.976V25.1H68.044V28.656H58.132V33.472H69.304V37H54.24V16.504H69.304V19.976H58.132ZM87.5493 33.528V37H72.7933V16.504H76.7133V33.528H87.5493ZM93.3518 19.976V25.1H103.264V28.656H93.3518V33.472H104.524V37H89.4598V16.504H104.524V19.976H93.3518ZM126.226 31.96C125.778 32.7813 125.228 33.528 124.574 34.2C123.921 34.8533 123.193 35.4227 122.39 35.908C121.606 36.3747 120.748 36.7387 119.814 37C118.9 37.2613 117.948 37.392 116.958 37.392C115.502 37.392 114.13 37.112 112.842 36.552C111.554 35.992 110.425 35.236 109.454 34.284C108.502 33.3133 107.746 32.184 107.186 30.896C106.626 29.608 106.346 28.236 106.346 26.78C106.346 25.324 106.626 23.952 107.186 22.664C107.746 21.376 108.502 20.256 109.454 19.304C110.425 18.3333 111.554 17.568 112.842 17.008C114.13 16.448 115.502 16.168 116.958 16.168C117.948 16.168 118.9 16.2987 119.814 16.56C120.748 16.8213 121.606 17.1947 122.39 17.68C123.193 18.1467 123.921 18.716 124.574 19.388C125.228 20.0413 125.778 20.7693 126.226 21.572L122.558 23.056C122.26 22.608 121.905 22.188 121.494 21.796C121.102 21.404 120.664 21.0587 120.178 20.76C119.693 20.4613 119.18 20.228 118.638 20.06C118.097 19.892 117.537 19.808 116.958 19.808C116.025 19.808 115.148 20.004 114.326 20.396C113.524 20.7693 112.824 21.2733 112.226 21.908C111.629 22.5427 111.153 23.2893 110.798 24.148C110.444 24.988 110.266 25.8653 110.266 26.78C110.266 27.7133 110.444 28.6 110.798 29.44C111.153 30.28 111.629 31.0173 112.226 31.652C112.824 32.2867 113.524 32.8 114.326 33.192C115.148 33.5653 116.025 33.752 116.958 33.752C117.537 33.752 118.097 33.668 118.638 33.5C119.18 33.332 119.693 33.0987 120.178 32.8C120.664 32.5013 121.102 32.156 121.494 31.764C121.905 31.3533 122.26 30.924 122.558 30.476L126.226 31.96ZM142.115 19.976H136.263V37H132.343V19.976H126.463V16.504H142.115V19.976ZM148.137 37H144.245V16.504H153.541C154.586 16.504 155.538 16.6813 156.397 17.036C157.274 17.372 158.021 17.8573 158.637 18.492C159.253 19.108 159.729 19.8547 160.065 20.732C160.419 21.5907 160.597 22.5333 160.597 23.56C160.597 25.1093 160.205 26.4627 159.421 27.62C158.655 28.7773 157.629 29.608 156.341 30.112C158.077 32.3893 159.785 34.6853 161.465 37H156.789C155.967 35.936 155.165 34.8627 154.381 33.78C153.597 32.6973 152.813 31.596 152.029 30.476H148.137V37ZM148.137 27.004H153.541C153.895 27.004 154.259 26.9387 154.633 26.808C155.025 26.6587 155.37 26.444 155.669 26.164C155.967 25.8653 156.21 25.5013 156.397 25.072C156.602 24.6427 156.705 24.1387 156.705 23.56C156.705 23.2613 156.667 22.9067 156.593 22.496C156.518 22.0853 156.369 21.6933 156.145 21.32C155.921 20.9467 155.603 20.6293 155.193 20.368C154.782 20.1067 154.231 19.976 153.541 19.976H148.137V27.004ZM168.317 37H164.397V16.532H168.317V37ZM191.553 31.96C191.105 32.7813 190.554 33.528 189.901 34.2C189.247 34.8533 188.519 35.4227 187.717 35.908C186.933 36.3747 186.074 36.7387 185.141 37C184.226 37.2613 183.274 37.392 182.285 37.392C180.829 37.392 179.457 37.112 178.169 36.552C176.881 35.992 175.751 35.236 174.781 34.284C173.829 33.3133 173.073 32.184 172.513 30.896C171.953 29.608 171.673 28.236 171.673 26.78C171.673 25.324 171.953 23.952 172.513 22.664C173.073 21.376 173.829 20.256 174.781 19.304C175.751 18.3333 176.881 17.568 178.169 17.008C179.457 16.448 180.829 16.168 182.285 16.168C183.274 16.168 184.226 16.2987 185.141 16.56C186.074 16.8213 186.933 17.1947 187.717 17.68C188.519 18.1467 189.247 18.716 189.901 19.388C190.554 20.0413 191.105 20.7693 191.553 21.572L187.885 23.056C187.586 22.608 187.231 22.188 186.821 21.796C186.429 21.404 185.99 21.0587 185.505 20.76C185.019 20.4613 184.506 20.228 183.965 20.06C183.423 19.892 182.863 19.808 182.285 19.808C181.351 19.808 180.474 20.004 179.653 20.396C178.85 20.7693 178.15 21.2733 177.553 21.908C176.955 22.5427 176.479 23.2893 176.125 24.148C175.77 24.988 175.593 25.8653 175.593 26.78C175.593 27.7133 175.77 28.6 176.125 29.44C176.479 30.28 176.955 31.0173 177.553 31.652C178.15 32.2867 178.85 32.8 179.653 33.192C180.474 33.5653 181.351 33.752 182.285 33.752C182.863 33.752 183.423 33.668 183.965 33.5C184.506 33.332 185.019 33.0987 185.505 32.8C185.99 32.5013 186.429 32.156 186.821 31.764C187.231 31.3533 187.586 30.924 187.885 30.476L191.553 31.96Z" fill="white"/>
</svg>
