<svg width="55" height="55" viewBox="0 0 55 55" fill="none" xmlns="http://www.w3.org/2000/svg">
<rect width="55" height="55" rx="27.5" fill="#F4D23C"/>
<path fill-rule="evenodd" clip-rule="evenodd" d="M18.0953 10.0412C18.0863 10.021 18.1057 10 18.1331 10H34.4606C34.4781 10 34.4936 10.0089 34.4988 10.0219L41.9982 28.8484C42.0061 28.8684 41.9869 28.8887 41.96 28.8887H31.0902C31.0769 28.8887 31.0674 28.8985 31.071 28.9084L37.3051 45.9603C37.3173 45.9934 37.2615 46.015 37.2349 45.9874L13.0081 20.9538C12.9883 20.9334 13.0071 20.9042 13.04 20.9042H22.9053C22.919 20.9042 22.9286 20.8936 22.9241 20.8835L18.0953 10.0412Z" fill="#F6DD83"/>
</svg>
