<svg width="55" height="55" viewBox="0 0 55 55" fill="none" xmlns="http://www.w3.org/2000/svg">
<rect width="55" height="55" rx="27.5" fill="#EC8FE6"/>
<path fill-rule="evenodd" clip-rule="evenodd" d="M15.2264 39.511L21.8028 37.6042L27.4829 47.9899C27.4904 48.0034 27.5097 48.0034 27.517 47.9899L33.1972 37.6042L39.7736 39.511C39.7884 39.5153 39.8021 39.5016 39.7977 39.4869L37.8904 33.0406L47.9898 27.517C48.0034 27.5097 48.0034 27.4904 47.9899 27.483L37.8072 21.9138L39.7977 15.1863C39.8021 15.1715 39.7884 15.1578 39.7736 15.1621L33.0429 17.1137L27.517 7.01011C27.5097 6.99663 27.4904 6.99663 27.483 7.0101L21.9571 17.1137L15.2264 15.1621C15.2116 15.1578 15.198 15.1715 15.2024 15.1863L17.1928 21.9138L7.01011 27.483C6.99663 27.4904 6.99663 27.5097 7.0101 27.517L17.1095 33.0406L15.2024 39.4869C15.198 39.5016 15.2116 39.5153 15.2264 39.511ZM20.3296 27.5708L24.9886 30.1189L27.5367 34.7779C27.5441 34.7914 27.5635 34.7914 27.5708 34.7779L30.1189 30.1189L34.7779 27.5708C34.7913 27.5635 34.7913 27.5441 34.7779 27.5367L30.1189 24.9886L27.5708 20.3297C27.5635 20.3162 27.5441 20.3162 27.5367 20.3297L24.9886 24.9886L20.3296 27.5367C20.3162 27.5441 20.3162 27.5635 20.3296 27.5708Z" fill="#F1ACEB"/>
</svg>
