<svg width="204" height="55" viewBox="0 0 204 55" fill="none" xmlns="http://www.w3.org/2000/svg">
<rect width="204" height="55" rx="27.5" fill="#EC8FE6"/>
<path fill-rule="evenodd" clip-rule="evenodd" d="M16.2264 39.511L22.8028 37.6042L28.4829 47.9899C28.4904 48.0034 28.5097 48.0034 28.517 47.9899L34.1972 37.6042L40.7736 39.511C40.7884 39.5153 40.8021 39.5016 40.7977 39.4869L38.8904 33.0406L48.9898 27.517C49.0034 27.5097 49.0034 27.4904 48.9899 27.483L38.8072 21.9138L40.7977 15.1863C40.8021 15.1715 40.7884 15.1578 40.7736 15.1621L34.0429 17.1137L28.517 7.01011C28.5097 6.99663 28.4904 6.99663 28.483 7.0101L22.9571 17.1137L16.2264 15.1621C16.2116 15.1578 16.198 15.1715 16.2024 15.1863L18.1928 21.9138L8.01011 27.483C7.99663 27.4904 7.99663 27.5097 8.0101 27.517L18.1095 33.0406L16.2024 39.4869C16.198 39.5016 16.2116 39.5153 16.2264 39.511ZM21.3296 27.5708L25.9886 30.1189L28.5367 34.7779C28.5441 34.7914 28.5635 34.7914 28.5708 34.7779L31.1189 30.1189L35.7779 27.5708C35.7913 27.5635 35.7913 27.5441 35.7779 27.5367L31.1189 24.9886L28.5708 20.3297C28.5635 20.3162 28.5441 20.3162 28.5367 20.3297L25.9886 24.9886L21.3296 27.5367C21.3162 27.5441 21.3162 27.5635 21.3296 27.5708Z" fill="#F1ACEB"/>
<path d="M88.16 20.004V25.044H98.044V28.656H88.16V37H84.24V16.504H99.304V20.004H88.16ZM96.5924 37L107.064 16.532H107.456L117.928 37H113.672L112.076 33.78H102.416L100.848 37H96.5924ZM104.32 30.364H110.172L107.26 24.176L104.32 30.364ZM124.268 37H120.348V16.532H124.268V37ZM132.636 37H128.744V16.504H138.04C139.085 16.504 140.037 16.6813 140.896 17.036C141.773 17.372 142.52 17.8573 143.136 18.492C143.752 19.108 144.228 19.8547 144.564 20.732C144.918 21.5907 145.096 22.5333 145.096 23.56C145.096 25.1093 144.704 26.4627 143.92 27.62C143.154 28.7773 142.128 29.608 140.84 30.112C142.576 32.3893 144.284 34.6853 145.964 37H141.288C140.466 35.936 139.664 34.8627 138.88 33.78C138.096 32.6973 137.312 31.596 136.528 30.476H132.636V37ZM132.636 27.004H138.04C138.394 27.004 138.758 26.9387 139.132 26.808C139.524 26.6587 139.869 26.444 140.168 26.164C140.466 25.8653 140.709 25.5013 140.896 25.072C141.101 24.6427 141.204 24.1387 141.204 23.56C141.204 23.2613 141.166 22.9067 141.092 22.496C141.017 22.0853 140.868 21.6933 140.644 21.32C140.42 20.9467 140.102 20.6293 139.692 20.368C139.281 20.1067 138.73 19.976 138.04 19.976H132.636V27.004ZM164.359 16.532C163.836 17.3907 163.229 18.3707 162.539 19.472C161.867 20.5733 161.176 21.7027 160.467 22.86C159.757 23.9987 159.057 25.128 158.367 26.248C157.676 27.3493 157.069 28.348 156.547 29.244V37H152.627V29.244C151.413 27.116 150.125 24.9973 148.763 22.888C147.4 20.7787 146.103 18.66 144.871 16.532H149.435C150.275 17.932 151.133 19.3787 152.011 20.872C152.888 22.3653 153.747 23.812 154.587 25.212C154.997 24.5587 155.427 23.8587 155.875 23.112C156.323 22.3653 156.771 21.6187 157.219 20.872C157.667 20.1067 158.105 19.36 158.535 18.632C158.983 17.8853 159.403 17.1853 159.795 16.532H164.359Z" fill="white"/>
</svg>
