<svg width="204" height="55" viewBox="0 0 204 55" fill="none" xmlns="http://www.w3.org/2000/svg">
<rect width="204" height="55" rx="27.5" fill="#CE416B"/>
<path fill-rule="evenodd" clip-rule="evenodd" d="M17.5912 13.7435C17.9906 12.1667 19.4191 11 21.12 11C22.3958 11 23.5184 11.6564 24.1684 12.65H25.2327C25.8939 11.9714 26.8177 11.55 27.84 11.55C29.3388 11.55 30.6261 12.4559 31.1841 13.75H32.0752C32.6335 13.4014 33.2933 13.2 34 13.2C35.4988 13.2 36.786 14.1059 37.3441 15.4H39.7672C39.7879 15.4 39.8073 15.4056 39.824 15.4153C39.9346 15.4052 40.0467 15.4 40.16 15.4C42.1703 15.4 43.8 17.0297 43.8 19.04V29.9548L43.8 29.975L43.8 29.9952V30.1524C43.8 30.219 43.7982 30.2853 43.7945 30.3513C43.5755 37.9232 36.767 44 28.4 44C19.8948 44 13 37.7208 13 29.975C13 26.2361 14.6065 22.8389 17.2251 20.3248C17.2186 23.9698 17.2802 27.7381 17.564 27.6734C18.3239 27.5002 17.7302 16.2104 17.5912 13.7435Z" fill="#D88597"/>
<path d="M58.16 21.004V26.044H68.044V29.656H58.16V38H54.24V17.504H69.304V21.004H58.16ZM76.4256 38H72.5056V17.532H76.4256V38ZM100.781 26.8C100.763 27.192 100.753 27.556 100.753 27.892C100.735 28.1907 100.725 28.4893 100.725 28.788C100.725 29.068 100.716 29.2827 100.697 29.432C100.585 30.72 100.231 31.9147 99.6332 33.016C99.0546 34.1173 98.2986 35.0693 97.3653 35.872C96.4506 36.656 95.3866 37.272 94.1732 37.72C92.9786 38.168 91.7186 38.392 90.3932 38.392C88.9372 38.392 87.5652 38.112 86.2772 37.552C84.9892 36.992 83.8599 36.236 82.8892 35.284C81.9372 34.3133 81.1812 33.184 80.6212 31.896C80.0612 30.608 79.7812 29.236 79.7812 27.78C79.7812 26.324 80.0612 24.952 80.6212 23.664C81.1812 22.3573 81.9372 21.228 82.8892 20.276C83.8599 19.3053 84.9892 18.54 86.2772 17.98C87.5652 17.42 88.9372 17.14 90.3932 17.14C92.2412 17.14 93.9306 17.5693 95.4612 18.428C97.0106 19.2867 98.2612 20.4347 99.2132 21.872L95.8532 23.916C95.2559 23.0387 94.4719 22.3013 93.5013 21.704C92.5493 21.1067 91.5133 20.808 90.3932 20.808C89.4599 20.808 88.5826 21.004 87.7612 21.396C86.9586 21.7693 86.2492 22.2733 85.6332 22.908C85.0359 23.5427 84.5599 24.2893 84.2052 25.148C83.8506 25.988 83.6732 26.8653 83.6732 27.78C83.6732 28.7133 83.8506 29.6 84.2052 30.44C84.5599 31.28 85.0359 32.0173 85.6332 32.652C86.2492 33.2867 86.9586 33.8 87.7612 34.192C88.5826 34.5653 89.4599 34.752 90.3932 34.752C91.1026 34.752 91.7839 34.6493 92.4372 34.444C93.0906 34.22 93.6879 33.912 94.2293 33.52C94.7706 33.128 95.2372 32.6613 95.6292 32.12C96.0399 31.5787 96.3386 30.9813 96.5252 30.328H88.9653V26.8H100.781ZM121.449 17.504V38H117.557V29.852H107.421V38H103.529V17.504H107.421V26.352H117.557V17.504H121.449ZM139.408 20.976H133.556V38H129.636V20.976H123.756V17.504H139.408V20.976ZM146.018 38H142.098V17.532H146.018V38ZM167.881 38L154.385 25.82V38H150.493V17.532H150.913L164.381 29.908V17.532H168.301V38H167.881ZM192.098 26.8C192.08 27.192 192.07 27.556 192.07 27.892C192.052 28.1907 192.042 28.4893 192.042 28.788C192.042 29.068 192.033 29.2827 192.014 29.432C191.902 30.72 191.548 31.9147 190.95 33.016C190.372 34.1173 189.616 35.0693 188.682 35.872C187.768 36.656 186.704 37.272 185.49 37.72C184.296 38.168 183.036 38.392 181.71 38.392C180.254 38.392 178.882 38.112 177.594 37.552C176.306 36.992 175.177 36.236 174.206 35.284C173.254 34.3133 172.498 33.184 171.938 31.896C171.378 30.608 171.098 29.236 171.098 27.78C171.098 26.324 171.378 24.952 171.938 23.664C172.498 22.3573 173.254 21.228 174.206 20.276C175.177 19.3053 176.306 18.54 177.594 17.98C178.882 17.42 180.254 17.14 181.71 17.14C183.558 17.14 185.248 17.5693 186.778 18.428C188.328 19.2867 189.578 20.4347 190.53 21.872L187.17 23.916C186.573 23.0387 185.789 22.3013 184.818 21.704C183.866 21.1067 182.83 20.808 181.71 20.808C180.777 20.808 179.9 21.004 179.078 21.396C178.276 21.7693 177.566 22.2733 176.95 22.908C176.353 23.5427 175.877 24.2893 175.522 25.148C175.168 25.988 174.99 26.8653 174.99 27.78C174.99 28.7133 175.168 29.6 175.522 30.44C175.877 31.28 176.353 32.0173 176.95 32.652C177.566 33.2867 178.276 33.8 179.078 34.192C179.9 34.5653 180.777 34.752 181.71 34.752C182.42 34.752 183.101 34.6493 183.754 34.444C184.408 34.22 185.005 33.912 185.546 33.52C186.088 33.128 186.554 32.6613 186.946 32.12C187.357 31.5787 187.656 30.9813 187.842 30.328H180.282V26.8H192.098Z" fill="white"/>
</svg>
