<svg width="55" height="55" viewBox="0 0 55 55" fill="none" xmlns="http://www.w3.org/2000/svg">
<rect width="55" height="55" rx="27.5" fill="#CE416B"/>
<path fill-rule="evenodd" clip-rule="evenodd" d="M16.5912 13.7435C16.9906 12.1667 18.4191 11 20.12 11C21.3958 11 22.5184 11.6564 23.1684 12.65H24.2327C24.8939 11.9714 25.8177 11.55 26.84 11.55C28.3388 11.55 29.6261 12.4559 30.1841 13.75H31.0752C31.6335 13.4014 32.2933 13.2 33 13.2C34.4988 13.2 35.786 14.1059 36.3441 15.4H38.7672C38.7879 15.4 38.8073 15.4056 38.824 15.4153C38.9346 15.4052 39.0467 15.4 39.16 15.4C41.1703 15.4 42.8 17.0297 42.8 19.04V29.9548L42.8 29.975L42.8 29.9952V30.1524C42.8 30.219 42.7982 30.2853 42.7945 30.3513C42.5755 37.9232 35.767 44 27.4 44C18.8948 44 12 37.7208 12 29.975C12 26.2361 13.6065 22.8389 16.2251 20.3248C16.2186 23.9698 16.2802 27.7381 16.564 27.6734C17.3239 27.5002 16.7302 16.2104 16.5912 13.7435Z" fill="#D88597"/>
</svg>
