<svg width="204" height="55" viewBox="0 0 204 55" fill="none" xmlns="http://www.w3.org/2000/svg">
<rect width="204" height="55" rx="27.5" fill="#8FA9DE"/>
<path fill-rule="evenodd" clip-rule="evenodd" d="M26.1033 46C33.2814 46 39.4267 42.1484 41.9637 36.6884C41.9947 36.6218 31.7781 39.2518 32.1038 38.3221C32.2493 37.907 38.5121 35.6981 43.075 33.1217C45.6975 31.6408 46.9052 28.506 46.9052 28.506C46.9052 28.506 42.4869 30.5771 40.2533 31.1025C35.7521 32.1614 31.7899 32.0474 31.7899 31.937C31.7899 31.6985 38.3691 30.4916 47.5133 25.1117C51.8145 22.5812 52.9828 18.2224 52.9828 18.2224C52.9828 18.2224 48.254 20.9419 45.3953 21.8397C38.6161 23.9688 32.4296 24.6104 32.4296 24.3223C32.4296 23.7055 37.8739 22.2601 43.6461 19.5598C46.6474 18.1558 49.2466 16.3215 52.2587 14.2816C57.1872 10.9441 58 5 58 5C58 5 53.139 8.02696 50.7668 9.03219C40.9784 13.1801 32.3352 15.3559 26.1033 15.8269C16.6961 16.538 9 22.8749 9 31.1025C9 39.3302 16.6574 46 26.1033 46Z" fill="#ADBCE4"/>
<path d="M77.16 21.004V26.044H87.044V29.656H77.16V38H73.24V17.504H88.304V21.004H77.16ZM105.702 34.528V38H90.9456V17.504H94.8656V34.528H105.702ZM121.584 17.532C121.062 18.3907 120.455 19.3707 119.764 20.472C119.092 21.5733 118.402 22.7027 117.692 23.86C116.983 24.9987 116.283 26.128 115.592 27.248C114.902 28.3493 114.295 29.348 113.772 30.244V38H109.852V30.244C108.639 28.116 107.351 25.9973 105.988 23.888C104.626 21.7787 103.328 19.66 102.096 17.532H106.66C107.5 18.932 108.359 20.3787 109.236 21.872C110.114 23.3653 110.972 24.812 111.812 26.212C112.223 25.5587 112.652 24.8587 113.1 24.112C113.548 23.3653 113.996 22.6187 114.444 21.872C114.892 21.1067 115.331 20.36 115.76 19.632C116.208 18.8853 116.628 18.1853 117.02 17.532H121.584ZM127.884 38H123.964V17.532H127.884V38ZM149.747 38L136.251 25.82V38H132.359V17.532H132.779L146.247 29.908V17.532H150.167V38H149.747ZM173.965 26.8C173.946 27.192 173.937 27.556 173.937 27.892C173.918 28.1907 173.909 28.4893 173.909 28.788C173.909 29.068 173.899 29.2827 173.881 29.432C173.769 30.72 173.414 31.9147 172.817 33.016C172.238 34.1173 171.482 35.0693 170.549 35.872C169.634 36.656 168.57 37.272 167.357 37.72C166.162 38.168 164.902 38.392 163.577 38.392C162.121 38.392 160.749 38.112 159.461 37.552C158.173 36.992 157.043 36.236 156.073 35.284C155.121 34.3133 154.365 33.184 153.805 31.896C153.245 30.608 152.965 29.236 152.965 27.78C152.965 26.324 153.245 24.952 153.805 23.664C154.365 22.3573 155.121 21.228 156.073 20.276C157.043 19.3053 158.173 18.54 159.461 17.98C160.749 17.42 162.121 17.14 163.577 17.14C165.425 17.14 167.114 17.5693 168.645 18.428C170.194 19.2867 171.445 20.4347 172.397 21.872L169.037 23.916C168.439 23.0387 167.655 22.3013 166.685 21.704C165.733 21.1067 164.697 20.808 163.577 20.808C162.643 20.808 161.766 21.004 160.945 21.396C160.142 21.7693 159.433 22.2733 158.817 22.908C158.219 23.5427 157.743 24.2893 157.389 25.148C157.034 25.988 156.857 26.8653 156.857 27.78C156.857 28.7133 157.034 29.6 157.389 30.44C157.743 31.28 158.219 32.0173 158.817 32.652C159.433 33.2867 160.142 33.8 160.945 34.192C161.766 34.5653 162.643 34.752 163.577 34.752C164.286 34.752 164.967 34.6493 165.621 34.444C166.274 34.22 166.871 33.912 167.413 33.52C167.954 33.128 168.421 32.6613 168.813 32.12C169.223 31.5787 169.522 30.9813 169.709 30.328H162.149V26.8H173.965Z" fill="white"/>
</svg>
