<svg width="55" height="55" viewBox="0 0 55 55" fill="none" xmlns="http://www.w3.org/2000/svg">
<rect width="55" height="55" rx="27.5" fill="#8FA9DE"/>
<path fill-rule="evenodd" clip-rule="evenodd" d="M22.2638 41C27.8304 41 32.5962 38.0878 34.5637 33.9595C34.5877 33.9092 26.6646 35.8977 26.9173 35.1948C27.0301 34.8809 31.887 33.2108 35.4255 31.2627C37.4593 30.1431 38.3959 27.7729 38.3959 27.7729C38.3959 27.7729 34.9694 29.3388 33.2372 29.736C29.7466 30.5367 26.6738 30.4504 26.6738 30.367C26.6738 30.1866 31.776 29.2741 38.8675 25.2064C42.2031 23.2931 43.1091 19.9974 43.1091 19.9974C43.1091 19.9974 39.4418 22.0536 37.2249 22.7325C31.9676 24.3423 27.1699 24.8274 27.1699 24.6096C27.1699 24.1432 31.392 23.0503 35.8684 21.0086C38.1959 19.9471 40.2116 18.5602 42.5475 17.0178C46.3697 14.4944 47 10 47 10C47 10 43.2303 12.2887 41.3906 13.0487C33.7996 16.1849 27.0967 17.83 22.2638 18.1862C14.9684 18.7239 9 23.5152 9 29.736C9 35.957 14.9384 41 22.2638 41Z" fill="#ADBCE4"/>
</svg>
