<svg width="55" height="55" viewBox="0 0 55 55" fill="none" xmlns="http://www.w3.org/2000/svg">
<rect width="55" height="55" rx="27.5" fill="#5269AD"/>
<path fill-rule="evenodd" clip-rule="evenodd" d="M35.0595 43.8892C32.1731 44.0369 28.8685 44.0369 27.7455 43.8892C18.9856 42.7367 12 36.3321 12 27.675C12 19.0179 19.1634 12 28 12C36.8366 12 44 19.0179 44 27.675C44 31.7013 42.4504 35.3731 39.9037 38.1492C39.2122 38.903 40.1611 39.4317 41.1251 39.969C42.0706 40.4959 43.0308 41.031 42.4727 41.7945C41.8579 42.6358 38.5245 43.7118 35.0595 43.8892ZM25.75 25.7156C25.75 27.0682 24.6307 28.1648 23.25 28.1648C21.8693 28.1648 20.75 27.0682 20.75 25.7156C20.75 24.8084 21.2534 24.0165 22.0015 23.5932C22.0446 24.7726 23.0143 25.7156 24.2043 25.7156L25.75 25.7156ZM33.4985 23.5932C33.4554 24.7726 32.4857 25.7156 31.2957 25.7156H29.75C29.75 27.0682 30.8693 28.1648 32.25 28.1648C33.6307 28.1648 34.75 27.0682 34.75 25.7156C34.75 24.8084 34.2466 24.0165 33.4985 23.5932Z" fill="#8E97C0"/>
</svg>
