<svg width="204" height="55" viewBox="0 0 204 55" fill="none" xmlns="http://www.w3.org/2000/svg">
<rect width="204" height="55" rx="27.5" fill="#63BC5A"/>
<path fill-rule="evenodd" clip-rule="evenodd" d="M16.9392 40.8935C16.7966 40.7595 16.6557 40.6228 16.5163 40.4835C9.16122 33.1281 9.16122 21.2027 16.5163 13.8474C23.8714 6.49207 47.3077 6 47.3077 6C47.3077 6 50.5067 33.1281 43.1516 40.4835C36.6193 47.016 26.4824 47.7468 19.1436 42.6759L25.057 35.419L34.5099 33.378L26.7935 32.6066L31.6974 27.6134L37.2795 26.3905L32.8655 25.0833L37.2795 17.1203L31.001 24.1628L28.5765 20.7414L29.43 26.3905L25.057 31.3205L23.0299 25.0832V33.378L16.9392 40.8935Z" fill="#93CA90"/>
<path d="M95.12 25.8C95.1013 26.192 95.092 26.556 95.092 26.892C95.0733 27.1907 95.064 27.4893 95.064 27.788C95.064 28.068 95.0547 28.2827 95.036 28.432C94.924 29.72 94.5693 30.9147 93.972 32.016C93.3933 33.1173 92.6373 34.0693 91.704 34.872C90.7893 35.656 89.7253 36.272 88.512 36.72C87.3173 37.168 86.0573 37.392 84.732 37.392C83.276 37.392 81.904 37.112 80.616 36.552C79.328 35.992 78.1987 35.236 77.228 34.284C76.276 33.3133 75.52 32.184 74.96 30.896C74.4 29.608 74.12 28.236 74.12 26.78C74.12 25.324 74.4 23.952 74.96 22.664C75.52 21.3573 76.276 20.228 77.228 19.276C78.1987 18.3053 79.328 17.54 80.616 16.98C81.904 16.42 83.276 16.14 84.732 16.14C86.58 16.14 88.2693 16.5693 89.8 17.428C91.3493 18.2867 92.6 19.4347 93.552 20.872L90.192 22.916C89.5947 22.0387 88.8107 21.3013 87.84 20.704C86.888 20.1067 85.852 19.808 84.732 19.808C83.7987 19.808 82.9213 20.004 82.1 20.396C81.2973 20.7693 80.588 21.2733 79.972 21.908C79.3747 22.5427 78.8987 23.2893 78.544 24.148C78.1893 24.988 78.012 25.8653 78.012 26.78C78.012 27.7133 78.1893 28.6 78.544 29.44C78.8987 30.28 79.3747 31.0173 79.972 31.652C80.588 32.2867 81.2973 32.8 82.1 33.192C82.9213 33.5653 83.7987 33.752 84.732 33.752C85.4413 33.752 86.1227 33.6493 86.776 33.444C87.4293 33.22 88.0267 32.912 88.568 32.52C89.1093 32.128 89.576 31.6613 89.968 31.12C90.3787 30.5787 90.6773 29.9813 90.864 29.328H83.304V25.8H95.12ZM101.76 37H97.8675V16.504H107.164C108.209 16.504 109.161 16.6813 110.02 17.036C110.897 17.372 111.644 17.8573 112.26 18.492C112.876 19.108 113.352 19.8547 113.688 20.732C114.042 21.5907 114.22 22.5333 114.22 23.56C114.22 25.1093 113.828 26.4627 113.044 27.62C112.278 28.7773 111.252 29.608 109.964 30.112C111.7 32.3893 113.408 34.6853 115.088 37H110.412C109.59 35.936 108.788 34.8627 108.004 33.78C107.22 32.6973 106.436 31.596 105.652 30.476H101.76V37ZM101.76 27.004H107.164C107.518 27.004 107.882 26.9387 108.256 26.808C108.648 26.6587 108.993 26.444 109.292 26.164C109.59 25.8653 109.833 25.5013 110.02 25.072C110.225 24.6427 110.328 24.1387 110.328 23.56C110.328 23.2613 110.29 22.9067 110.216 22.496C110.141 22.0853 109.992 21.6933 109.768 21.32C109.544 20.9467 109.226 20.6293 108.816 20.368C108.405 20.1067 107.854 19.976 107.164 19.976H101.76V27.004ZM115.087 37L125.559 16.532H125.951L136.423 37H132.167L130.571 33.78H120.911L119.343 37H115.087ZM122.815 30.364H128.667L125.755 24.176L122.815 30.364ZM136.158 34.312L138.286 31.176C139.313 31.8853 140.367 32.5013 141.45 33.024C142.551 33.528 143.699 33.78 144.894 33.78C145.529 33.78 146.089 33.7053 146.574 33.556C147.059 33.388 147.47 33.1827 147.806 32.94C148.142 32.6787 148.394 32.3893 148.562 32.072C148.73 31.736 148.814 31.4093 148.814 31.092C148.814 30.6813 148.683 30.336 148.422 30.056C148.179 29.7573 147.843 29.5147 147.414 29.328C147.003 29.1413 146.509 28.9827 145.93 28.852C145.37 28.7213 144.782 28.6 144.166 28.488C143.755 28.4133 143.279 28.3293 142.738 28.236C142.197 28.124 141.637 27.984 141.058 27.816C140.479 27.6293 139.91 27.396 139.35 27.116C138.79 26.8173 138.286 26.4533 137.838 26.024C137.39 25.576 137.026 25.0533 136.746 24.456C136.485 23.84 136.354 23.1213 136.354 22.3C136.354 21.1053 136.597 20.116 137.082 19.332C137.567 18.5293 138.183 17.904 138.93 17.456C139.695 16.9893 140.535 16.6627 141.45 16.476C142.383 16.2893 143.279 16.196 144.138 16.196C144.997 16.196 145.762 16.252 146.434 16.364C147.106 16.476 147.731 16.644 148.31 16.868C148.889 17.0733 149.449 17.344 149.99 17.68C150.55 17.9973 151.147 18.38 151.782 18.828L149.598 21.908C148.627 21.236 147.694 20.7227 146.798 20.368C145.902 20.0133 144.959 19.836 143.97 19.836C143.634 19.836 143.251 19.8827 142.822 19.976C142.393 20.0507 141.982 20.1813 141.59 20.368C141.217 20.5547 140.899 20.7973 140.638 21.096C140.395 21.376 140.274 21.7213 140.274 22.132C140.274 22.5427 140.423 22.888 140.722 23.168C141.021 23.448 141.403 23.6813 141.87 23.868C142.337 24.0547 142.85 24.2133 143.41 24.344C143.97 24.4747 144.511 24.6053 145.034 24.736C145.426 24.8293 145.883 24.9227 146.406 25.016C146.947 25.1093 147.498 25.24 148.058 25.408C148.637 25.576 149.206 25.8 149.766 26.08C150.326 26.36 150.821 26.724 151.25 27.172C151.698 27.6013 152.053 28.1427 152.314 28.796C152.594 29.4307 152.734 30.2053 152.734 31.12C152.734 32.184 152.547 33.108 152.174 33.892C151.801 34.676 151.269 35.3293 150.578 35.852C149.887 36.356 149.066 36.7387 148.114 37C147.162 37.2613 146.107 37.392 144.95 37.392C143.886 37.392 142.943 37.308 142.122 37.14C141.319 36.9907 140.582 36.7853 139.91 36.524C139.238 36.244 138.603 35.9173 138.006 35.544C137.409 35.1707 136.793 34.76 136.158 34.312ZM154.629 34.312L156.757 31.176C157.784 31.8853 158.839 32.5013 159.921 33.024C161.023 33.528 162.171 33.78 163.365 33.78C164 33.78 164.56 33.7053 165.045 33.556C165.531 33.388 165.941 33.1827 166.277 32.94C166.613 32.6787 166.865 32.3893 167.033 32.072C167.201 31.736 167.285 31.4093 167.285 31.092C167.285 30.6813 167.155 30.336 166.893 30.056C166.651 29.7573 166.315 29.5147 165.885 29.328C165.475 29.1413 164.98 28.9827 164.401 28.852C163.841 28.7213 163.253 28.6 162.637 28.488C162.227 28.4133 161.751 28.3293 161.209 28.236C160.668 28.124 160.108 27.984 159.529 27.816C158.951 27.6293 158.381 27.396 157.821 27.116C157.261 26.8173 156.757 26.4533 156.309 26.024C155.861 25.576 155.497 25.0533 155.217 24.456C154.956 23.84 154.825 23.1213 154.825 22.3C154.825 21.1053 155.068 20.116 155.553 19.332C156.039 18.5293 156.655 17.904 157.401 17.456C158.167 16.9893 159.007 16.6627 159.921 16.476C160.855 16.2893 161.751 16.196 162.609 16.196C163.468 16.196 164.233 16.252 164.905 16.364C165.577 16.476 166.203 16.644 166.781 16.868C167.36 17.0733 167.92 17.344 168.461 17.68C169.021 17.9973 169.619 18.38 170.253 18.828L168.069 21.908C167.099 21.236 166.165 20.7227 165.269 20.368C164.373 20.0133 163.431 19.836 162.441 19.836C162.105 19.836 161.723 19.8827 161.293 19.976C160.864 20.0507 160.453 20.1813 160.061 20.368C159.688 20.5547 159.371 20.7973 159.109 21.096C158.867 21.376 158.745 21.7213 158.745 22.132C158.745 22.5427 158.895 22.888 159.193 23.168C159.492 23.448 159.875 23.6813 160.341 23.868C160.808 24.0547 161.321 24.2133 161.881 24.344C162.441 24.4747 162.983 24.6053 163.505 24.736C163.897 24.8293 164.355 24.9227 164.877 25.016C165.419 25.1093 165.969 25.24 166.529 25.408C167.108 25.576 167.677 25.8 168.237 26.08C168.797 26.36 169.292 26.724 169.721 27.172C170.169 27.6013 170.524 28.1427 170.785 28.796C171.065 29.4307 171.205 30.2053 171.205 31.12C171.205 32.184 171.019 33.108 170.645 33.892C170.272 34.676 169.74 35.3293 169.049 35.852C168.359 36.356 167.537 36.7387 166.585 37C165.633 37.2613 164.579 37.392 163.421 37.392C162.357 37.392 161.415 37.308 160.593 37.14C159.791 36.9907 159.053 36.7853 158.381 36.524C157.709 36.244 157.075 35.9173 156.477 35.544C155.88 35.1707 155.264 34.76 154.629 34.312Z" fill="white"/>
</svg>
