<svg width="55" height="55" viewBox="0 0 55 55" fill="none" xmlns="http://www.w3.org/2000/svg">
<rect width="55" height="55" rx="27.5" fill="#63BC5A"/>
<path fill-rule="evenodd" clip-rule="evenodd" d="M15.1366 40.6595C15.0133 40.5455 14.8914 40.4294 14.7709 40.3109C8.4097 34.0589 8.4097 23.9223 14.7709 17.6703C21.132 11.4183 41.4012 11 41.4012 11C41.4012 11 44.1679 34.0589 37.8068 40.3109C32.1572 45.8636 23.3902 46.4848 17.0431 42.1745L22.1574 36.0061L30.3329 34.2713L23.6593 33.6156L27.9005 29.3714L32.7282 28.3319L28.9107 27.2208L32.7282 20.4522L27.2982 26.4384L25.2013 23.5302L25.9395 28.3319L22.1574 32.5224L20.4042 27.2207V34.2713L15.1366 40.6595Z" fill="#93CA90"/>
</svg>
