<svg width="55" height="55" viewBox="0 0 55 55" fill="none" xmlns="http://www.w3.org/2000/svg">
<rect width="55" height="55" rx="27.5" fill="#D97845"/>
<path fill-rule="evenodd" clip-rule="evenodd" d="M18.149 39.8949C18.1389 39.8949 18.1319 39.8849 18.1353 39.8754L27.5815 13.0097C27.5836 13.0039 27.5891 13 27.5952 13H37.6794C37.6855 13 37.6911 13.0039 37.6931 13.0098L46.9992 39.8755C47.0024 39.885 46.9954 39.8949 46.9855 39.8949H18.4328H18.149ZM10.0145 40C10.0044 40 9.99738 39.9898 10.0009 39.9803L17.0353 21.0779C17.0374 21.0722 17.0428 21.0684 17.0489 21.0684H23.1609C23.171 21.0684 23.178 21.0785 23.1746 21.088L16.3726 39.9904C16.3705 39.9961 16.365 40 16.3589 40H10.0145Z" fill="#E19F87"/>
</svg>
