<svg width="55" height="55" viewBox="0 0 55 55" fill="none" xmlns="http://www.w3.org/2000/svg">
<rect width="55" height="55" rx="27.5" fill="#73CEC0"/>
<path d="M27.0962 38.9967L17.7261 44.0983L17.604 33.3483L26.98 28.8463L27.0962 38.9967ZM37.5718 33.3365L37.8628 44.0016L28.229 39.2301L28.4751 28.8317L37.5718 33.3365ZM26.7798 27.1803L17.4976 32.4899L8.21045 27.1715L17.4927 22.2955L26.7798 27.1803ZM47.0005 27.1803L37.7183 32.4899L28.4312 27.1715L37.7134 22.2955L47.0005 27.1803ZM37.7231 20.9908L28.3472 25.4918L28.231 15.3414L37.6011 10.2408L37.7231 20.9908ZM27.0278 14.9684L26.7808 25.3658L17.6851 20.861L17.394 10.1969L27.0278 14.9684Z" fill="#9CDACD"/>
</svg>
