<svg width="204" height="55" viewBox="0 0 204 55" fill="none" xmlns="http://www.w3.org/2000/svg">
<rect width="204" height="55" rx="27.5" fill="#73CEC0"/>
<path fill-rule="evenodd" clip-rule="evenodd" d="M28.0275 15.9682L18.3935 11.1969L18.6849 21.861L27.7812 26.366L28.0275 15.9682ZM38.7232 21.991L38.6008 11.2409L29.2313 16.3419L29.3469 26.492L38.7232 21.991ZM38.7181 33.4895L48 28.1803L38.7133 23.296L29.4307 28.1719L38.7181 33.4895ZM27.7797 28.1803L18.4978 33.4895L9.21039 28.1719L18.493 23.296L27.7797 28.1803ZM38.863 45.0011L29.229 40.2297L29.4753 29.8319L38.5716 34.337L38.863 45.0011ZM18.6038 34.3477L18.7263 45.0978L28.0958 39.9968L27.9802 29.8467L18.6038 34.3477Z" fill="#9CDACD"/>
<path d="M104.72 37H100.8V16.532H104.72V37ZM127.956 31.96C127.508 32.7813 126.957 33.528 126.304 34.2C125.65 34.8533 124.922 35.4227 124.12 35.908C123.336 36.3747 122.477 36.7387 121.544 37C120.629 37.2613 119.677 37.392 118.688 37.392C117.232 37.392 115.86 37.112 114.572 36.552C113.284 35.992 112.154 35.236 111.184 34.284C110.232 33.3133 109.476 32.184 108.916 30.896C108.356 29.608 108.076 28.236 108.076 26.78C108.076 25.324 108.356 23.952 108.916 22.664C109.476 21.376 110.232 20.256 111.184 19.304C112.154 18.3333 113.284 17.568 114.572 17.008C115.86 16.448 117.232 16.168 118.688 16.168C119.677 16.168 120.629 16.2987 121.544 16.56C122.477 16.8213 123.336 17.1947 124.12 17.68C124.922 18.1467 125.65 18.716 126.304 19.388C126.957 20.0413 127.508 20.7693 127.956 21.572L124.288 23.056C123.989 22.608 123.634 22.188 123.224 21.796C122.832 21.404 122.393 21.0587 121.908 20.76C121.422 20.4613 120.909 20.228 120.368 20.06C119.826 19.892 119.266 19.808 118.688 19.808C117.754 19.808 116.877 20.004 116.056 20.396C115.253 20.7693 114.553 21.2733 113.956 21.908C113.358 22.5427 112.882 23.2893 112.528 24.148C112.173 24.988 111.996 25.8653 111.996 26.78C111.996 27.7133 112.173 28.6 112.528 29.44C112.882 30.28 113.358 31.0173 113.956 31.652C114.553 32.2867 115.253 32.8 116.056 33.192C116.877 33.5653 117.754 33.752 118.688 33.752C119.266 33.752 119.826 33.668 120.368 33.5C120.909 33.332 121.422 33.0987 121.908 32.8C122.393 32.5013 122.832 32.156 123.224 31.764C123.634 31.3533 123.989 30.924 124.288 30.476L127.956 31.96ZM134.321 19.976V25.1H144.233V28.656H134.321V33.472H145.493V37H130.429V16.504H145.493V19.976H134.321Z" fill="white"/>
</svg>
