<svg width="55" height="55" viewBox="0 0 55 55" fill="none" xmlns="http://www.w3.org/2000/svg">
<rect width="55" height="55" rx="27.5" fill="#E9551E"/>
<path d="M44.2236 24.6398L38.2473 23.0054L42.381 17.2197C42.6492 16.8443 42.6351 16.3382 42.3447 15.9796C42.1452 15.7298 41.4888 15.1653 41.3286 14.9675C41.0423 14.6089 40.5524 14.4854 40.1208 14.6643L31.6178 18.256L29.4454 13.5589C29.3009 13.2457 28.9892 13.0945 28.6623 13.0507L28.4293 12.5468C28.0927 11.8177 26.8912 11.8177 26.5543 12.5468L23.8236 18.4498L14.8628 14.6639C14.4403 14.4851 13.9454 14.6077 13.655 14.9672C13.3655 15.3258 13.3505 15.8319 13.6187 16.2073L18.1914 22.6076L10.7591 24.6398C10.3104 24.7624 10 25.168 10 25.6308C10 26.0936 11.3461 27.5168 11.7752 27.6338L17.7524 29.2692L13.6187 35.053C13.3505 35.4284 13.3658 35.9345 13.655 36.294C13.8561 36.5438 14.5115 37.108 14.671 37.3061C14.9605 37.6657 15.4564 37.7901 15.8788 37.6072L24.3813 34.0173L26.5543 38.7138C26.7029 39.0364 27.0148 39.2273 27.3614 39.2743L27.5703 39.7259C27.7386 40.0914 29.2771 40.0914 29.4454 39.7259L32.1752 33.8239L41.1369 37.6072C41.5685 37.7919 42.0584 37.6613 42.3447 37.3061C42.6351 36.9466 42.6492 36.4405 42.381 36.0651L37.8083 29.667L45.2418 27.6338C45.6893 27.5112 46 27.1057 46 26.6429C46 26.18 44.6539 24.7571 44.2236 24.6398ZM26.2963 32.0591C26.1436 31.7278 25.8279 31.5437 25.4888 31.498L25.2802 31.047C25.1069 30.6716 24.7338 30.4486 24.3429 30.4486C24.2076 30.4486 24.0718 30.4747 23.9397 30.531L19.9085 32.2326L21.7461 29.6614C21.9416 29.3883 21.9909 29.0368 21.8782 28.7196C21.7642 28.4033 21.5041 28.1622 21.1788 28.0739L20.8915 27.9952C20.8862 27.8985 20.8956 27.8011 20.8621 27.7072C20.7482 27.3909 20.4881 27.1498 20.1627 27.0615L17.2912 26.2758L21.1788 25.2128C21.5035 25.1244 21.7646 24.8834 21.8782 24.5671C21.9913 24.2507 21.9416 23.8993 21.7461 23.6253L18.4334 18.9888L24.9555 21.7439C25.4695 21.9597 26.0634 21.7327 26.2963 21.2266L28.2342 17.0374L29.7037 20.2145C29.8585 20.5495 30.1749 20.7461 30.5171 20.7887L30.7198 21.2266C30.9536 21.7327 31.5485 21.9597 32.0606 21.7439L36.0918 20.041L34.2542 22.6135C34.0587 22.8875 34.0103 23.239 34.123 23.5553C34.2361 23.8716 34.4959 24.1126 34.8225 24.201L35.1091 24.2794C35.1148 24.3761 35.1057 24.4738 35.1388 24.5674C35.2518 24.8837 35.5116 25.1247 35.8382 25.2131L38.7091 25.9981L34.82 27.0618C34.4952 27.1501 34.2354 27.3912 34.1224 27.7075C34.0094 28.0247 34.0578 28.3762 34.2535 28.6493L37.566 33.2842L31.0439 30.531C30.5318 30.312 29.9369 30.541 29.703 31.047L27.7652 35.2362L26.2963 32.0591Z" fill="#73241F"/>
<path d="M40.5242 15.6111L35.095 23.2095L43.9509 25.6308L35.095 28.0522L40.5242 35.6506L30.641 31.4763L27.4916 38.285L24.3425 31.4763L14.4593 35.6506L19.8885 28.0522L11.0326 25.6308L19.8885 23.2095L14.4593 15.6111L24.3425 19.7854L27.4916 12.9767L30.641 19.7854L40.5242 15.6111Z" fill="#EFC13B"/>
</svg>
