<svg width="55" height="55" viewBox="0 0 55 55" fill="none" xmlns="http://www.w3.org/2000/svg">
<rect width="55" height="55" rx="27.5" fill="#AA6BC8"/>
<path fill-rule="evenodd" clip-rule="evenodd" d="M41.4235 38.2013C45.4628 35.133 48 30.6998 48 25.7697C48 16.508 39.0457 9 28 9C16.9543 9 8 16.508 8 25.7697C8 30.5218 10.3573 34.8122 14.1449 37.8637C13.9154 38.6167 13.7895 39.4357 13.7895 40.2921C13.7895 43.9967 16.1459 47 19.0527 47C20.9414 47 22.5978 45.732 23.5263 43.8274C24.4548 45.732 26.1112 47 28 47C29.7217 47 31.2503 45.9464 32.2105 44.3175C33.1708 45.9464 34.6994 47 36.421 47C39.3278 47 41.6842 43.9967 41.6842 40.2921C41.6842 39.5621 41.5927 38.8592 41.4235 38.2013ZM39.579 26.1023C39.579 30.8044 34.277 34.6162 27.7369 34.6162C21.1966 34.6162 15.8948 30.8044 15.8948 26.1023C15.8948 21.4002 21.1966 17.5884 27.7369 17.5884C34.277 17.5884 39.579 21.4002 39.579 26.1023Z" fill="#BE98D3"/>
</svg>
