<svg width="204" height="55" viewBox="0 0 204 55" fill="none" xmlns="http://www.w3.org/2000/svg">
<rect width="204" height="55" rx="27.5" fill="#AA6BC8"/>
<path fill-rule="evenodd" clip-rule="evenodd" d="M41.4235 38.2013C45.4628 35.133 48 30.6998 48 25.7697C48 16.508 39.0457 9 28 9C16.9543 9 8 16.508 8 25.7697C8 30.5218 10.3573 34.8122 14.1449 37.8637C13.9154 38.6167 13.7895 39.4357 13.7895 40.2921C13.7895 43.9967 16.1459 47 19.0527 47C20.9414 47 22.5978 45.732 23.5263 43.8274C24.4548 45.732 26.1112 47 28 47C29.7217 47 31.2503 45.9464 32.2105 44.3175C33.1708 45.9464 34.6994 47 36.421 47C39.3278 47 41.6842 43.9967 41.6842 40.2921C41.6842 39.5621 41.5927 38.8592 41.4235 38.2013ZM39.579 26.1023C39.579 30.8044 34.277 34.6162 27.7369 34.6162C21.1966 34.6162 15.8948 30.8044 15.8948 26.1023C15.8948 21.4002 21.1966 17.5884 27.7369 17.5884C34.277 17.5884 39.579 21.4002 39.579 26.1023Z" fill="#BE98D3"/>
<path d="M76.368 16.504C77.376 16.504 78.3187 16.7 79.196 17.092C80.092 17.4653 80.8667 17.9787 81.52 18.632C82.1733 19.2853 82.6867 20.06 83.06 20.956C83.452 21.8333 83.648 22.776 83.648 23.784C83.648 24.792 83.48 25.7253 83.144 26.584C82.808 27.4427 82.3133 28.1987 81.66 28.852C81.0067 29.4867 80.176 29.9907 79.168 30.364C78.1787 30.7187 77.0307 30.896 75.724 30.896H71.16V37H67.24V16.504H76.368ZM76.368 27.368C76.9467 27.368 77.4507 27.2747 77.88 27.088C78.3093 26.8827 78.6547 26.612 78.916 26.276C79.196 25.94 79.4013 25.5573 79.532 25.128C79.6627 24.6987 79.728 24.2507 79.728 23.784C79.728 23.3173 79.644 22.86 79.476 22.412C79.308 21.9453 79.0653 21.5347 78.748 21.18C78.4307 20.8253 78.0387 20.536 77.572 20.312C77.1053 20.088 76.564 19.976 75.948 19.976H71.16V27.368H76.368ZM95.2326 37.392C93.7766 37.392 92.4046 37.112 91.1166 36.552C89.8286 35.992 88.6992 35.236 87.7286 34.284C86.7766 33.3133 86.0206 32.184 85.4606 30.896C84.9006 29.608 84.6206 28.2267 84.6206 26.752C84.6206 25.296 84.9006 23.924 85.4606 22.636C86.0206 21.3293 86.7766 20.2 87.7286 19.248C88.6992 18.2773 89.8286 17.512 91.1166 16.952C92.4046 16.392 93.7766 16.112 95.2326 16.112C96.7072 16.112 98.0886 16.392 99.3766 16.952C100.665 17.512 101.785 18.2773 102.737 19.248C103.707 20.2 104.473 21.3293 105.033 22.636C105.593 23.924 105.873 25.296 105.873 26.752C105.873 28.2267 105.593 29.608 105.033 30.896C104.473 32.184 103.707 33.3133 102.737 34.284C101.785 35.236 100.665 35.992 99.3766 36.552C98.0886 37.112 96.7072 37.392 95.2326 37.392ZM95.2326 19.78C94.2992 19.78 93.4219 19.976 92.6006 20.368C91.7979 20.7413 91.0886 21.2453 90.4726 21.88C89.8752 22.5147 89.3992 23.2613 89.0446 24.12C88.6899 24.96 88.5126 25.8373 88.5126 26.752C88.5126 27.6853 88.6899 28.572 89.0446 29.412C89.3992 30.252 89.8752 30.9987 90.4726 31.652C91.0886 32.2867 91.7979 32.8 92.6006 33.192C93.4219 33.5653 94.2992 33.752 95.2326 33.752C96.1659 33.752 97.0339 33.5653 97.8366 33.192C98.6579 32.8 99.3672 32.2867 99.9646 31.652C100.581 30.9987 101.066 30.252 101.421 29.412C101.775 28.572 101.953 27.6853 101.953 26.752C101.953 25.8373 101.775 24.96 101.421 24.12C101.066 23.2613 100.581 22.5147 99.9646 21.88C99.3672 21.2453 98.6579 20.7413 97.8366 20.368C97.0339 19.976 96.1659 19.78 95.2326 19.78ZM113.256 37H109.336V16.532H113.256V37ZM116.92 34.312L119.048 31.176C120.075 31.8853 121.129 32.5013 122.212 33.024C123.313 33.528 124.461 33.78 125.656 33.78C126.291 33.78 126.851 33.7053 127.336 33.556C127.821 33.388 128.232 33.1827 128.568 32.94C128.904 32.6787 129.156 32.3893 129.324 32.072C129.492 31.736 129.576 31.4093 129.576 31.092C129.576 30.6813 129.445 30.336 129.184 30.056C128.941 29.7573 128.605 29.5147 128.176 29.328C127.765 29.1413 127.271 28.9827 126.692 28.852C126.132 28.7213 125.544 28.6 124.928 28.488C124.517 28.4133 124.041 28.3293 123.5 28.236C122.959 28.124 122.399 27.984 121.82 27.816C121.241 27.6293 120.672 27.396 120.112 27.116C119.552 26.8173 119.048 26.4533 118.6 26.024C118.152 25.576 117.788 25.0533 117.508 24.456C117.247 23.84 117.116 23.1213 117.116 22.3C117.116 21.1053 117.359 20.116 117.844 19.332C118.329 18.5293 118.945 17.904 119.692 17.456C120.457 16.9893 121.297 16.6627 122.212 16.476C123.145 16.2893 124.041 16.196 124.9 16.196C125.759 16.196 126.524 16.252 127.196 16.364C127.868 16.476 128.493 16.644 129.072 16.868C129.651 17.0733 130.211 17.344 130.752 17.68C131.312 17.9973 131.909 18.38 132.544 18.828L130.36 21.908C129.389 21.236 128.456 20.7227 127.56 20.368C126.664 20.0133 125.721 19.836 124.732 19.836C124.396 19.836 124.013 19.8827 123.584 19.976C123.155 20.0507 122.744 20.1813 122.352 20.368C121.979 20.5547 121.661 20.7973 121.4 21.096C121.157 21.376 121.036 21.7213 121.036 22.132C121.036 22.5427 121.185 22.888 121.484 23.168C121.783 23.448 122.165 23.6813 122.632 23.868C123.099 24.0547 123.612 24.2133 124.172 24.344C124.732 24.4747 125.273 24.6053 125.796 24.736C126.188 24.8293 126.645 24.9227 127.168 25.016C127.709 25.1093 128.26 25.24 128.82 25.408C129.399 25.576 129.968 25.8 130.528 26.08C131.088 26.36 131.583 26.724 132.012 27.172C132.46 27.6013 132.815 28.1427 133.076 28.796C133.356 29.4307 133.496 30.2053 133.496 31.12C133.496 32.184 133.309 33.108 132.936 33.892C132.563 34.676 132.031 35.3293 131.34 35.852C130.649 36.356 129.828 36.7387 128.876 37C127.924 37.2613 126.869 37.392 125.712 37.392C124.648 37.392 123.705 37.308 122.884 37.14C122.081 36.9907 121.344 36.7853 120.672 36.524C120 36.244 119.365 35.9173 118.768 35.544C118.171 35.1707 117.555 34.76 116.92 34.312ZM145.779 37.392C144.323 37.392 142.951 37.112 141.663 36.552C140.375 35.992 139.246 35.236 138.275 34.284C137.323 33.3133 136.567 32.184 136.007 30.896C135.447 29.608 135.167 28.2267 135.167 26.752C135.167 25.296 135.447 23.924 136.007 22.636C136.567 21.3293 137.323 20.2 138.275 19.248C139.246 18.2773 140.375 17.512 141.663 16.952C142.951 16.392 144.323 16.112 145.779 16.112C147.254 16.112 148.635 16.392 149.923 16.952C151.211 17.512 152.331 18.2773 153.283 19.248C154.254 20.2 155.019 21.3293 155.579 22.636C156.139 23.924 156.419 25.296 156.419 26.752C156.419 28.2267 156.139 29.608 155.579 30.896C155.019 32.184 154.254 33.3133 153.283 34.284C152.331 35.236 151.211 35.992 149.923 36.552C148.635 37.112 147.254 37.392 145.779 37.392ZM145.779 19.78C144.846 19.78 143.968 19.976 143.147 20.368C142.344 20.7413 141.635 21.2453 141.019 21.88C140.422 22.5147 139.946 23.2613 139.591 24.12C139.236 24.96 139.059 25.8373 139.059 26.752C139.059 27.6853 139.236 28.572 139.591 29.412C139.946 30.252 140.422 30.9987 141.019 31.652C141.635 32.2867 142.344 32.8 143.147 33.192C143.968 33.5653 144.846 33.752 145.779 33.752C146.712 33.752 147.58 33.5653 148.383 33.192C149.204 32.8 149.914 32.2867 150.511 31.652C151.127 30.9987 151.612 30.252 151.967 29.412C152.322 28.572 152.499 27.6853 152.499 26.752C152.499 25.8373 152.322 24.96 151.967 24.12C151.612 23.2613 151.127 22.5147 150.511 21.88C149.914 21.2453 149.204 20.7413 148.383 20.368C147.58 19.976 146.712 19.78 145.779 19.78ZM176.711 37L163.215 24.82V37H159.323V16.532H159.743L173.211 28.908V16.532H177.131V37H176.711Z" fill="white"/>
</svg>
