<svg width="55" height="55" viewBox="0 0 55 55" fill="none" xmlns="http://www.w3.org/2000/svg">
<rect width="55" height="55" rx="27.5" fill="#FA7179"/>
<path fill-rule="evenodd" clip-rule="evenodd" d="M42.0813 41.2211C42.0813 41.2211 37.0569 45.2668 27.0587 43.5926C19.4731 42.3224 15.4273 33.9273 15.4273 29.4147C15.4273 18.7159 23.3145 16.2812 28.6468 16.2812C33.979 16.2812 37.4576 21.5005 37.4576 25.5416C37.4576 29.5826 34.6107 33.1173 30.1804 33.1173C25.7502 33.1173 24.4381 29.9946 24.4381 27.1238C24.4381 24.253 26.7516 23.2416 28.8615 23.2416C30.9714 23.2416 31.6938 25.05 31.6938 26.6044C31.6938 28.1587 30.4926 28.7154 29.4907 28.7154C28.4888 28.7154 28.3897 28.2079 28.0063 27.6746C27.6227 27.1413 28.4953 25.1226 27.0587 25.1226C25.622 25.1226 25.3542 27.4433 25.3542 27.4433C25.3542 27.4433 25.878 31.9229 30.1804 31.8456C34.483 31.7683 36.5241 28.4289 35.9309 25.1226C35.3377 21.8163 32.1417 18.3031 26.5326 19.013C20.9235 19.7229 18.6333 25.4129 19.6428 31.4936C20.6522 37.5743 27.908 41.0975 33.613 39.8299C39.318 38.5624 45 34.4158 45 23.9027C45 13.3896 35.9309 7.0702 25.1168 8.11166C14.3027 9.15313 7.58979 18.6451 8.01947 30.0498C8.44915 41.4546 19.2281 47.6659 28.3428 47.986C37.4576 48.3062 43.0453 43.009 43.0453 43.009C43.0453 43.009 44.3019 41.884 43.8092 41.0054C43.3166 40.1269 42.0813 41.2211 42.0813 41.2211Z" fill="#FA9B9C"/>
</svg>
