<svg width="55" height="55" viewBox="0 0 55 55" fill="none" xmlns="http://www.w3.org/2000/svg">
<rect width="55" height="55" rx="27.5" fill="#C5B78C"/>
<path fill-rule="evenodd" clip-rule="evenodd" d="M38.7959 26.6692C38.7939 26.6661 38.7931 26.6623 38.7936 26.6585L41.0856 12.0117C41.0866 12.0049 41.092 12 41.0982 12H41.8236C41.8292 12 41.8341 12.004 41.8358 12.0098L46.9994 29.9278C47.001 29.9333 46.9993 29.9395 46.9951 29.9431L43.1878 33.2008C43.1822 33.2056 43.174 33.2044 43.1697 33.198L38.7959 26.6692ZM11 36.379C11 36.3851 11.0036 36.3904 11.0088 36.3924L18.857 39.2047C18.8608 39.2061 18.865 39.2054 18.8683 39.2029L36.4107 25.93C36.4137 25.9277 36.4156 25.9243 36.4161 25.9204L38.2973 12.0868C38.2985 12.0783 38.2925 12.0707 38.2847 12.0707H22.7464C22.7426 12.0707 22.739 12.0725 22.7365 12.0757L11.0029 27.5887C11.001 27.5912 11 27.5944 11 27.5977V36.379ZM22.1273 39.9212L30.7013 42.9993C30.7052 43.0007 30.7094 43 30.7127 42.9974L40.9206 34.9726C40.9263 34.9683 40.9277 34.9597 40.9238 34.9534L37.0972 28.7126C37.0932 28.7061 37.0852 28.7044 37.0793 28.7088L22.1273 39.9212Z" fill="#D3C8AA"/>
</svg>
