<svg width="204" height="55" viewBox="0 0 204 55" fill="none" xmlns="http://www.w3.org/2000/svg">
<rect width="204" height="55" rx="27.5" fill="#C5B78C"/>
<path fill-rule="evenodd" clip-rule="evenodd" d="M38.7959 26.6692C38.7939 26.6661 38.7931 26.6623 38.7936 26.6585L41.0856 12.0117C41.0866 12.0049 41.092 12 41.0982 12H41.8236C41.8292 12 41.8341 12.004 41.8358 12.0098L46.9994 29.9278C47.001 29.9333 46.9993 29.9395 46.9951 29.9431L43.1878 33.2008C43.1822 33.2056 43.174 33.2044 43.1697 33.198L38.7959 26.6692ZM11 36.379C11 36.3851 11.0036 36.3904 11.0088 36.3924L18.857 39.2047C18.8608 39.2061 18.865 39.2054 18.8683 39.2029L36.4107 25.93C36.4137 25.9277 36.4156 25.9243 36.4161 25.9204L38.2973 12.0868C38.2985 12.0783 38.2925 12.0707 38.2847 12.0707H22.7464C22.7426 12.0707 22.739 12.0725 22.7365 12.0757L11.0029 27.5887C11.001 27.5912 11 27.5944 11 27.5977V36.379ZM22.1273 39.9212L30.7013 42.9993C30.7052 43.0007 30.7094 43 30.7127 42.9974L40.9206 34.9726C40.9263 34.9683 40.9277 34.9597 40.9238 34.9534L37.0972 28.7126C37.0932 28.7061 37.0852 28.7044 37.0793 28.7088L22.1273 39.9212Z" fill="#D3C8AA"/>
<path d="M87.132 38H83.24V17.504H92.536C93.5813 17.504 94.5333 17.6813 95.392 18.036C96.2693 18.372 97.016 18.8573 97.632 19.492C98.248 20.108 98.724 20.8547 99.06 21.732C99.4147 22.5907 99.592 23.5333 99.592 24.56C99.592 26.1093 99.2 27.4627 98.416 28.62C97.6507 29.7773 96.624 30.608 95.336 31.112C97.072 33.3893 98.78 35.6853 100.46 38H95.784C94.9627 36.936 94.16 35.8627 93.376 34.78C92.592 33.6973 91.808 32.596 91.024 31.476H87.132V38ZM87.132 28.004H92.536C92.8907 28.004 93.2547 27.9387 93.628 27.808C94.02 27.6587 94.3653 27.444 94.664 27.164C94.9627 26.8653 95.2053 26.5013 95.392 26.072C95.5973 25.6427 95.7 25.1387 95.7 24.56C95.7 24.2613 95.6627 23.9067 95.588 23.496C95.5133 23.0853 95.364 22.6933 95.14 22.32C94.916 21.9467 94.5987 21.6293 94.188 21.368C93.7773 21.1067 93.2267 20.976 92.536 20.976H87.132V28.004ZM112.408 38.392C110.952 38.392 109.58 38.112 108.292 37.552C107.004 36.992 105.875 36.236 104.904 35.284C103.952 34.3133 103.196 33.184 102.636 31.896C102.076 30.608 101.796 29.2267 101.796 27.752C101.796 26.296 102.076 24.924 102.636 23.636C103.196 22.3293 103.952 21.2 104.904 20.248C105.875 19.2773 107.004 18.512 108.292 17.952C109.58 17.392 110.952 17.112 112.408 17.112C113.883 17.112 115.264 17.392 116.552 17.952C117.84 18.512 118.96 19.2773 119.912 20.248C120.883 21.2 121.648 22.3293 122.208 23.636C122.768 24.924 123.048 26.296 123.048 27.752C123.048 29.2267 122.768 30.608 122.208 31.896C121.648 33.184 120.883 34.3133 119.912 35.284C118.96 36.236 117.84 36.992 116.552 37.552C115.264 38.112 113.883 38.392 112.408 38.392ZM112.408 20.78C111.475 20.78 110.598 20.976 109.776 21.368C108.974 21.7413 108.264 22.2453 107.648 22.88C107.051 23.5147 106.575 24.2613 106.22 25.12C105.866 25.96 105.688 26.8373 105.688 27.752C105.688 28.6853 105.866 29.572 106.22 30.412C106.575 31.252 107.051 31.9987 107.648 32.652C108.264 33.2867 108.974 33.8 109.776 34.192C110.598 34.5653 111.475 34.752 112.408 34.752C113.342 34.752 114.21 34.5653 115.012 34.192C115.834 33.8 116.543 33.2867 117.14 32.652C117.756 31.9987 118.242 31.252 118.596 30.412C118.951 29.572 119.128 28.6853 119.128 27.752C119.128 26.8373 118.951 25.96 118.596 25.12C118.242 24.2613 117.756 23.5147 117.14 22.88C116.543 22.2453 115.834 21.7413 115.012 21.368C114.21 20.976 113.342 20.78 112.408 20.78ZM144.712 32.96C144.264 33.7813 143.713 34.528 143.06 35.2C142.407 35.8533 141.679 36.4227 140.876 36.908C140.092 37.3747 139.233 37.7387 138.3 38C137.385 38.2613 136.433 38.392 135.444 38.392C133.988 38.392 132.616 38.112 131.328 37.552C130.04 36.992 128.911 36.236 127.94 35.284C126.988 34.3133 126.232 33.184 125.672 31.896C125.112 30.608 124.832 29.236 124.832 27.78C124.832 26.324 125.112 24.952 125.672 23.664C126.232 22.376 126.988 21.256 127.94 20.304C128.911 19.3333 130.04 18.568 131.328 18.008C132.616 17.448 133.988 17.168 135.444 17.168C136.433 17.168 137.385 17.2987 138.3 17.56C139.233 17.8213 140.092 18.1947 140.876 18.68C141.679 19.1467 142.407 19.716 143.06 20.388C143.713 21.0413 144.264 21.7693 144.712 22.572L141.044 24.056C140.745 23.608 140.391 23.188 139.98 22.796C139.588 22.404 139.149 22.0587 138.664 21.76C138.179 21.4613 137.665 21.228 137.124 21.06C136.583 20.892 136.023 20.808 135.444 20.808C134.511 20.808 133.633 21.004 132.812 21.396C132.009 21.7693 131.309 22.2733 130.712 22.908C130.115 23.5427 129.639 24.2893 129.284 25.148C128.929 25.988 128.752 26.8653 128.752 27.78C128.752 28.7133 128.929 29.6 129.284 30.44C129.639 31.28 130.115 32.0173 130.712 32.652C131.309 33.2867 132.009 33.8 132.812 34.192C133.633 34.5653 134.511 34.752 135.444 34.752C136.023 34.752 136.583 34.668 137.124 34.5C137.665 34.332 138.179 34.0987 138.664 33.8C139.149 33.5013 139.588 33.156 139.98 32.764C140.391 32.3533 140.745 31.924 141.044 31.476L144.712 32.96ZM159.701 38L151.105 28.676V38H147.185V17.504H151.105V27.92L159.253 17.532H164.069L155.641 28.116L164.881 38H159.701Z" fill="white"/>
</svg>
