<svg width="27" height="28" viewBox="0 0 27 28" fill="none" xmlns="http://www.w3.org/2000/svg">
<path fill-rule="evenodd" clip-rule="evenodd" d="M9.05478 8.87012C11.7651 16.8161 10.2251 15.2146 18.1712 17.9249C10.2251 20.6352 11.7651 19.0952 9.05478 27.0413C6.3445 19.0952 7.88443 20.6352 0 17.9249C7.88443 15.2146 6.3445 16.8161 9.05478 8.87012Z" fill="black"/>
<path fill-rule="evenodd" clip-rule="evenodd" d="M20.8815 4.55823C22.6679 9.79398 21.6823 8.80843 26.9181 10.5947C21.6823 12.3811 22.6679 11.3339 20.8815 16.5697C19.0952 11.3339 20.1424 12.3811 14.9066 10.5947C20.1424 8.80843 19.0952 9.79398 20.8815 4.55823Z" fill="black"/>
<path fill-rule="evenodd" clip-rule="evenodd" d="M13.1201 0C14.2905 3.38784 13.6129 2.71027 17.0007 3.88062C13.6129 5.05096 14.2905 4.3734 13.1201 7.76124C11.9498 4.3734 12.6273 5.05096 9.2395 3.88062C12.6273 2.71027 11.9498 3.38784 13.1201 0Z" fill="black"/>
</svg>
