<svg width="55" height="55" viewBox="0 0 55 55" fill="none" xmlns="http://www.w3.org/2000/svg">
<rect width="55" height="55" rx="27.5" fill="#1E4E92"/>
<path d="M27.0013 41.3886C17.0757 41.3886 9 35.8955 9 29.1437C9 22.393 17.0757 16.8999 27.0013 16.8999C36.9268 16.8999 45 22.393 45 29.1437C45 35.8955 36.9268 41.3886 27.0013 41.3886ZM27.0013 19.7617C18.7953 19.7617 11.8618 24.0578 11.8618 29.1437C11.8618 34.2304 18.7953 38.5268 27.0013 38.5268C35.3482 38.5268 42.1407 34.318 42.1407 29.1437C42.1404 24.0581 35.2061 19.7617 27.0013 19.7617Z" fill="#4A3952"/>
<path d="M27.0013 35.3088C20.4021 35.3088 15.4247 32.6587 15.4247 29.1438C15.4247 25.6288 20.4021 22.9788 27.0013 22.9788C33.6016 22.9788 38.5779 25.6288 38.5779 29.1438C38.5779 32.6587 33.6016 35.3088 27.0013 35.3088ZM27.0013 25.3634C21.7397 25.3634 17.809 27.3589 17.809 29.1438C17.809 30.9286 21.7397 32.9241 27.0013 32.9241C32.2628 32.9241 36.1936 30.9286 36.1936 29.1438C36.1936 27.3589 32.2625 25.3634 27.0013 25.3634Z" fill="#4A3952"/>
<path d="M9 27.2439V29.1438L9.83347 31.9136L10.5043 29.6411L10.6532 26.735L9 27.2439Z" fill="#4A3952"/>
<path d="M43.0672 31.0194L44.9999 29.1437V27.2438L42.9182 28.039L43.0672 31.0194Z" fill="#4A3952"/>
<path d="M38.2612 26.6603L37.0688 27.8526L37.8886 30.3115L38.5778 29.1437V27.2438L38.2612 26.6603Z" fill="#4A3952"/>
<path d="M16.2791 26.5485L15.4247 27.2438V29.1437L16.2791 30.9823L16.4655 29.3428L16.2791 26.5485Z" fill="#4A3952"/>
<path d="M27.0013 39.4887C17.0757 39.4887 9 33.9956 9 27.2438C9 20.4931 17.0757 15 27.0013 15C36.9268 15 45 20.4931 45 27.2438C45 33.9956 36.9268 39.4887 27.0013 39.4887ZM27.0013 17.8618C18.7953 17.8618 11.8618 22.1579 11.8618 27.2438C11.8618 32.3305 18.7953 36.6269 27.0013 36.6269C35.3482 36.6269 42.1407 32.4181 42.1407 27.2438C42.1404 22.1579 35.2061 17.8618 27.0013 17.8618Z" fill="#C7DCF3"/>
<path d="M27.0013 33.4084C20.4021 33.4084 15.4247 30.7583 15.4247 27.2434C15.4247 23.7284 20.4021 21.0784 27.0013 21.0784C33.6016 21.0784 38.5779 23.7284 38.5779 27.2434C38.5779 30.7583 33.6016 33.4084 27.0013 33.4084ZM27.0013 23.463C21.7397 23.463 17.809 25.4585 17.809 27.2434C17.809 29.0282 21.7397 31.0237 27.0013 31.0237C32.2628 31.0237 36.1936 29.0282 36.1936 27.2434C36.1936 25.4585 32.2625 23.463 27.0013 23.463Z" fill="#C7DCF3"/>
<path d="M22.9396 28.5855L25.2874 29.1499L25.3617 27.2194L22.9396 27.2439V28.5855Z" fill="#4A3952"/>
<path d="M31.0629 27.2439L29.4973 27.2194L28.1189 28.2624V29.5719L29.1619 28.9635L31.0629 28.5855V27.2439Z" fill="#4A3952"/>
<path d="M27.001 29.8091C29.2442 29.8091 31.0627 29.2612 31.0627 28.5854C31.0627 27.9096 29.2442 27.3617 27.001 27.3617C24.7578 27.3617 22.9393 27.9096 22.9393 28.5854C22.9393 29.2612 24.7578 29.8091 27.001 29.8091Z" fill="#4A3952"/>
<path d="M27.001 28.4679C29.2442 28.4679 31.0627 27.92 31.0627 27.2442C31.0627 26.5684 29.2442 26.0205 27.001 26.0205C24.7578 26.0205 22.9393 26.5684 22.9393 27.2442C22.9393 27.92 24.7578 28.4679 27.001 28.4679Z" fill="#C7DCF3"/>
</svg>
