<svg width="55" height="55" viewBox="0 0 55 55" fill="none" xmlns="http://www.w3.org/2000/svg">
<rect width="55" height="55" rx="27.5" fill="#999999"/>
<path d="M24.4671 19.8248L21.2787 20.3928V22.1729L22.3436 23.7367L25.9948 23.178L24.4671 19.8248Z" fill="#525252"/>
<path d="M29.3783 16.4568C28.1514 16.4085 26.9865 16.4568 25.857 16.5542L27.1946 17.4406C23.9272 17.4406 21.2787 19.5594 21.2787 22.1729C21.2787 24.7865 23.9272 26.9049 27.1946 26.9049C30.4616 26.9049 33.1101 29.0236 33.1101 31.6368C33.1101 34.2503 30.4616 36.3687 27.1946 36.3687C27.1946 36.3687 25.7437 36.4895 24.2579 36.6017C22.6982 36.7193 21.2758 35.9251 20.6032 35.7903C18.5357 35.3748 15.6866 34.7513 12.8336 31.5282C13.6205 32.5236 14.5001 33.396 15.1839 34.1162C17.3073 36.3514 21.6664 37.8044 21.6664 37.8044C21.6664 37.8044 25.5782 39.2574 33.0669 37.5808C40.5555 35.9042 42.7908 30.0925 43.4612 26.1803C44.1316 22.2689 37.8727 16.7922 29.3783 16.4568Z" fill="#525252"/>
<path d="M29.3783 14.6767C28.1514 14.6283 26.9865 14.6767 25.857 14.774L27.1946 15.6605C23.9272 15.6605 21.2787 17.7792 21.2787 20.3928C21.2787 23.0063 23.9272 25.1247 27.1946 25.1247C30.4616 25.1247 33.1101 27.2435 33.1101 29.8566C33.1101 32.4698 30.4616 34.5886 27.1946 34.5886C27.1946 34.5886 25.7437 34.7094 24.2579 34.8216C22.6982 34.9391 21.2758 34.145 20.6032 34.0101C18.5357 33.5947 15.6866 32.9711 12.8336 29.7481C13.6205 30.7435 14.5001 31.6158 15.1839 32.336C17.3073 34.5713 21.6664 36.0243 21.6664 36.0243C21.6664 36.0243 25.5782 37.4773 33.0669 35.8007C40.5555 34.1241 42.7908 28.3124 43.4612 24.4002C44.1316 20.4887 37.8727 15.0121 29.3783 14.6767Z" fill="white"/>
<path d="M27.0006 14.7874C18.7347 14.7874 11.7506 19.0833 11.7506 24.169C11.7506 24.5469 11.8011 24.9188 11.8754 25.287C12.8076 20.7061 19.3493 17.023 27.0006 17.023C34.6519 17.023 41.1946 20.7061 42.1268 25.287C42.2015 24.9191 42.2516 24.5473 42.2516 24.169C42.2516 19.0833 35.2664 14.7874 27.0006 14.7874Z" fill="#525252"/>
<path d="M27.0005 37.3676C17.6301 37.3676 9.91674 32.4698 9.08331 26.2408C9.0339 26.6094 9 26.9812 9 27.3585C9 34.11 17.0754 39.6029 27.0005 39.6029C36.9271 39.6029 45 34.11 45 27.3585C45 26.9812 44.9661 26.6094 44.9167 26.2408C44.0829 32.4701 36.3721 37.3676 27.0005 37.3676Z" fill="#525252"/>
<path d="M9 27.3589L10.2727 28.5429L10.4216 25.0779L9 25.1233V27.3589Z" fill="#525252"/>
<path d="M44.0638 25.339L44.0266 28.2821L44.4734 29.1015L45 27.3589V25.1233L44.0638 25.339Z" fill="#525252"/>
<path d="M27.0005 37.3677C17.0754 37.3677 9 31.8748 9 25.1233C9 18.3729 17.0754 12.88 27.0005 12.88C36.9271 12.88 45 18.3729 45 25.1233C45 31.8748 36.9271 37.3677 27.0005 37.3677ZM27.0005 15.742C18.7949 15.742 11.8617 20.038 11.8617 25.1237C11.8617 30.2101 18.7949 34.5064 27.0005 34.5064C35.2061 34.5064 42.1405 30.2105 42.1405 25.1237C42.1405 20.038 35.2061 15.742 27.0005 15.742Z" fill="white"/>
</svg>
