<svg width="55" height="55" viewBox="0 0 55 55" fill="none" xmlns="http://www.w3.org/2000/svg">
<rect width="55" height="55" rx="27.5" fill="#5A8EA2"/>
<path fill-rule="evenodd" clip-rule="evenodd" d="M8.00399 28.0241C7.99867 28.0151 7.99867 28.004 8.00399 27.995L18.0621 11.0142C18.0674 11.0054 18.077 11 18.0873 11H38.023C38.0334 11 38.043 11.0055 38.0482 11.0144L47.9961 27.9951C48.0013 28.004 48.0013 28.0151 47.9961 28.0239L38.0482 44.9856C38.043 44.9945 38.0334 45 38.023 45H18.0873C18.077 45 18.0674 44.9946 18.0621 44.9858L8.00399 28.0241ZM37.267 28C37.267 33.0555 33.1194 37.1538 28.0032 37.1538C22.8869 37.1538 18.7393 33.0555 18.7393 28C18.7393 22.9444 22.8869 18.8462 28.0032 18.8462C33.1194 18.8462 37.267 22.9444 37.267 28Z" fill="#90ACB8"/>
</svg>
