<svg width="204" height="55" viewBox="0 0 204 55" fill="none" xmlns="http://www.w3.org/2000/svg">
<rect width="204" height="55" rx="27.5" fill="#5A8EA2"/>
<path fill-rule="evenodd" clip-rule="evenodd" d="M9.00399 28.0241C8.99867 28.0151 8.99867 28.004 9.00399 27.995L19.0621 11.0142C19.0674 11.0054 19.077 11 19.0873 11H39.023C39.0334 11 39.043 11.0055 39.0482 11.0144L48.9961 27.9951C49.0013 28.004 49.0013 28.0151 48.9961 28.0239L39.0482 44.9856C39.043 44.9945 39.0334 45 39.023 45H19.0873C19.077 45 19.0674 44.9946 19.0621 44.9858L9.00399 28.0241ZM38.267 28C38.267 33.0555 34.1194 37.1538 29.0032 37.1538C23.8869 37.1538 19.7393 33.0555 19.7393 28C19.7393 22.9444 23.8869 18.8462 29.0032 18.8462C34.1194 18.8462 38.267 22.9444 38.267 28Z" fill="#90ACB8"/>
<path d="M80.428 34.312L82.556 31.176C83.5827 31.8853 84.6373 32.5013 85.72 33.024C86.8213 33.528 87.9693 33.78 89.164 33.78C89.7987 33.78 90.3587 33.7053 90.844 33.556C91.3293 33.388 91.74 33.1827 92.076 32.94C92.412 32.6787 92.664 32.3893 92.832 32.072C93 31.736 93.084 31.4093 93.084 31.092C93.084 30.6813 92.9533 30.336 92.692 30.056C92.4493 29.7573 92.1133 29.5147 91.684 29.328C91.2733 29.1413 90.7787 28.9827 90.2 28.852C89.64 28.7213 89.052 28.6 88.436 28.488C88.0253 28.4133 87.5493 28.3293 87.008 28.236C86.4667 28.124 85.9067 27.984 85.328 27.816C84.7493 27.6293 84.18 27.396 83.62 27.116C83.06 26.8173 82.556 26.4533 82.108 26.024C81.66 25.576 81.296 25.0533 81.016 24.456C80.7547 23.84 80.624 23.1213 80.624 22.3C80.624 21.1053 80.8667 20.116 81.352 19.332C81.8373 18.5293 82.4533 17.904 83.2 17.456C83.9653 16.9893 84.8053 16.6627 85.72 16.476C86.6533 16.2893 87.5493 16.196 88.408 16.196C89.2667 16.196 90.032 16.252 90.704 16.364C91.376 16.476 92.0013 16.644 92.58 16.868C93.1587 17.0733 93.7187 17.344 94.26 17.68C94.82 17.9973 95.4173 18.38 96.052 18.828L93.868 21.908C92.8973 21.236 91.964 20.7227 91.068 20.368C90.172 20.0133 89.2293 19.836 88.24 19.836C87.904 19.836 87.5213 19.8827 87.092 19.976C86.6627 20.0507 86.252 20.1813 85.86 20.368C85.4867 20.5547 85.1693 20.7973 84.908 21.096C84.6653 21.376 84.544 21.7213 84.544 22.132C84.544 22.5427 84.6933 22.888 84.992 23.168C85.2907 23.448 85.6733 23.6813 86.14 23.868C86.6067 24.0547 87.12 24.2133 87.68 24.344C88.24 24.4747 88.7813 24.6053 89.304 24.736C89.696 24.8293 90.1533 24.9227 90.676 25.016C91.2173 25.1093 91.768 25.24 92.328 25.408C92.9067 25.576 93.476 25.8 94.036 26.08C94.596 26.36 95.0907 26.724 95.52 27.172C95.968 27.6013 96.3227 28.1427 96.584 28.796C96.864 29.4307 97.004 30.2053 97.004 31.12C97.004 32.184 96.8173 33.108 96.444 33.892C96.0707 34.676 95.5387 35.3293 94.848 35.852C94.1573 36.356 93.336 36.7387 92.384 37C91.432 37.2613 90.3773 37.392 89.22 37.392C88.156 37.392 87.2133 37.308 86.392 37.14C85.5893 36.9907 84.852 36.7853 84.18 36.524C83.508 36.244 82.8733 35.9173 82.276 35.544C81.6787 35.1707 81.0627 34.76 80.428 34.312ZM112.717 19.976H106.865V37H102.945V19.976H97.0646V16.504H112.717V19.976ZM118.739 19.976V25.1H128.651V28.656H118.739V33.472H129.911V37H114.847V16.504H129.911V19.976H118.739ZM137.292 19.976V25.1H147.204V28.656H137.292V33.472H148.464V37H133.4V16.504H148.464V19.976H137.292ZM166.709 33.528V37H151.953V16.504H155.873V33.528H166.709Z" fill="white"/>
</svg>
