<svg version="1.1" id="Layer_1" xmlns="http://www.w3.org/2000/svg" xmlns:xlink="http://www.w3.org/1999/xlink" x="0px" y="0px"
	 width="100%" viewBox="0 0 1316 1316" enable-background="new 0 0 1316 1316" xml:space="preserve">
<path fill="#000000" opacity="1.000000" stroke="none" 
	d="
M725.000000,1317.000000 
	C483.333344,1317.000000 242.166672,1317.000000 1.000000,1317.000000 
	C1.000000,878.333313 1.000000,439.666656 1.000000,1.000000 
	C439.666656,1.000000 878.333313,1.000000 1317.000000,1.000000 
	C1317.000000,439.666656 1317.000000,878.333313 1317.000000,1317.000000 
	C1119.833374,1317.000000 922.666687,1317.000000 725.000000,1317.000000 
M295.185730,489.310669 
	C297.685791,491.260498 299.084381,493.642609 300.190704,496.805939 
	C303.718445,506.893097 307.984436,516.723450 312.019135,526.631042 
	C313.223297,529.587952 314.630341,532.461609 315.899109,535.393005 
	C318.606415,541.648132 321.326599,547.898376 323.938751,554.193298 
	C324.473450,555.481934 324.903687,556.993347 324.764404,558.338074 
	C324.579376,560.124207 324.608124,560.417175 326.311096,560.460083 
	C332.845245,573.715393 329.725159,587.738220 329.845123,601.385315 
	C330.234222,645.658813 329.591156,689.943848 330.261688,734.210632 
	C330.436798,745.771790 326.935699,755.768433 322.949677,765.952087 
	C318.405487,777.561829 313.444275,789.007690 308.806305,800.581604 
	C306.365997,806.671265 305.076904,813.428040 301.609955,818.816956 
	C299.770416,821.676270 301.081055,827.599548 295.182953,827.519958 
	C295.432465,827.988770 295.681976,828.457642 296.333527,829.273926 
	C296.477295,829.377380 296.621094,829.480774 296.259125,830.179260 
	C295.824371,831.895081 295.572876,833.684021 294.922974,835.314087 
	C292.145630,842.279785 289.195404,849.176514 286.415924,856.141418 
	C284.113129,861.911743 281.984497,867.751404 279.735260,873.543457 
	C277.819977,878.475647 275.846771,883.385437 273.881592,888.298157 
	C273.775085,888.564331 273.506470,888.765625 273.248718,889.074646 
	C272.154144,888.871155 271.132141,888.681213 271.222900,888.698059 
	C270.809845,891.446350 270.848816,894.275330 269.931824,896.750183 
	C266.103790,907.081482 262.064789,917.337219 257.931030,927.551086 
	C256.719360,930.544922 254.654602,933.199768 253.502457,936.209595 
	C252.425354,939.023499 251.334000,942.145569 251.512985,945.054199 
	C251.792374,949.594971 255.310013,950.089172 259.336578,950.081543 
	C315.333984,949.976013 371.331665,950.000977 427.329224,950.046387 
	C429.409912,950.048096 431.490112,950.581482 434.231232,950.957886 
	C432.915497,952.020386 432.360443,952.468628 430.701263,953.808472 
	C436.099609,955.157776 440.632629,955.656311 444.587982,957.437500 
	C449.708099,959.743286 452.764923,965.619995 459.169861,966.172791 
	C460.188477,966.260742 461.060547,968.198486 461.972504,969.304016 
	C462.414459,969.839661 462.669586,970.632019 463.217651,970.961792 
	C469.112976,974.508301 475.044342,977.995178 480.980408,981.473633 
	C482.093384,982.125854 483.270782,982.668213 484.418457,983.261292 
	C484.528656,983.044739 484.638855,982.828125 484.749084,982.611511 
	C484.297333,982.203308 483.845551,981.795044 483.393799,981.386780 
	C485.316437,981.445068 486.626312,982.396301 488.026764,983.187134 
	C489.485077,984.010681 491.030762,984.679443 492.938171,985.611206 
	C491.623108,985.949890 490.874237,986.142700 490.125397,986.335571 
	C490.059235,986.658081 489.993103,986.980652 489.926941,987.303162 
	C494.208496,988.578918 498.490051,989.854614 503.482391,991.342102 
	C501.818512,991.881104 501.001404,992.145813 498.921204,992.819641 
	C506.969055,995.803162 513.898254,998.371948 520.827454,1000.940674 
	C520.354919,1001.327026 519.882446,1001.713379 519.409973,1002.099670 
	C519.803162,1003.029053 520.241882,1004.782471 520.582703,1004.763672 
	C525.469666,1004.493652 527.927734,1011.219788 533.460205,1009.207336 
	C533.954285,1009.027649 535.131042,1010.725647 535.990967,1011.551331 
	C536.843323,1012.369629 537.638977,1013.821899 538.557556,1013.904480 
	C545.444702,1014.523376 549.641541,1019.256836 554.230835,1023.535156 
	C555.397461,1024.622803 557.151611,1025.193970 558.733337,1025.692749 
	C560.561218,1026.269165 562.693298,1026.127563 564.333984,1026.985107 
	C566.198059,1027.959473 567.788574,1029.575317 569.276917,1031.124512 
	C571.910522,1033.865845 574.596802,1036.605225 576.848633,1039.650269 
	C578.916565,1042.446655 579.980713,1046.092285 582.347534,1048.527466 
	C584.308899,1050.545410 590.137268,1055.439575 591.016785,1057.044922 
	C593.460327,1061.505005 596.100830,1065.858887 598.736694,1070.210449 
	C599.323914,1071.180054 600.287170,1071.914185 600.946899,1072.848755 
	C603.549805,1076.536011 605.576721,1080.824829 608.808228,1083.822144 
	C612.565552,1087.307373 616.440796,1090.283325 617.077515,1095.820068 
	C617.166931,1096.597168 618.073059,1097.561279 618.844788,1097.933228 
	C623.726868,1100.286499 625.895752,1104.727905 627.992676,1109.298950 
	C630.361023,1114.461670 631.512695,1120.562134 638.039246,1122.648560 
	C638.468689,1122.786011 638.651611,1123.694580 638.949158,1124.244507 
	C638.285950,1124.379150 637.622803,1124.513794 635.931396,1124.857300 
	C638.718079,1127.302856 640.887756,1129.075439 642.897278,1131.014038 
	C644.371765,1132.436157 645.838867,1133.944580 646.945435,1135.650513 
	C648.482300,1138.019897 649.311462,1140.918823 651.097168,1143.041260 
	C654.769409,1147.406128 658.554565,1148.044678 663.621826,1144.946655 
	C665.361755,1143.882935 665.999756,1141.129761 667.361023,1139.312988 
	C671.782715,1133.412354 676.460266,1127.698242 680.750305,1121.705322 
	C685.798218,1114.653687 690.544006,1107.385986 695.205078,1100.529297 
	C696.073120,1101.060791 696.773865,1101.489868 697.474609,1101.918945 
	C698.438721,1100.243042 699.523132,1098.622925 700.334534,1096.876099 
	C701.230408,1094.947510 701.536499,1092.666260 702.717529,1090.968750 
	C704.151123,1088.908325 706.303589,1087.363525 708.015320,1085.477783 
	C711.049622,1082.134888 714.478760,1079.013916 716.858032,1075.241943 
	C721.364380,1068.097900 725.244873,1060.558838 729.385376,1053.183960 
	C729.686218,1053.658936 729.987061,1054.133911 730.287903,1054.608887 
	C731.183655,1054.181519 732.892822,1053.471924 732.856750,1053.367920 
	C731.802673,1050.330566 733.603821,1049.193970 735.663574,1047.343750 
	C738.054871,1045.195801 739.163147,1041.676025 741.082336,1038.929199 
	C742.772522,1036.510132 744.402649,1033.689819 746.779236,1032.180542 
	C752.665344,1028.442749 759.036255,1025.478149 765.065247,1021.951355 
	C768.038269,1020.212219 770.510620,1017.598145 773.519287,1015.942993 
	C778.686584,1013.100281 784.121948,1010.748962 789.395203,1008.092957 
	C792.592590,1006.482544 795.696777,1004.687134 797.435974,1003.740540 
	C798.318237,1001.869019 798.480713,1000.798584 798.953491,1000.637268 
	C802.437073,999.448303 805.982483,998.440735 808.305481,997.739319 
	C812.698792,989.274475 821.834961,990.437500 828.184082,986.503723 
	C826.943848,986.072754 826.186951,985.809692 824.886353,985.357727 
	C829.960876,983.078308 834.524963,981.179321 838.949219,978.996948 
	C843.092957,976.952942 847.179565,974.756836 851.114136,972.339233 
	C853.347961,970.966675 855.070435,968.765259 857.297668,967.377869 
	C861.509583,964.754395 865.847595,962.307861 870.267456,960.050842 
	C874.621765,957.827393 880.674438,957.039795 883.175049,953.588440 
	C885.876282,949.860291 888.452026,950.044861 891.636719,950.042297 
	C947.467651,949.997742 1003.298584,950.010864 1059.129517,950.008545 
	C1065.533447,950.008301 1066.358521,949.170044 1065.993774,942.783020 
	C1065.809326,939.553528 1065.461914,936.333435 1065.145020,932.601074 
	C1064.450806,933.724976 1063.902344,934.612854 1063.565430,935.158264 
	C1062.213867,932.149292 1060.658447,928.983032 1059.350220,925.717834 
	C1055.621094,916.410522 1052.039551,907.044128 1048.311646,897.736389 
	C1044.675049,888.656616 1040.832397,879.658569 1037.266479,870.551758 
	C1034.932495,864.591003 1033.115845,858.425903 1030.732056,852.486938 
	C1027.815918,845.221863 1024.545654,838.099182 1021.434692,830.912170 
	C1018.623657,824.418030 1015.666077,817.981689 1013.057617,811.407043 
	C1010.399414,804.706726 1008.298096,797.783203 1005.578308,791.110107 
	C1000.882324,779.588013 995.709656,768.257935 991.132141,756.690918 
	C989.500549,752.567871 988.158691,747.994202 988.140686,743.620178 
	C987.934631,693.456543 987.919983,643.291382 988.075317,593.127380 
	C988.112000,581.290649 986.256226,569.313721 992.794922,558.005066 
	C996.642273,551.350952 998.240112,543.418823 1001.070984,536.147583 
	C1003.678589,529.449585 1006.637146,522.889038 1009.332947,516.224182 
	C1010.772583,512.664917 1011.826965,508.946320 1013.331604,505.417511 
	C1016.108765,498.904694 1019.226807,492.535522 1021.934326,485.995361 
	C1023.570923,482.042267 1024.480713,477.788666 1026.112183,473.833008 
	C1028.562134,467.892761 1031.549438,462.172516 1033.956299,456.216492 
	C1036.535522,449.834259 1038.492188,443.199066 1041.107910,436.833405 
	C1044.890869,427.626984 1049.151611,418.617340 1052.959595,409.420654 
	C1055.531982,403.208191 1057.540161,396.763367 1060.067871,390.530762 
	C1061.342285,387.388336 1063.247925,384.505829 1064.803589,381.472748 
	C1069.013184,373.265167 1065.836060,367.989929 1056.712402,367.989929 
	C1001.381470,367.989990 946.050476,367.999268 890.719543,367.954285 
	C888.616394,367.952576 886.513672,367.425903 884.220154,367.118286 
	C885.117676,365.876709 885.598022,365.212189 886.165588,364.427002 
	C881.963074,363.201843 877.855957,362.649200 874.387573,360.859039 
	C867.179260,357.138550 860.199829,352.935699 853.334045,348.602051 
	C847.482910,344.908783 842.494202,340.168823 835.662781,337.647827 
	C828.478149,334.996460 822.023315,330.367584 815.102966,326.521301 
	C816.142700,326.147827 816.980652,325.846802 817.123962,325.795319 
	C811.632446,323.285858 805.785461,320.700623 800.041016,317.904602 
	C799.069397,317.431702 798.539490,316.051239 797.805481,315.090057 
	C796.959106,313.856720 795.307617,313.257538 793.855896,312.341705 
	C791.779297,311.031616 789.063904,307.823029 787.988525,308.329254 
	C782.687866,310.824738 780.499878,305.253082 776.497253,304.559357 
	C774.009277,304.128113 770.489624,302.070557 769.849731,299.997040 
	C768.033569,294.112518 762.536682,294.135132 758.629456,292.215607 
	C753.738708,289.812805 748.826050,287.456970 744.718445,284.007996 
	C741.013672,280.897308 739.616882,275.946411 735.712585,272.383728 
	C732.274719,269.246643 730.014832,264.254761 726.412170,260.421478 
	C722.438416,256.193359 719.056152,250.702545 717.483826,245.173737 
	C716.442139,241.510971 713.372192,241.765945 711.907227,239.381165 
	C707.798401,232.692719 703.172729,226.300812 698.456726,220.012619 
	C694.228943,214.375290 689.516113,209.102325 685.265015,203.481247 
	C684.624329,202.634064 685.333191,200.766266 685.435059,199.084717 
	C681.334961,198.355026 679.641235,195.122025 678.958374,190.968567 
	C678.840454,190.251068 678.147217,189.204056 677.539062,189.057022 
	C671.609558,187.623535 669.857483,181.969742 667.263550,177.854889 
	C661.678833,168.995544 657.452209,168.837143 650.866760,175.722305 
	C648.027283,178.690979 646.343079,182.764603 644.134033,186.336258 
	C642.836609,186.085510 641.573730,186.517349 641.089661,187.384171 
	C640.499451,188.441040 640.957458,190.151031 640.279114,191.079498 
	C636.873657,195.740494 633.218201,200.217819 629.702881,204.799789 
	C626.510010,208.961533 622.822205,212.882797 620.437195,217.473557 
	C618.976807,220.284378 616.243958,222.231476 615.843567,226.181152 
	C615.543152,229.144058 611.549194,231.817657 609.023071,234.450592 
	C604.815674,238.835876 600.355774,242.992325 599.145142,249.375763 
	C598.981873,250.236496 598.271729,251.103958 597.597046,251.735855 
	C595.805481,253.413940 593.620361,254.743469 592.103149,256.624176 
	C590.333130,258.818298 589.300232,261.473938 586.602600,263.046509 
	C584.662354,264.177521 583.186707,266.197479 585.672607,268.311981 
	C584.307312,269.821472 582.720520,271.343719 581.417053,273.078766 
	C579.954773,275.025146 579.051880,277.465424 577.369629,279.158112 
	C573.515808,283.035645 569.519104,286.824921 565.209473,290.172607 
	C563.117615,291.797607 560.192017,292.349365 557.421265,293.477661 
	C555.852356,299.156036 549.052185,298.993866 544.770630,301.875305 
	C540.114563,305.008728 534.724670,307.051605 529.500854,309.646362 
	C529.525879,309.670044 530.038574,310.155334 530.840088,310.914001 
	C526.987732,312.519409 523.413574,314.008881 519.698914,315.556915 
	C519.475159,315.258942 519.997559,315.954590 520.049622,316.023926 
	C510.410370,320.834106 500.652832,325.703308 490.342773,330.848206 
	C491.472321,331.619904 492.071167,332.029053 492.525177,332.339233 
	C488.441528,334.856110 484.409210,337.621796 480.121613,339.908997 
	C475.358185,342.450104 470.357361,344.545227 465.469818,346.855408 
	C463.966461,347.565948 461.572754,348.018921 461.172729,349.150543 
	C459.606598,353.580414 456.512817,353.194336 453.083038,352.491608 
	C448.513916,361.402069 438.608063,361.332764 430.874634,365.418030 
	C432.043610,365.858704 432.891388,366.178314 433.739166,366.497925 
	C431.476013,367.509552 429.250183,367.957855 427.024017,367.959412 
	C371.193115,367.998230 315.362183,367.989960 259.531250,367.990387 
	C258.197998,367.990417 256.840424,367.833710 255.536484,368.030396 
	C252.752136,368.450348 250.873795,372.000885 251.801239,374.568573 
	C253.270096,378.635315 254.538467,382.774414 256.004272,386.842316 
	C258.013153,392.417450 259.949951,398.029175 262.242432,403.488831 
	C264.966095,409.975433 268.095093,416.290924 270.905975,422.742615 
	C271.522766,424.158325 271.893829,425.871704 271.739624,427.382874 
	C271.560791,429.135071 271.474609,429.325867 272.976624,429.175385 
	C274.379150,432.116058 275.872498,434.776031 276.947449,437.595520 
	C279.456390,444.176056 281.612610,450.892914 284.188416,457.445740 
	C288.267731,467.823639 292.573364,478.112579 296.342926,488.736725 
	C296.206482,488.849762 296.070068,488.962769 295.185730,489.310669 
M992.002441,617.500000 
	C992.002441,600.465637 992.002441,583.431274 992.002441,566.396973 
	C991.744568,566.398987 991.486694,566.401062 991.228821,566.403137 
	C991.228821,628.148499 991.228821,689.893860 991.228821,751.639282 
	C991.486694,751.640015 991.744568,751.640686 992.002441,751.641418 
	C992.002441,707.260925 992.002441,662.880493 992.002441,617.500000 
M325.998718,738.492310 
	C325.998718,743.114258 325.998718,747.736145 325.998718,752.358093 
	C326.223480,752.347717 326.448212,752.337341 326.672974,752.327026 
	C326.672974,690.108704 326.672974,627.890442 326.672974,565.672180 
	C326.448212,565.672302 326.223480,565.672424 325.998718,565.672607 
	C325.998718,622.946655 325.998718,680.220764 325.998718,738.492310 
z"/>
<path fill="#FAFAF9" opacity="1.000000" stroke="none" 
	d="
M295.931519,828.926453 
	C295.681976,828.457642 295.432465,827.988770 295.182953,827.519958 
	C301.081055,827.599548 299.770416,821.676270 301.609955,818.816956 
	C305.076904,813.428040 306.365997,806.671265 308.806305,800.581604 
	C313.444275,789.007690 318.405487,777.561829 322.949677,765.952087 
	C326.935699,755.768433 330.436798,745.771790 330.261688,734.210632 
	C329.591156,689.943848 330.234222,645.658813 329.845123,601.385315 
	C329.725159,587.738220 332.845245,573.715393 326.311096,560.460083 
	C324.608124,560.417175 324.579376,560.124207 324.764404,558.338074 
	C324.903687,556.993347 324.473450,555.481934 323.938751,554.193298 
	C321.326599,547.898376 318.606415,541.648132 315.899109,535.393005 
	C314.630341,532.461609 313.223297,529.587952 312.019135,526.631042 
	C307.984436,516.723450 303.718445,506.893097 300.190704,496.805939 
	C299.084381,493.642609 297.685791,491.260498 295.656189,489.471924 
	C296.662872,489.673157 297.199097,489.713135 297.735291,489.753113 
	C297.417938,489.315125 297.100586,488.877136 296.783264,488.439148 
	C292.573364,478.112579 288.267731,467.823639 284.188416,457.445740 
	C281.612610,450.892914 279.456390,444.176056 276.947449,437.595520 
	C275.872498,434.776031 274.379150,432.116058 272.976624,429.175385 
	C271.474609,429.325867 271.560791,429.135071 271.739624,427.382874 
	C271.893829,425.871704 271.522766,424.158325 270.905975,422.742615 
	C268.095093,416.290924 264.966095,409.975433 262.242432,403.488831 
	C259.949951,398.029175 258.013153,392.417450 256.004272,386.842316 
	C254.538467,382.774414 253.270096,378.635315 251.801239,374.568573 
	C250.873795,372.000885 252.752136,368.450348 255.536484,368.030396 
	C256.840424,367.833710 258.197998,367.990417 259.531250,367.990387 
	C315.362183,367.989960 371.193115,367.998230 427.024017,367.959412 
	C429.250183,367.957855 431.476013,367.509552 433.739166,366.497925 
	C432.891388,366.178314 432.043610,365.858704 430.874634,365.418030 
	C438.608063,361.332764 448.513916,361.402069 453.083374,352.492188 
	C456.512817,353.194336 459.606598,353.580414 461.172729,349.150543 
	C461.572754,348.018921 463.966461,347.565948 465.469818,346.855408 
	C470.357361,344.545227 475.358185,342.450104 480.121613,339.908997 
	C484.409210,337.621796 488.441528,334.856110 492.525177,332.339233 
	C492.071167,332.029053 491.472321,331.619904 490.342773,330.848206 
	C500.652832,325.703308 510.410370,320.834106 520.049622,316.023926 
	C519.997559,315.954590 519.475159,315.258942 519.698914,315.556915 
	C523.413574,314.008881 526.987732,312.519409 530.840088,310.914001 
	C530.038574,310.155334 529.525879,309.670044 529.500854,309.646362 
	C534.724670,307.051605 540.114563,305.008728 544.770630,301.875305 
	C549.052185,298.993866 555.852356,299.156036 557.421265,293.477661 
	C560.192017,292.349365 563.117615,291.797607 565.209473,290.172607 
	C569.519104,286.824921 573.515808,283.035645 577.369629,279.158112 
	C579.051880,277.465424 579.954773,275.025146 581.417053,273.078766 
	C582.720520,271.343719 584.307312,269.821472 585.672607,268.311981 
	C583.186707,266.197479 584.662354,264.177521 586.602600,263.046509 
	C589.300232,261.473938 590.333130,258.818298 592.103149,256.624176 
	C593.620361,254.743469 595.805481,253.413940 597.597046,251.735855 
	C598.271729,251.103958 598.981873,250.236496 599.145142,249.375763 
	C600.355774,242.992325 604.815674,238.835876 609.023071,234.450592 
	C611.549194,231.817657 615.543152,229.144058 615.843567,226.181152 
	C616.243958,222.231476 618.976807,220.284378 620.437195,217.473557 
	C622.822205,212.882797 626.510010,208.961533 629.702881,204.799789 
	C633.218201,200.217819 636.873657,195.740494 640.279114,191.079498 
	C640.957458,190.151031 640.499451,188.441040 641.089661,187.384171 
	C641.573730,186.517349 642.836609,186.085510 644.134033,186.336258 
	C646.343079,182.764603 648.027283,178.690979 650.866760,175.722305 
	C657.452209,168.837143 661.678833,168.995544 667.263550,177.854889 
	C669.857483,181.969742 671.609558,187.623535 677.539062,189.057022 
	C678.147217,189.204056 678.840454,190.251068 678.958374,190.968567 
	C679.641235,195.122025 681.334961,198.355026 685.435059,199.084717 
	C685.333191,200.766266 684.624329,202.634064 685.265015,203.481247 
	C689.516113,209.102325 694.228943,214.375290 698.456726,220.012619 
	C703.172729,226.300812 707.798401,232.692719 711.907227,239.381165 
	C713.372192,241.765945 716.442139,241.510971 717.483826,245.173737 
	C719.056152,250.702545 722.438416,256.193359 726.412170,260.421478 
	C730.014832,264.254761 732.274719,269.246643 735.712585,272.383728 
	C739.616882,275.946411 741.013672,280.897308 744.718445,284.007996 
	C748.826050,287.456970 753.738708,289.812805 758.629456,292.215607 
	C762.536682,294.135132 768.033569,294.112518 769.849731,299.997040 
	C770.489624,302.070557 774.009277,304.128113 776.497253,304.559357 
	C780.499878,305.253082 782.687866,310.824738 787.988525,308.329254 
	C789.063904,307.823029 791.779297,311.031616 793.855896,312.341705 
	C795.307617,313.257538 796.959106,313.856720 797.805481,315.090057 
	C798.539490,316.051239 799.069397,317.431702 800.041016,317.904602 
	C805.785461,320.700623 811.632446,323.285858 817.123962,325.795319 
	C816.980652,325.846802 816.142700,326.147827 815.102966,326.521301 
	C822.023315,330.367584 828.478149,334.996460 835.662781,337.647827 
	C842.494202,340.168823 847.482910,344.908783 853.334045,348.602051 
	C860.199829,352.935699 867.179260,357.138550 874.387573,360.859039 
	C877.855957,362.649200 881.963074,363.201843 886.165588,364.427002 
	C885.598022,365.212189 885.117676,365.876709 884.220154,367.118286 
	C886.513672,367.425903 888.616394,367.952576 890.719543,367.954285 
	C946.050476,367.999268 1001.381470,367.989990 1056.712402,367.989929 
	C1065.836060,367.989929 1069.013184,373.265167 1064.803589,381.472748 
	C1063.247925,384.505829 1061.342285,387.388336 1060.067871,390.530762 
	C1057.540161,396.763367 1055.531982,403.208191 1052.959595,409.420654 
	C1049.151611,418.617340 1044.890869,427.626984 1041.107910,436.833405 
	C1038.492188,443.199066 1036.535522,449.834259 1033.956299,456.216492 
	C1031.549438,462.172516 1028.562134,467.892761 1026.112183,473.833008 
	C1024.480713,477.788666 1023.570923,482.042267 1021.934326,485.995361 
	C1019.226807,492.535522 1016.108765,498.904694 1013.331604,505.417511 
	C1011.826965,508.946320 1010.772583,512.664917 1009.332947,516.224182 
	C1006.637146,522.889038 1003.678589,529.449585 1001.070984,536.147583 
	C998.240112,543.418823 996.642273,551.350952 992.794922,558.005066 
	C986.256226,569.313721 988.112000,581.290649 988.075317,593.127380 
	C987.919983,643.291382 987.934631,693.456543 988.140686,743.620178 
	C988.158691,747.994202 989.500549,752.567871 991.132141,756.690918 
	C995.709656,768.257935 1000.882324,779.588013 1005.578308,791.110107 
	C1008.298096,797.783203 1010.399414,804.706726 1013.057617,811.407043 
	C1015.666077,817.981689 1018.623657,824.418030 1021.434692,830.912170 
	C1024.545654,838.099182 1027.815918,845.221863 1030.732056,852.486938 
	C1033.115845,858.425903 1034.932495,864.591003 1037.266479,870.551758 
	C1040.832397,879.658569 1044.675049,888.656616 1048.311646,897.736389 
	C1052.039551,907.044128 1055.621094,916.410522 1059.350220,925.717834 
	C1060.658447,928.983032 1062.213867,932.149292 1063.565430,935.158264 
	C1063.902344,934.612854 1064.450806,933.724976 1065.145020,932.601074 
	C1065.461914,936.333435 1065.809326,939.553528 1065.993774,942.783020 
	C1066.358521,949.170044 1065.533447,950.008301 1059.129517,950.008545 
	C1003.298584,950.010864 947.467651,949.997742 891.636719,950.042297 
	C888.452026,950.044861 885.876282,949.860291 883.175049,953.588440 
	C880.674438,957.039795 874.621765,957.827393 870.267456,960.050842 
	C865.847595,962.307861 861.509583,964.754395 857.297668,967.377869 
	C855.070435,968.765259 853.347961,970.966675 851.114136,972.339233 
	C847.179565,974.756836 843.092957,976.952942 838.949219,978.996948 
	C834.524963,981.179321 829.960876,983.078308 824.886353,985.357727 
	C826.186951,985.809692 826.943848,986.072754 828.184082,986.503723 
	C821.834961,990.437500 812.698792,989.274475 808.305481,997.739319 
	C805.982483,998.440735 802.437073,999.448303 798.953491,1000.637268 
	C798.480713,1000.798584 798.318237,1001.869019 797.435974,1003.740540 
	C795.696777,1004.687134 792.592590,1006.482544 789.395203,1008.092957 
	C784.121948,1010.748962 778.686584,1013.100281 773.519287,1015.942993 
	C770.510620,1017.598145 768.038269,1020.212219 765.065247,1021.951355 
	C759.036255,1025.478149 752.665344,1028.442749 746.779236,1032.180542 
	C744.402649,1033.689819 742.772522,1036.510132 741.082336,1038.929199 
	C739.163147,1041.676025 738.054871,1045.195801 735.663574,1047.343750 
	C733.603821,1049.193970 731.802673,1050.330566 732.856750,1053.367920 
	C732.892822,1053.471924 731.183655,1054.181519 730.287903,1054.608887 
	C729.987061,1054.133911 729.686218,1053.658936 729.385376,1053.183960 
	C725.244873,1060.558838 721.364380,1068.097900 716.858032,1075.241943 
	C714.478760,1079.013916 711.049622,1082.134888 708.015320,1085.477783 
	C706.303589,1087.363525 704.151123,1088.908325 702.717529,1090.968750 
	C701.536499,1092.666260 701.230408,1094.947510 700.334534,1096.876099 
	C699.523132,1098.622925 698.438721,1100.243042 697.474609,1101.918945 
	C696.773865,1101.489868 696.073120,1101.060791 695.205078,1100.529297 
	C690.544006,1107.385986 685.798218,1114.653687 680.750305,1121.705322 
	C676.460266,1127.698242 671.782715,1133.412354 667.361023,1139.312988 
	C665.999756,1141.129761 665.361755,1143.882935 663.621826,1144.946655 
	C658.554565,1148.044678 654.769409,1147.406128 651.097168,1143.041260 
	C649.311462,1140.918823 648.482300,1138.019897 646.945435,1135.650513 
	C645.838867,1133.944580 644.371765,1132.436157 642.897278,1131.014038 
	C640.887756,1129.075439 638.718079,1127.302856 635.931396,1124.857300 
	C637.622803,1124.513794 638.285950,1124.379150 638.949158,1124.244507 
	C638.651611,1123.694580 638.468689,1122.786011 638.039246,1122.648560 
	C631.512695,1120.562134 630.361023,1114.461670 627.992676,1109.298950 
	C625.895752,1104.727905 623.726868,1100.286499 618.844788,1097.933228 
	C618.073059,1097.561279 617.166931,1096.597168 617.077515,1095.820068 
	C616.440796,1090.283325 612.565552,1087.307373 608.808228,1083.822144 
	C605.576721,1080.824829 603.549805,1076.536011 600.946899,1072.848755 
	C600.287170,1071.914185 599.323914,1071.180054 598.736694,1070.210449 
	C596.100830,1065.858887 593.460327,1061.505005 591.016785,1057.044922 
	C590.137268,1055.439575 584.308899,1050.545410 582.347534,1048.527466 
	C579.980713,1046.092285 578.916565,1042.446655 576.848633,1039.650269 
	C574.596802,1036.605225 571.910522,1033.865845 569.276917,1031.124512 
	C567.788574,1029.575317 566.198059,1027.959473 564.333984,1026.985107 
	C562.693298,1026.127563 560.561218,1026.269165 558.733337,1025.692749 
	C557.151611,1025.193970 555.397461,1024.622803 554.230835,1023.535156 
	C549.641541,1019.256836 545.444702,1014.523376 538.557556,1013.904480 
	C537.638977,1013.821899 536.843323,1012.369629 535.990967,1011.551331 
	C535.131042,1010.725647 533.954285,1009.027649 533.460205,1009.207336 
	C527.927734,1011.219788 525.469666,1004.493652 520.582703,1004.763672 
	C520.241882,1004.782471 519.803162,1003.029053 519.409973,1002.099670 
	C519.882446,1001.713379 520.354919,1001.327026 520.827454,1000.940674 
	C513.898254,998.371948 506.969055,995.803162 498.921204,992.819641 
	C501.001404,992.145813 501.818512,991.881104 503.482391,991.342102 
	C498.490051,989.854614 494.208496,988.578918 489.926941,987.303162 
	C489.993103,986.980652 490.059235,986.658081 490.125397,986.335571 
	C490.874237,986.142700 491.623108,985.949890 492.938171,985.611206 
	C491.030762,984.679443 489.485077,984.010681 488.026764,983.187134 
	C486.626312,982.396301 485.316437,981.445068 483.393799,981.386780 
	C483.845551,981.795044 484.297333,982.203308 484.749084,982.611511 
	C484.638855,982.828125 484.528656,983.044739 484.418457,983.261292 
	C483.270782,982.668213 482.093384,982.125854 480.980408,981.473633 
	C475.044342,977.995178 469.112976,974.508301 463.217651,970.961792 
	C462.669586,970.632019 462.414459,969.839661 461.972504,969.304016 
	C461.060547,968.198486 460.188477,966.260742 459.169861,966.172791 
	C452.764923,965.619995 449.708099,959.743286 444.587982,957.437500 
	C440.632629,955.656311 436.099609,955.157776 430.701263,953.808472 
	C432.360443,952.468628 432.915497,952.020386 434.231232,950.957886 
	C431.490112,950.581482 429.409912,950.048096 427.329224,950.046387 
	C371.331665,950.000977 315.333984,949.976013 259.336578,950.081543 
	C255.310013,950.089172 251.792374,949.594971 251.512985,945.054199 
	C251.334000,942.145569 252.425354,939.023499 253.502457,936.209595 
	C254.654602,933.199768 256.719360,930.544922 257.931030,927.551086 
	C262.064789,917.337219 266.103790,907.081482 269.931824,896.750183 
	C270.848816,894.275330 270.809845,891.446350 271.222900,888.698059 
	C271.132141,888.681213 272.154144,888.871155 273.248718,889.074646 
	C273.506470,888.765625 273.775085,888.564331 273.881592,888.298157 
	C275.846771,883.385437 277.819977,878.475647 279.735260,873.543457 
	C281.984497,867.751404 284.113129,861.911743 286.415924,856.141418 
	C289.195404,849.176514 292.145630,842.279785 294.922974,835.314087 
	C295.572876,833.684021 295.824371,831.895081 296.731750,829.689819 
	C297.340179,828.867554 297.476044,828.534790 297.611877,828.202026 
	C297.051788,828.443481 296.491638,828.684998 295.931519,828.926453 
M896.327332,373.708649 
	C891.627075,373.163940 886.248230,373.905243 882.346924,371.846527 
	C867.365906,363.941040 852.879211,355.101959 838.169556,346.678528 
	C820.160400,336.365662 802.112488,326.120422 783.685913,315.297394 
	C770.599670,307.725128 757.488586,300.195282 744.454102,292.534821 
	C742.501343,291.387177 740.512329,289.913910 739.207520,288.108826 
	C719.054443,260.228729 699.053528,232.238724 678.919800,204.344589 
	C672.439087,195.365875 665.676025,186.591003 658.306091,177.804871 
	C657.184814,179.244385 656.014099,180.648331 654.949463,182.128571 
	C629.685303,217.256317 604.448792,252.403976 579.131531,287.493347 
	C577.813416,289.320251 576.042114,291.031128 574.112610,292.171356 
	C562.365540,299.113129 550.490051,305.837189 538.714539,312.731598 
	C536.801270,313.851807 535.173157,315.459076 532.756042,316.806427 
	C531.536133,317.320435 530.245300,317.711273 529.106812,318.366638 
	C506.204102,331.549866 483.502258,345.096466 460.356812,357.837494 
	C447.848114,364.723236 436.902252,375.918518 419.883179,373.879791 
	C418.889801,373.798889 417.896454,373.647491 416.903046,373.647247 
	C365.925323,373.635406 314.947571,373.634979 263.969849,373.646362 
	C262.977997,373.646576 261.986206,373.801575 260.163147,373.682495 
	C256.896606,373.587952 257.723450,375.391083 258.476593,377.239502 
	C267.546143,399.498413 276.602234,421.762848 285.943512,444.717133 
	C301.898407,484.234711 317.877716,523.742493 333.747833,563.294067 
	C334.707031,565.684570 335.159454,568.414124 335.228485,571.002380 
	C335.503448,581.312683 335.532990,591.629578 335.377594,602.853394 
	C335.348969,639.754822 335.317963,676.656311 335.306763,713.557739 
	C335.306519,714.373657 335.531982,715.189697 335.368103,716.898132 
	C335.340820,727.052979 335.384613,737.208862 335.231445,747.361755 
	C335.197296,749.627441 334.842102,752.031006 334.006866,754.119934 
	C324.803955,777.135864 315.434479,800.085144 306.197479,823.087524 
	C299.383453,840.056091 292.698547,857.076477 285.517944,874.620850 
	C284.051514,878.137268 282.538025,881.634888 281.126587,885.173218 
	C273.705414,903.776978 266.310028,922.390991 258.417114,941.659485 
	C257.355469,946.721680 261.384857,944.210571 262.824463,944.214600 
	C313.713257,944.356934 364.602539,944.338623 415.491730,944.315613 
	C417.305756,944.314758 419.119629,944.036682 421.849518,944.096619 
	C426.237366,944.545471 431.310089,943.724426 434.896729,945.658813 
	C452.132019,954.954285 468.951935,965.018311 485.946320,974.762451 
	C501.918701,983.920410 517.924744,993.019775 534.347351,1002.670654 
	C547.438843,1010.263733 560.563171,1017.801392 573.588196,1025.506836 
	C575.662354,1026.733765 577.665955,1028.443481 579.069214,1030.386963 
	C602.240906,1062.480347 625.280945,1094.668945 648.437988,1126.772949 
	C651.784241,1131.412109 655.582886,1135.725098 659.796265,1139.910034 
	C660.225159,1139.401489 660.690735,1138.919189 661.077576,1138.380493 
	C683.984863,1106.479004 706.834534,1074.536133 729.823853,1042.693970 
	C735.409363,1034.957642 740.214905,1026.745728 749.541077,1022.090515 
	C761.399658,1016.171143 772.549927,1008.833008 784.727661,1002.060059 
	C812.817627,985.898560 840.985718,969.870667 868.952637,953.498901 
	C878.042358,948.177856 886.822571,942.620972 898.915588,944.346375 
	C952.543945,944.346375 1006.172241,944.346375 1060.501221,944.346375 
	C1059.753296,942.700378 1059.368042,941.852539 1058.987427,940.270386 
	C1056.023560,932.886902 1053.114990,925.480713 1050.084106,918.124756 
	C1043.898804,903.112976 1037.647705,888.128357 1031.384033,872.331177 
	C1030.992432,871.239319 1030.637573,870.132629 1030.203735,869.057800 
	C1014.911011,831.169617 999.578979,793.297119 984.379944,755.371399 
	C983.303589,752.685608 982.812500,749.623718 982.712097,746.713928 
	C982.357666,736.436890 982.291748,726.149841 982.157959,714.950562 
	C982.134766,677.334167 982.111633,639.717834 982.372131,601.314514 
	C982.456421,591.169800 982.479309,581.023926 982.672302,570.881287 
	C982.715637,568.604492 982.947388,566.176758 983.779480,564.092957 
	C993.833679,538.915161 1004.054565,513.804016 1014.152100,488.643524 
	C1019.968506,474.150391 1025.639526,459.598969 1031.823120,444.571320 
	C1041.356934,421.193573 1050.890625,397.815857 1060.642822,373.902588 
	C1058.863525,373.902588 1057.933716,373.902588 1056.090454,373.664398 
	C1004.310303,373.649780 952.530090,373.633026 900.749939,373.634308 
	C899.594849,373.634338 898.439697,373.839722 896.327332,373.708649 
z"/>
<path fill="#FEFEFE" opacity="1.000000" stroke="none" 
	d="
M992.002441,618.000000 
	C992.002441,662.880493 992.002441,707.260925 992.002441,751.641418 
	C991.744568,751.640686 991.486694,751.640015 991.228821,751.639282 
	C991.228821,689.893860 991.228821,628.148499 991.228821,566.403137 
	C991.486694,566.401062 991.744568,566.398987 992.002441,566.396973 
	C992.002441,583.431274 992.002441,600.465637 992.002441,618.000000 
z"/>
<path fill="#FFFEFE" opacity="1.000000" stroke="none" 
	d="
M325.998718,737.993591 
	C325.998718,680.220764 325.998718,622.946655 325.998718,565.672607 
	C326.223480,565.672424 326.448212,565.672302 326.672974,565.672180 
	C326.672974,627.890442 326.672974,690.108704 326.672974,752.327026 
	C326.448212,752.337341 326.223480,752.347717 325.998718,752.358093 
	C325.998718,747.736145 325.998718,743.114258 325.998718,737.993591 
z"/>
<path fill="#FCD701" opacity="1.000000" stroke="none" 
	d="
M659.042114,177.722870 
	C665.676025,186.591003 672.439087,195.365875 678.919800,204.344589 
	C699.053528,232.238724 719.054443,260.228729 739.207520,288.108826 
	C740.512329,289.913910 742.501343,291.387177 744.454102,292.534821 
	C757.488586,300.195282 770.599670,307.725128 783.732422,315.919861 
	C779.234741,329.005066 774.712646,341.475952 770.140564,353.928497 
	C764.597412,369.026093 758.902222,384.068878 753.478394,399.209015 
	C748.839661,412.157684 744.491272,425.210358 739.725098,438.438782 
	C717.979675,443.900818 696.547119,449.241150 675.045837,454.288940 
	C671.190491,455.194061 670.339111,456.704895 671.089294,460.424225 
	C675.587708,482.725708 680.131104,505.023468 684.133179,527.416565 
	C685.376648,534.374268 687.852478,539.460876 694.761230,541.955017 
	C696.729309,542.665466 698.394043,544.216370 700.124207,545.801514 
	C695.622559,558.321411 691.194641,570.421692 686.409180,582.452637 
	C677.056702,577.226685 668.061829,572.069946 659.059692,566.450073 
	C659.049011,436.565552 659.045593,307.144196 659.042114,177.722870 
z"/>
<path fill="#A59D90" opacity="1.000000" stroke="none" 
	d="
M784.005615,1002.106628 
	C772.549927,1008.833008 761.399658,1016.171143 749.541077,1022.090515 
	C740.214905,1026.745728 735.409363,1034.957642 729.823853,1042.693970 
	C706.834534,1074.536133 683.984863,1106.479004 661.077576,1138.380493 
	C660.690735,1138.919189 660.225159,1139.401489 659.442017,1139.564697 
	C659.066589,1137.887207 659.026855,1136.555298 659.026917,1135.223267 
	C659.030334,1007.163940 659.036926,879.104553 659.348572,750.886963 
	C668.641846,745.763428 677.629761,740.798218 686.808838,736.172485 
	C691.336121,748.484009 695.672302,760.455994 699.858704,772.716675 
	C696.853271,774.711975 694.116150,776.675598 691.112488,778.061340 
	C687.208801,779.862244 685.730408,782.741394 684.955139,786.878967 
	C680.608582,810.075256 676.002808,833.223450 671.385315,856.368164 
	C670.138184,862.619629 670.018616,862.421570 676.078979,863.890503 
	C697.381226,869.053894 718.653259,874.341980 739.924316,879.992432 
	C754.609802,920.970215 769.307739,961.538452 784.005615,1002.106628 
z"/>
<path fill="#C6883D" opacity="1.000000" stroke="none" 
	d="
M658.674072,177.763870 
	C659.045593,307.144196 659.049011,436.565552 658.754883,566.627563 
	C649.294006,572.373413 640.130615,577.478638 630.943115,582.164062 
	C626.495300,569.733643 622.071716,557.722900 617.881226,545.457642 
	C621.108765,543.402100 623.993225,541.373718 627.126282,539.859924 
	C630.739685,538.114136 632.499207,535.668701 633.185913,531.563049 
	C635.080322,520.237000 637.567932,509.010864 639.776245,497.736511 
	C642.489014,483.886902 645.156494,470.028412 647.890869,455.929871 
	C646.312195,455.382812 645.112793,454.857727 643.860046,454.550415 
	C633.510437,452.011841 623.132080,449.588440 612.799438,446.983124 
	C601.196594,444.057587 589.632446,440.978668 578.052979,437.577850 
	C577.912415,436.541077 577.841736,435.867035 577.617859,435.248444 
	C564.544556,399.116394 551.490784,362.977234 538.322693,326.879730 
	C537.053162,323.399689 535.066772,320.181183 533.413208,316.841248 
	C535.173157,315.459076 536.801270,313.851807 538.714539,312.731598 
	C550.490051,305.837189 562.365540,299.113129 574.112610,292.171356 
	C576.042114,291.031128 577.813416,289.320251 579.131531,287.493347 
	C604.448792,252.403976 629.685303,217.256317 654.949463,182.128571 
	C656.014099,180.648331 657.184814,179.244385 658.674072,177.763870 
z"/>
<path fill="#4BAEC6" opacity="1.000000" stroke="none" 
	d="
M659.043213,751.045227 
	C659.036926,879.104553 659.030334,1007.163940 659.026917,1135.223267 
	C659.026855,1136.555298 659.066589,1137.887207 659.129944,1139.704102 
	C655.582886,1135.725098 651.784241,1131.412109 648.437988,1126.772949 
	C625.280945,1094.668945 602.240906,1062.480347 579.069214,1030.386963 
	C577.665955,1028.443481 575.662354,1026.733765 573.588196,1025.506836 
	C560.563171,1017.801392 547.438843,1010.263733 534.213379,1002.046326 
	C534.860779,999.989868 535.841492,998.630005 536.391418,997.113892 
	C540.013428,987.128174 543.490601,977.089905 547.112793,967.104187 
	C554.866455,945.729065 562.747620,924.399841 570.431702,902.999878 
	C573.165039,895.387512 575.478882,887.624451 578.311768,879.753662 
	C599.954407,874.303162 621.245789,868.930115 642.605591,863.844116 
	C646.583313,862.897034 648.079224,861.756287 647.144897,857.283264 
	C642.961121,837.252319 638.607727,817.227966 635.442566,797.024658 
	C633.727295,786.075684 630.498474,777.336548 619.237000,773.513123 
	C619.092468,773.464050 618.988159,773.296509 618.891724,772.759644 
	C619.336182,770.424988 619.574158,768.453491 620.201599,766.614929 
	C623.764709,756.173706 627.421082,745.764221 631.417114,735.426697 
	C640.873474,740.688049 649.958313,745.866638 659.043213,751.045227 
z"/>
<path fill="#2ECC28" opacity="1.000000" stroke="none" 
	d="
M335.653412,601.944031 
	C335.532990,591.629578 335.503448,581.312683 335.228485,571.002380 
	C335.159454,568.414124 334.707031,565.684570 333.747833,563.294067 
	C317.877716,523.742493 301.898407,484.234711 286.183533,444.398560 
	C295.381622,448.904480 304.446228,453.543274 313.269104,458.603485 
	C322.842987,464.094421 332.132233,470.079315 341.652771,475.666199 
	C356.505554,484.382050 371.438873,492.961060 386.355896,501.567108 
	C408.734314,514.477966 431.133423,527.352905 453.513702,540.260559 
	C469.537415,549.502136 485.531860,558.794617 501.562195,568.024658 
	C527.539612,582.982117 553.535828,597.906921 579.488892,613.235107 
	C579.335022,624.041687 579.216248,634.458557 578.693115,644.842896 
	C565.587463,642.578552 552.885986,640.346802 540.069824,637.652283 
	C539.933167,633.860718 539.593384,630.495544 539.968262,627.212036 
	C540.458496,622.918396 538.784607,620.180298 535.560425,617.459167 
	C523.866516,607.590088 512.430359,597.415833 500.885376,587.370056 
	C493.148193,580.637634 485.391418,573.927673 477.678955,567.238525 
	C474.920990,569.904724 472.474487,572.137817 470.175598,574.513733 
	C456.069550,589.092346 441.996918,603.703186 427.510345,618.207092 
	C396.622803,612.721985 366.138123,607.333008 335.653412,601.944031 
z"/>
<path fill="#375D9D" opacity="1.000000" stroke="none" 
	d="
M285.956085,874.073730 
	C292.698547,857.076477 299.383453,840.056091 306.197479,823.087524 
	C315.434479,800.085144 324.803955,777.135864 334.006866,754.119934 
	C334.842102,752.031006 335.197296,749.627441 335.231445,747.361755 
	C335.384613,737.208862 335.340820,727.052979 335.884064,716.442871 
	C337.685913,715.695251 338.961853,715.346130 340.259186,715.118774 
	C363.359711,711.070129 386.475128,707.104736 409.556854,702.951904 
	C415.492401,701.883972 421.323578,700.235962 427.498108,698.993652 
	C444.282013,716.360107 460.770538,733.587280 477.419678,750.982239 
	C494.973785,735.718506 511.664429,720.481079 529.197083,706.283447 
	C537.277344,699.740173 541.909302,692.904663 539.931030,682.416931 
	C539.784790,681.641907 540.091858,680.781311 540.585144,679.947327 
	C553.683044,677.917053 566.384094,675.899902 579.206665,674.346191 
	C579.426941,684.975464 579.525635,695.141357 579.242126,705.458618 
	C577.223083,706.428650 575.538269,707.164124 573.956543,708.078003 
	C522.737732,737.669739 471.532288,767.284607 420.317261,796.882935 
	C388.381531,815.339294 356.449493,833.802185 324.483246,852.205627 
	C311.685913,859.573303 298.801117,866.788940 285.956085,874.073730 
z"/>
<path fill="#EC3F4D" opacity="1.000000" stroke="none" 
	d="
M1031.376099,445.073761 
	C1025.639526,459.598969 1019.968506,474.150391 1014.152100,488.643524 
	C1004.054565,513.804016 993.833679,538.915161 983.779480,564.092957 
	C982.947388,566.176758 982.715637,568.604492 982.672302,570.881287 
	C982.479309,581.023926 982.456421,591.169800 981.815796,601.711426 
	C966.080017,604.781006 950.890869,607.400452 935.723755,610.141357 
	C920.722290,612.852234 905.742981,615.685852 890.454529,618.299561 
	C877.117065,604.604736 864.074829,591.080017 851.043762,577.544556 
	C847.727478,574.099976 844.447388,570.620667 841.043579,567.044861 
	C839.500183,568.302429 838.464722,569.099182 837.480713,569.955017 
	C821.664673,583.709595 806.201294,597.900696 789.901123,611.054993 
	C781.484497,617.847229 775.975342,624.863281 778.293762,636.114929 
	C778.420593,636.730713 778.152710,637.427917 777.656860,638.103638 
	C764.547058,640.356079 751.848938,642.592102 739.048218,644.379883 
	C738.911011,633.643372 738.876465,623.355225 739.158569,612.911621 
	C740.293396,612.186462 741.074158,611.551697 741.935242,611.056396 
	C775.624023,591.680542 809.347961,572.365540 843.006653,552.937500 
	C871.771423,536.334229 900.445251,519.573425 929.191101,502.937134 
	C957.364197,486.632355 985.551697,470.352020 1013.794434,454.168304 
	C1019.514038,450.890808 1025.508423,448.092804 1031.376099,445.073761 
z"/>
<path fill="#9433AF" opacity="1.000000" stroke="none" 
	d="
M982.116333,715.866638 
	C982.291748,726.149841 982.357666,736.436890 982.712097,746.713928 
	C982.812500,749.623718 983.303589,752.685608 984.379944,755.371399 
	C999.578979,793.297119 1014.911011,831.169617 1030.203735,869.057800 
	C1030.637573,870.132629 1030.992432,871.239319 1031.007080,872.674866 
	C1027.252808,871.241028 1023.809265,869.577820 1020.507935,867.668701 
	C976.864014,842.430237 933.254395,817.132263 889.607361,791.898987 
	C839.331787,762.833679 789.027588,733.817932 738.783691,704.330078 
	C738.929382,693.629089 739.027283,683.378601 739.519165,673.143311 
	C752.636475,675.405701 765.359863,677.652893 778.160400,680.360596 
	C778.287842,684.151917 778.583496,687.501892 778.326721,690.809021 
	C777.998840,695.031799 779.587341,697.892883 782.835693,700.591614 
	C791.799194,708.038513 800.477173,715.829224 809.269104,723.482788 
	C819.662537,732.530701 830.056885,741.577576 839.462524,749.764648 
	C846.601135,743.241638 853.551636,737.300354 860.027283,730.880127 
	C870.422974,720.573669 880.504395,709.950134 891.127075,699.616638 
	C921.729187,705.137268 951.922729,710.501953 982.116333,715.866638 
z"/>
<path fill="#13ABD1" opacity="1.000000" stroke="none" 
	d="
M420.933594,943.887878 
	C419.119629,944.036682 417.305756,944.314758 415.491730,944.315613 
	C364.602539,944.338623 313.713257,944.356934 262.824463,944.214600 
	C261.384857,944.210571 257.355469,946.721680 259.054138,941.329712 
	C261.062469,940.558899 262.649017,940.423218 263.772949,939.631165 
	C280.560211,927.800415 297.306152,915.910706 314.022217,903.979370 
	C337.206329,887.431335 360.307709,870.766968 383.534943,854.279846 
	C411.491516,834.435669 439.527191,814.702881 467.563477,794.971436 
	C475.254120,789.558899 483.069519,784.323730 491.014435,779.340820 
	C494.910278,792.261597 498.693848,804.827393 502.300262,817.443909 
	C504.439117,824.926331 506.298645,832.488525 507.948730,840.118408 
	C497.473083,852.044739 487.258606,863.805237 477.209167,875.705139 
	C462.231079,893.441162 447.333008,911.245239 432.482361,929.088135 
	C428.481323,933.895325 424.775116,938.947937 420.933594,943.887878 
z"/>
<path fill="#C2D501" opacity="1.000000" stroke="none" 
	d="
M260.994385,373.884338 
	C261.986206,373.801575 262.977997,373.646576 263.969849,373.646362 
	C314.947571,373.634979 365.925323,373.635406 416.903046,373.647247 
	C417.896454,373.647491 418.889801,373.798889 420.395508,374.355103 
	C424.341766,379.079742 427.712372,383.382172 431.220154,387.569641 
	C449.851288,409.810913 468.470032,432.062866 487.195099,454.224915 
	C494.022369,462.305328 501.131073,470.148010 508.151733,478.498932 
	C507.783844,480.457550 507.413269,482.027374 506.961639,483.573486 
	C501.661194,501.719269 496.348572,519.861450 490.664246,537.999268 
	C488.646759,537.274719 486.828217,536.805847 485.390564,535.795105 
	C476.980377,529.882263 468.674530,523.821411 460.305573,517.849609 
	C421.832916,490.396881 383.397186,462.892090 344.856750,435.534851 
	C318.084625,416.531097 291.143646,397.765228 264.362732,378.773773 
	C262.846588,377.698639 262.099457,375.539124 260.994385,373.884338 
z"/>
<path fill="#402A3A" opacity="1.000000" stroke="none" 
	d="
M1058.982788,941.004761 
	C1059.368042,941.852539 1059.753296,942.700378 1060.501221,944.346375 
	C1006.172241,944.346375 952.543945,944.346375 898.424683,943.870117 
	C897.739685,942.940735 897.644226,942.402710 897.337463,942.046753 
	C886.094849,929.003967 874.740051,916.056702 863.598633,902.928284 
	C851.919678,889.166321 840.135925,875.473755 828.996216,861.281311 
	C822.604187,853.137634 813.575989,846.771606 810.831726,835.569214 
	C816.715759,815.051880 822.638489,794.930847 828.897156,775.032715 
	C829.663879,779.732666 832.427368,782.290527 836.003662,784.755127 
	C846.244019,791.812317 856.150452,799.351624 866.289185,806.559265 
	C899.822388,830.398560 933.406189,854.166504 966.958679,877.978699 
	C995.371948,898.143616 1023.747559,918.361816 1052.219971,938.442810 
	C1054.127563,939.788269 1056.712769,940.173157 1058.982788,941.004761 
z"/>
<path fill="#FC5816" opacity="1.000000" stroke="none" 
	d="
M897.284607,373.949341 
	C898.439697,373.839722 899.594849,373.634338 900.749939,373.634308 
	C952.530090,373.633026 1004.310303,373.649780 1056.515503,374.146790 
	C1055.981445,375.904480 1055.259766,377.506134 1054.026001,378.403809 
	C1043.308105,386.202087 1032.525757,393.912903 1021.710571,401.576324 
	C989.521606,424.384705 957.314331,447.167297 925.103943,469.945404 
	C895.192383,491.097748 865.211304,512.152771 835.432678,533.490417 
	C832.327454,535.715454 829.862671,536.958557 826.184448,534.894348 
	C825.446045,532.870300 824.903992,531.130493 824.403381,529.378845 
	C819.536865,512.350464 814.677246,495.320068 810.129822,478.122437 
	C817.412476,469.969177 824.497864,462.082245 831.326294,453.978699 
	C848.290039,433.847137 865.184509,413.656555 882.002075,393.402649 
	C887.267944,387.060791 892.199829,380.441589 897.284607,373.949341 
z"/>
<path fill="#302927" opacity="1.000000" stroke="none" 
	d="
M810.870483,835.965454 
	C813.575989,846.771606 822.604187,853.137634 828.996216,861.281311 
	C840.135925,875.473755 851.919678,889.166321 863.598633,902.928284 
	C874.740051,916.056702 886.094849,929.003967 897.337463,942.046753 
	C897.644226,942.402710 897.739685,942.940735 897.970337,943.745239 
	C886.822571,942.620972 878.042358,948.177856 868.952637,953.498901 
	C840.985718,969.870667 812.817627,985.898560 784.366638,1002.083374 
	C769.307739,961.538452 754.609802,920.970215 740.350830,879.998901 
	C758.455566,883.857117 776.121460,888.118469 793.832092,892.390564 
	C794.324585,890.889282 794.597717,890.114136 794.834045,889.328003 
	C800.181946,871.541260 805.525818,853.753235 810.870483,835.965454 
z"/>
<path fill="#CBC694" opacity="1.000000" stroke="none" 
	d="
M508.111389,478.099121 
	C501.131073,470.148010 494.022369,462.305328 487.195099,454.224915 
	C468.470032,432.062866 449.851288,409.810913 431.220154,387.569641 
	C427.712372,383.382172 424.341766,379.079742 420.832703,374.490967 
	C436.902252,375.918518 447.848114,364.723236 460.356812,357.837494 
	C483.502258,345.096466 506.204102,331.549866 529.106812,318.366638 
	C530.245300,317.711273 531.536133,317.320435 533.084595,316.823853 
	C535.066772,320.181183 537.053162,323.399689 538.322693,326.879730 
	C551.490784,362.977234 564.544556,399.116394 577.617859,435.248444 
	C577.841736,435.867035 577.912415,436.541077 577.638672,437.622070 
	C576.082214,437.859467 574.925354,437.731232 573.803650,437.458435 
	C558.796448,433.809021 543.787231,430.167542 528.796997,426.449341 
	C526.033020,425.763733 524.082397,425.750732 523.134888,429.164886 
	C519.847717,441.009247 516.419739,452.816284 512.885315,464.589447 
	C511.513550,469.158569 509.715332,473.599701 508.111389,478.099121 
z"/>
<path fill="#6DC6E0" opacity="1.000000" stroke="none" 
	d="
M421.391541,943.992249 
	C424.775116,938.947937 428.481323,933.895325 432.482361,929.088135 
	C447.333008,911.245239 462.231079,893.441162 477.209167,875.705139 
	C487.258606,863.805237 497.473083,852.044739 508.203003,840.350342 
	C512.779297,853.659729 516.903198,866.801270 520.713989,880.032898 
	C524.381165,892.765808 524.202087,892.657288 536.826721,889.546692 
	C550.505249,886.176392 564.261719,883.122253 577.984253,879.930176 
	C575.478882,887.624451 573.165039,895.387512 570.431702,902.999878 
	C562.747620,924.399841 554.866455,945.729065 547.112793,967.104187 
	C543.490601,977.089905 540.013428,987.128174 536.391418,997.113892 
	C535.841492,998.630005 534.860779,999.989868 533.997681,1001.783447 
	C517.924744,993.019775 501.918701,983.920410 485.946320,974.762451 
	C468.951935,965.018311 452.132019,954.954285 434.896729,945.658813 
	C431.310089,943.724426 426.237366,944.545471 421.391541,943.992249 
z"/>
<path fill="#FCAB01" opacity="1.000000" stroke="none" 
	d="
M896.805969,373.828979 
	C892.199829,380.441589 887.267944,387.060791 882.002075,393.402649 
	C865.184509,413.656555 848.290039,433.847137 831.326294,453.978699 
	C824.497864,462.082245 817.412476,469.969177 809.896484,477.814636 
	C804.228088,460.399353 799.107239,443.124084 793.907043,425.581116 
	C789.226196,426.689178 785.210449,427.648804 781.190308,428.589874 
	C767.465881,431.802490 753.739868,435.008514 740.014465,438.217041 
	C744.491272,425.210358 748.839661,412.157684 753.478394,399.209015 
	C758.902222,384.068878 764.597412,369.026093 770.140564,353.928497 
	C774.712646,341.475952 779.234741,329.005066 783.930176,316.194092 
	C802.112488,326.120422 820.160400,336.365662 838.169556,346.678528 
	C852.879211,355.101959 867.365906,363.941040 882.346924,371.846527 
	C886.248230,373.905243 891.627075,373.163940 896.805969,373.828979 
z"/>
<path fill="#FB4311" opacity="1.000000" stroke="none" 
	d="
M826.400024,535.173096 
	C829.862671,536.958557 832.327454,535.715454 835.432678,533.490417 
	C865.211304,512.152771 895.192383,491.097748 925.103943,469.945404 
	C957.314331,447.167297 989.521606,424.384705 1021.710571,401.576324 
	C1032.525757,393.912903 1043.308105,386.202087 1054.026001,378.403809 
	C1055.259766,377.506134 1055.981445,375.904480 1056.972168,374.265900 
	C1057.933716,373.902588 1058.863525,373.902588 1060.642822,373.902588 
	C1050.890625,397.815857 1041.356934,421.193573 1031.599609,444.822540 
	C1025.508423,448.092804 1019.514038,450.890808 1013.794434,454.168304 
	C985.551697,470.352020 957.364197,486.632355 929.191101,502.937134 
	C900.445251,519.573425 871.771423,536.334229 843.006653,552.937500 
	C809.347961,572.365540 775.624023,591.680542 741.935242,611.056396 
	C741.074158,611.551697 740.293396,612.186462 738.870728,612.742432 
	C735.515503,611.126648 732.764771,609.524719 730.081604,607.565979 
	C733.829285,604.962769 737.652161,602.918335 741.164978,600.435242 
	C757.598328,588.818970 773.978638,577.126465 790.263306,565.303406 
	C791.570557,564.354309 792.009644,562.209412 793.087036,560.344604 
	C805.339355,555.958557 817.356812,551.848145 829.480286,547.701538 
	C828.356812,543.131958 827.378418,539.152527 826.400024,535.173096 
z"/>
<path fill="#54374C" opacity="1.000000" stroke="none" 
	d="
M1058.985107,940.637573 
	C1056.712769,940.173157 1054.127563,939.788269 1052.219971,938.442810 
	C1023.747559,918.361816 995.371948,898.143616 966.958679,877.978699 
	C933.406189,854.166504 899.822388,830.398560 866.289185,806.559265 
	C856.150452,799.351624 846.244019,791.812317 836.003662,784.755127 
	C832.427368,782.290527 829.663879,779.732666 828.953430,774.622803 
	C829.995300,771.227417 829.009399,770.003906 826.143066,769.058716 
	C818.685242,766.599487 811.352051,763.762268 804.062195,760.777527 
	C803.934937,759.994873 803.847717,759.269775 803.473938,759.063171 
	C799.198792,756.700378 794.666199,754.737671 790.618347,752.043152 
	C782.661133,746.746521 774.932678,741.102356 767.171753,735.515625 
	C755.258728,726.940063 743.398071,718.291748 731.720581,709.398560 
	C734.195923,707.675415 736.465881,706.228027 738.735779,704.780640 
	C789.027588,733.817932 839.331787,762.833679 889.607361,791.898987 
	C933.254395,817.132263 976.864014,842.430237 1020.507935,867.668701 
	C1023.809265,869.577820 1027.252808,871.241028 1031.026978,873.075562 
	C1037.647705,888.128357 1043.898804,903.112976 1050.084106,918.124756 
	C1053.114990,925.480713 1056.023560,932.886902 1058.985107,940.637573 
z"/>
<path fill="#B8CF02" opacity="1.000000" stroke="none" 
	d="
M260.578766,373.783417 
	C262.099457,375.539124 262.846588,377.698639 264.362732,378.773773 
	C291.143646,397.765228 318.084625,416.531097 344.856750,435.534851 
	C383.397186,462.892090 421.832916,490.396881 460.305573,517.849609 
	C468.674530,523.821411 476.980377,529.882263 485.390564,535.795105 
	C486.828217,536.805847 488.646759,537.274719 490.681976,538.380493 
	C490.014679,541.565247 488.954712,544.363403 487.873840,547.216797 
	C500.630066,551.780579 512.804565,556.136230 524.985962,560.841858 
	C525.766602,562.513062 526.239380,564.227539 527.364929,565.089478 
	C533.126404,569.501770 539.029053,573.732178 544.932678,577.955933 
	C557.423035,586.892151 569.978577,595.738037 582.400635,604.767822 
	C583.644897,605.672241 584.156433,607.584473 584.716064,609.191101 
	C582.790771,610.517273 581.157410,611.681396 579.524048,612.845520 
	C553.535828,597.906921 527.539612,582.982117 501.562195,568.024658 
	C485.531860,558.794617 469.537415,549.502136 453.513702,540.260559 
	C431.133423,527.352905 408.734314,514.477966 386.355896,501.567108 
	C371.438873,492.961060 356.505554,484.382050 341.652771,475.666199 
	C332.132233,470.079315 322.842987,464.094421 313.269104,458.603485 
	C304.446228,453.543274 295.381622,448.904480 286.042694,444.052917 
	C276.602234,421.762848 267.546143,399.498413 258.476593,377.239502 
	C257.723450,375.391083 256.896606,373.587952 260.578766,373.783417 
z"/>
<path fill="#19B7D7" opacity="1.000000" stroke="none" 
	d="
M490.827667,779.007202 
	C483.069519,784.323730 475.254120,789.558899 467.563477,794.971436 
	C439.527191,814.702881 411.491516,834.435669 383.534943,854.279846 
	C360.307709,870.766968 337.206329,887.431335 314.022217,903.979370 
	C297.306152,915.910706 280.560211,927.800415 263.772949,939.631165 
	C262.649017,940.423218 261.062469,940.558899 259.298431,941.000671 
	C266.310028,922.390991 273.705414,903.776978 281.126587,885.173218 
	C282.538025,881.634888 284.051514,878.137268 285.737000,874.347290 
	C298.801117,866.788940 311.685913,859.573303 324.483246,852.205627 
	C356.449493,833.802185 388.381531,815.339294 420.317261,796.882935 
	C471.532288,767.284607 522.737732,737.669739 573.956543,708.078003 
	C575.538269,707.164124 577.223083,706.428650 579.553467,705.610962 
	C582.375854,706.937378 584.504822,708.262817 586.294189,709.786438 
	C582.307434,712.818970 578.775574,715.818481 574.993408,718.459595 
	C556.477417,731.389709 537.884033,744.208862 519.374634,757.148376 
	C518.623596,757.673401 518.444336,759.016479 517.695068,760.188171 
	C507.908020,763.694153 498.424530,766.990479 488.816284,770.330139 
	C489.572845,773.593933 490.200256,776.300537 490.827667,779.007202 
z"/>
<path fill="#0171B9" opacity="1.000000" stroke="none" 
	d="
M427.202698,698.854370 
	C421.323578,700.235962 415.492401,701.883972 409.556854,702.951904 
	C386.475128,707.104736 363.359711,711.070129 340.259186,715.118774 
	C338.961853,715.346130 337.685913,715.695251 336.026093,715.996704 
	C335.531982,715.189697 335.306519,714.373657 335.306763,713.557739 
	C335.317963,676.656311 335.348969,639.754822 335.515503,602.398682 
	C366.138123,607.333008 396.622803,612.721985 427.396423,618.492981 
	C415.027557,632.210999 402.369843,645.546936 389.661224,658.936462 
	C402.420990,672.503967 414.811829,685.679199 427.202698,698.854370 
z"/>
<path fill="#EF96CE" opacity="1.000000" stroke="none" 
	d="
M982.137146,715.408569 
	C951.922729,710.501953 921.729187,705.137268 891.243225,699.322998 
	C903.423096,685.634033 915.895325,672.394653 928.473572,659.042786 
	C924.640259,654.849609 921.318176,651.155029 917.930481,647.521606 
	C908.886719,637.822205 899.814697,628.149170 890.753967,618.465637 
	C905.742981,615.685852 920.722290,612.852234 935.723755,610.141357 
	C950.890869,607.400452 966.080017,604.781006 981.673950,602.104858 
	C982.111633,639.717834 982.134766,677.334167 982.137146,715.408569 
z"/>
<path fill="#000000" opacity="1.000000" stroke="none" 
	d="
M296.132507,829.100220 
	C296.491638,828.684998 297.051788,828.443481 297.611877,828.202026 
	C297.476044,828.534790 297.340179,828.867554 296.984619,829.392273 
	C296.621094,829.480774 296.477295,829.377380 296.132507,829.100220 
z"/>
<path fill="#000000" opacity="1.000000" stroke="none" 
	d="
M296.563110,488.587952 
	C297.100586,488.877136 297.417938,489.315125 297.735291,489.753113 
	C297.199097,489.713135 296.662872,489.673157 296.030151,489.354462 
	C296.070068,488.962769 296.206482,488.849762 296.563110,488.587952 
z"/>
<path fill="#FEFEFE" opacity="1.000000" stroke="none" 
	d="
M586.633789,709.588257 
	C584.504822,708.262817 582.375854,706.937378 579.935669,705.459595 
	C579.525635,695.141357 579.426941,684.975464 579.318726,673.902344 
	C579.238647,663.621887 579.168030,654.248657 579.097412,644.875488 
	C579.216248,634.458557 579.335022,624.041687 579.488892,613.235107 
	C581.157410,611.681396 582.790771,610.517273 585.080322,609.236938 
	C592.874146,604.785156 600.011780,600.449646 607.512451,596.111572 
	C615.572693,591.600708 623.269958,587.092224 630.967285,582.583740 
	C640.130615,577.478638 649.294006,572.373413 658.762085,567.090698 
	C668.061829,572.069946 677.056702,577.226685 686.629761,582.687378 
	C695.412354,587.670532 703.616699,592.349792 712.061401,597.283569 
	C718.205811,600.999756 724.109924,604.461243 730.014038,607.922729 
	C732.764771,609.524719 735.515503,611.126648 738.554077,612.897827 
	C738.876465,623.355225 738.911011,633.643372 738.971436,644.857178 
	C739.039917,654.897949 739.082520,664.013000 739.125122,673.128113 
	C739.027283,683.378601 738.929382,693.629089 738.783691,704.330078 
	C736.465881,706.228027 734.195923,707.675415 731.380127,709.450073 
	C724.545532,713.493713 718.256836,717.210083 711.612610,720.957764 
	C703.043945,725.937134 694.830811,730.885071 686.617676,735.833008 
	C677.629761,740.798218 668.641846,745.763428 659.348572,750.886963 
	C649.958313,745.866638 640.873474,740.688049 631.225830,735.196777 
	C622.916565,730.572388 615.170105,726.260620 607.189697,721.669006 
	C600.181824,717.455566 593.407837,713.521912 586.633789,709.588257 
z"/>
<path fill="#FFFEFD" opacity="1.000000" stroke="none" 
	d="
M826.184448,534.894348 
	C827.378418,539.152527 828.356812,543.131958 829.480286,547.701538 
	C817.356812,551.848145 805.339355,555.958557 792.694580,560.393127 
	C779.776489,564.873718 767.530090,569.171448 755.153503,573.054199 
	C752.964233,573.741028 750.011414,573.237915 747.798950,572.334595 
	C743.830688,570.714478 740.156677,568.373291 736.171265,566.068604 
	C724.054504,558.996399 712.126221,552.189148 700.197876,545.381836 
	C698.394043,544.216370 696.729309,542.665466 694.761230,541.955017 
	C687.852478,539.460876 685.376648,534.374268 684.133179,527.416565 
	C680.131104,505.023468 675.587708,482.725708 671.089294,460.424225 
	C670.339111,456.704895 671.190491,455.194061 675.045837,454.288940 
	C696.547119,449.241150 717.979675,443.900818 739.725098,438.438782 
	C753.739868,435.008514 767.465881,431.802490 781.190308,428.589874 
	C785.210449,427.648804 789.226196,426.689178 793.907043,425.581116 
	C799.107239,443.124084 804.228088,460.399353 809.582275,477.982422 
	C814.677246,495.320068 819.536865,512.350464 824.403381,529.378845 
	C824.903992,531.130493 825.446045,532.870300 826.184448,534.894348 
z"/>
<path fill="#FCAB03" opacity="1.000000" stroke="none" 
	d="
M700.124207,545.801514 
	C712.126221,552.189148 724.054504,558.996399 736.000366,566.422607 
	C731.899231,571.992126 727.722046,576.895569 723.678284,581.906616 
	C719.656128,586.891113 715.768005,591.983765 711.821106,597.028992 
	C703.616699,592.349792 695.412354,587.670532 686.987305,582.756592 
	C691.194641,570.421692 695.622559,558.321411 700.124207,545.801514 
z"/>
<path fill="#FEFEFE" opacity="1.000000" stroke="none" 
	d="
M803.969116,761.075867 
	C811.352051,763.762268 818.685242,766.599487 826.143066,769.058716 
	C829.009399,770.003906 829.995300,771.227417 828.617493,774.399841 
	C822.638489,794.930847 816.715759,815.051880 810.831787,835.569214 
	C805.525818,853.753235 800.181946,871.541260 794.834045,889.328003 
	C794.597717,890.114136 794.324585,890.889282 793.832092,892.390564 
	C776.121460,888.118469 758.455566,883.857117 740.363281,879.589233 
	C718.653259,874.341980 697.381226,869.053894 676.078979,863.890503 
	C670.018616,862.421570 670.138184,862.619629 671.385315,856.368164 
	C676.002808,833.223450 680.608582,810.075256 684.955139,786.878967 
	C685.730408,782.741394 687.208801,779.862244 691.112488,778.061340 
	C694.116150,776.675598 696.853271,774.711975 700.240356,772.687500 
	C712.633606,765.479309 724.495544,758.588928 736.724854,751.660522 
	C739.402893,750.311768 741.958008,749.297058 743.975952,747.631653 
	C748.957336,743.520630 753.851685,744.021301 759.631287,746.121399 
	C774.286865,751.446594 789.174438,756.133423 803.969116,761.075867 
z"/>
<path fill="#302927" opacity="1.000000" stroke="none" 
	d="
M736.357483,751.698547 
	C724.495544,758.588928 712.633606,765.479309 700.390137,772.398865 
	C695.672302,760.455994 691.336121,748.484009 686.808838,736.172485 
	C694.830811,730.885071 703.043945,725.937134 711.747559,721.275757 
	C713.188660,722.907227 714.066589,724.310852 715.101379,725.587463 
	C722.168335,734.306091 729.268250,742.997986 736.357483,751.698547 
z"/>
<path fill="#FFFEFE" opacity="1.000000" stroke="none" 
	d="
M524.979126,560.491882 
	C512.804565,556.136230 500.630066,551.780579 487.873840,547.216797 
	C488.954712,544.363403 490.014679,541.565247 491.056885,538.385864 
	C496.348572,519.861450 501.661194,501.719269 506.961639,483.573486 
	C507.413269,482.027374 507.783844,480.457550 508.151733,478.498932 
	C509.715332,473.599701 511.513550,469.158569 512.885315,464.589447 
	C516.419739,452.816284 519.847717,441.009247 523.134888,429.164886 
	C524.082397,425.750732 526.033020,425.763733 528.796997,426.449341 
	C543.787231,430.167542 558.796448,433.809021 573.803650,437.458435 
	C574.925354,437.731232 576.082214,437.859467 577.637085,438.010681 
	C589.632446,440.978668 601.196594,444.057587 612.799438,446.983124 
	C623.132080,449.588440 633.510437,452.011841 643.860046,454.550415 
	C645.112793,454.857727 646.312195,455.382812 647.890869,455.929871 
	C645.156494,470.028412 642.489014,483.886902 639.776245,497.736511 
	C637.567932,509.010864 635.080322,520.237000 633.185913,531.563049 
	C632.499207,535.668701 630.739685,538.114136 627.126282,539.859924 
	C623.993225,541.373718 621.108765,543.402100 617.552734,545.555298 
	C607.304626,551.420776 597.586670,556.880005 587.958801,562.493652 
	C586.073792,563.592651 584.537598,565.289978 582.461182,566.684204 
	C578.979370,568.153625 575.574524,569.238586 572.845032,571.243103 
	C568.710693,574.279297 564.954285,574.022339 560.341003,572.345215 
	C548.661011,568.098999 536.779785,564.406311 524.979126,560.491882 
z"/>
<path fill="#CBC694" opacity="1.000000" stroke="none" 
	d="
M582.840576,566.711365 
	C584.537598,565.289978 586.073792,563.592651 587.958801,562.493652 
	C597.586670,556.880005 607.304626,551.420776 617.319580,545.809937 
	C622.071716,557.722900 626.495300,569.733643 630.943115,582.164062 
	C623.269958,587.092224 615.572693,591.600708 607.183838,595.980591 
	C601.441895,589.935730 596.307373,584.088562 591.372498,578.077515 
	C588.369324,574.419434 585.674133,570.508667 582.840576,566.711365 
z"/>
<path fill="#FEFEFF" opacity="1.000000" stroke="none" 
	d="
M491.014435,779.340820 
	C490.200256,776.300537 489.572845,773.593933 488.816284,770.330139 
	C498.424530,766.990479 507.908020,763.694153 518.070923,760.185486 
	C533.555603,754.905823 548.321472,749.716736 563.209717,744.906433 
	C565.371338,744.208008 568.320984,744.816589 570.552002,745.707092 
	C574.836426,747.417175 578.867126,749.763000 583.083557,752.187378 
	C595.064392,759.414490 606.964722,766.299377 618.865051,773.184265 
	C618.988159,773.296509 619.092468,773.464050 619.237000,773.513123 
	C630.498474,777.336548 633.727295,786.075684 635.442566,797.024658 
	C638.607727,817.227966 642.961121,837.252319 647.144897,857.283264 
	C648.079224,861.756287 646.583313,862.897034 642.605591,863.844116 
	C621.245789,868.930115 599.954407,874.303162 578.311829,879.753662 
	C564.261719,883.122253 550.505249,886.176392 536.826721,889.546692 
	C524.202087,892.657288 524.381165,892.765808 520.713989,880.032898 
	C516.903198,866.801270 512.779297,853.659729 508.537994,840.246826 
	C506.298645,832.488525 504.439117,824.926331 502.300262,817.443909 
	C498.693848,804.827393 494.910278,792.261597 491.014435,779.340820 
z"/>
<path fill="#6DC6E0" opacity="1.000000" stroke="none" 
	d="
M618.891724,772.759644 
	C606.964722,766.299377 595.064392,759.414490 583.036865,751.835083 
	C586.359314,746.604492 589.629395,741.916687 593.304382,737.571350 
	C597.834656,732.214844 602.701965,727.143433 607.423645,721.948792 
	C615.170105,726.260620 622.916565,730.572388 630.854370,735.114014 
	C627.421082,745.764221 623.764709,756.173706 620.201599,766.614929 
	C619.574158,768.453491 619.336182,770.424988 618.891724,772.759644 
z"/>
<path fill="#FDFEFE" opacity="1.000000" stroke="none" 
	d="
M427.498108,698.993713 
	C414.811829,685.679199 402.420990,672.503967 389.661224,658.936462 
	C402.369843,645.546936 415.027557,632.210999 427.799255,618.589172 
	C441.996918,603.703186 456.069550,589.092346 470.175598,574.513733 
	C472.474487,572.137817 474.920990,569.904724 477.678955,567.238525 
	C485.391418,573.927673 493.148193,580.637634 500.885376,587.370056 
	C512.430359,597.415833 523.866516,607.590088 535.560425,617.459167 
	C538.784607,620.180298 540.458496,622.918396 539.968262,627.212036 
	C539.593384,630.495544 539.933167,633.860718 539.954468,638.097839 
	C540.031921,652.657593 540.110046,666.309021 540.188232,679.960510 
	C540.091858,680.781311 539.784790,681.641907 539.931030,682.416931 
	C541.909302,692.904663 537.277344,699.740173 529.197083,706.283447 
	C511.664429,720.481079 494.973785,735.718506 477.419678,750.982239 
	C460.770538,733.587280 444.282013,716.360107 427.498108,698.993713 
z"/>
<path fill="#0171B9" opacity="1.000000" stroke="none" 
	d="
M540.585144,679.947327 
	C540.110046,666.309021 540.031921,652.657593 540.069214,638.560547 
	C552.885986,640.346802 565.587463,642.578552 578.693176,644.842896 
	C579.168030,654.248657 579.238647,663.621887 579.197144,673.438965 
	C566.384094,675.899902 553.683044,677.917053 540.585144,679.947327 
z"/>
<path fill="#FFFEFE" opacity="1.000000" stroke="none" 
	d="
M890.454529,618.299561 
	C899.814697,628.149170 908.886719,637.822205 917.930481,647.521606 
	C921.318176,651.155029 924.640259,654.849609 928.473572,659.042786 
	C915.895325,672.394653 903.423096,685.634033 890.834717,699.166992 
	C880.504395,709.950134 870.422974,720.573669 860.027283,730.880127 
	C853.551636,737.300354 846.601135,743.241638 839.462524,749.764648 
	C830.056885,741.577576 819.662537,732.530701 809.269104,723.482788 
	C800.477173,715.829224 791.799194,708.038513 782.835693,700.591614 
	C779.587341,697.892883 777.998840,695.031799 778.326721,690.809021 
	C778.583496,687.501892 778.287842,684.151917 778.187256,679.900513 
	C778.114075,665.349121 778.091309,651.718140 778.068542,638.087219 
	C778.152710,637.427917 778.420593,636.730713 778.293762,636.114929 
	C775.975342,624.863281 781.484497,617.847229 789.901123,611.054993 
	C806.201294,597.900696 821.664673,583.709595 837.480713,569.955017 
	C838.464722,569.099182 839.500183,568.302429 841.043579,567.044861 
	C844.447388,570.620667 847.727478,574.099976 851.043762,577.544556 
	C864.074829,591.080017 877.117065,604.604736 890.454529,618.299561 
z"/>
<path fill="#EF96CE" opacity="1.000000" stroke="none" 
	d="
M777.656860,638.103638 
	C778.091309,651.718140 778.114075,665.349121 778.109985,679.440063 
	C765.359863,677.652893 752.636475,675.405701 739.519165,673.143311 
	C739.082520,664.013000 739.039917,654.897949 739.074036,645.305481 
	C751.848938,642.592102 764.547058,640.356079 777.656860,638.103638 
z"/>
<path fill="#FC5816" opacity="1.000000" stroke="none" 
	d="
M712.061401,597.283569 
	C715.768005,591.983765 719.656128,586.891113 723.678284,581.906616 
	C727.722046,576.895569 731.899231,571.992126 736.188843,566.687500 
	C740.156677,568.373291 743.830688,570.714478 747.798950,572.334595 
	C750.011414,573.237915 752.964233,573.741028 755.153503,573.054199 
	C767.530090,569.171448 779.776489,564.873718 792.459717,560.668762 
	C792.009644,562.209412 791.570557,564.354309 790.263306,565.303406 
	C773.978638,577.126465 757.598328,588.818970 741.164978,600.435242 
	C737.652161,602.918335 733.829285,604.962769 730.081604,607.565979 
	C724.109924,604.461243 718.205811,600.999756 712.061401,597.283569 
z"/>
<path fill="#402A3A" opacity="1.000000" stroke="none" 
	d="
M736.724854,751.660522 
	C729.268250,742.997986 722.168335,734.306091 715.101379,725.587463 
	C714.066589,724.310852 713.188660,722.907227 712.103149,721.244385 
	C718.256836,717.210083 724.545532,713.493713 731.174683,709.725830 
	C743.398071,718.291748 755.258728,726.940063 767.171753,735.515625 
	C774.932678,741.102356 782.661133,746.746521 790.618347,752.043152 
	C794.666199,754.737671 799.198792,756.700378 803.473938,759.063171 
	C803.847717,759.269775 803.934937,759.994873 804.062195,760.777527 
	C789.174438,756.133423 774.286865,751.446594 759.631287,746.121399 
	C753.851685,744.021301 748.957336,743.520630 743.975952,747.631653 
	C741.958008,749.297058 739.402893,750.311768 736.724854,751.660522 
z"/>
<path fill="#C2D501" opacity="1.000000" stroke="none" 
	d="
M582.461182,566.684204 
	C585.674133,570.508667 588.369324,574.419434 591.372498,578.077515 
	C596.307373,584.088562 601.441895,589.935730 606.820801,595.983032 
	C600.011780,600.449646 592.874146,604.785156 585.372253,609.074829 
	C584.156433,607.584473 583.644897,605.672241 582.400635,604.767822 
	C569.978577,595.738037 557.423035,586.892151 544.932678,577.955933 
	C539.029053,573.732178 533.126404,569.501770 527.364929,565.089478 
	C526.239380,564.227539 525.766602,562.513062 524.985962,560.841858 
	C536.779785,564.406311 548.661011,568.098999 560.341003,572.345215 
	C564.954285,574.022339 568.710693,574.279297 572.845032,571.243103 
	C575.574524,569.238586 578.979370,568.153625 582.461182,566.684204 
z"/>
<path fill="#13ABD1" opacity="1.000000" stroke="none" 
	d="
M607.189697,721.669006 
	C602.701965,727.143433 597.834656,732.214844 593.304382,737.571350 
	C589.629395,741.916687 586.359314,746.604492 582.956421,751.492798 
	C578.867126,749.763000 574.836426,747.417175 570.552002,745.707092 
	C568.320984,744.816589 565.371338,744.208008 563.209717,744.906433 
	C548.321472,749.716736 533.555603,754.905823 518.374512,759.975769 
	C518.444336,759.016479 518.623596,757.673401 519.374634,757.148376 
	C537.884033,744.208862 556.477417,731.389709 574.993408,718.459595 
	C578.775574,715.818481 582.307434,712.818970 586.294189,709.786377 
	C593.407837,713.521912 600.181824,717.455566 607.189697,721.669006 
z"/>
</svg>