<svg width="55" height="55" viewBox="0 0 55 55" fill="none" xmlns="http://www.w3.org/2000/svg">
<rect width="55" height="55" rx="27.5" fill="#5090D6"/>
<path fill-rule="evenodd" clip-rule="evenodd" d="M41 32.3959C41 39.3569 34.9559 45 27.5 45C20.0441 45 14 39.3569 14 32.3959C14 25.6257 26.7698 7.03202 27.4701 6.01735C27.4861 5.99422 27.514 5.99422 27.5299 6.01735C28.2302 7.03202 41 25.6257 41 32.3959ZM25.2496 40.9592C18.399 39.5545 19.5713 32.4427 19.5713 32.4427C19.5713 32.4427 21.442 36.7358 25.9815 38.1265C30.5211 39.5171 36.007 37.4775 36.007 37.4775C36.007 37.4775 32.1001 42.3639 25.2496 40.9592Z" fill="#8CADE0"/>
</svg>
