<svg width="204" height="55" viewBox="0 0 204 55" fill="none" xmlns="http://www.w3.org/2000/svg">
<rect width="204" height="55" rx="27.5" fill="#5090D6"/>
<path fill-rule="evenodd" clip-rule="evenodd" d="M41 32.3959C41 39.3569 34.9559 45 27.5 45C20.0441 45 14 39.3569 14 32.3959C14 25.6257 26.7698 7.03202 27.4701 6.01735C27.4861 5.99422 27.514 5.99422 27.5299 6.01735C28.2302 7.03202 41 25.6257 41 32.3959ZM25.2496 40.9592C18.399 39.5545 19.5713 32.4427 19.5713 32.4427C19.5713 32.4427 21.442 36.7358 25.9815 38.1265C30.5211 39.5171 36.007 37.4775 36.007 37.4775C36.007 37.4775 32.1001 42.3639 25.2496 40.9592Z" fill="#8CADE0"/>
<path d="M101.468 15.532L93.824 36H93.432L87.888 24.072L82.288 36.028H81.924L74.364 15.532H78.536L82.54 26.76L87.748 15.532H88L93.208 26.788L97.296 15.532H101.468ZM98.5182 36L108.99 15.532H109.382L119.854 36H115.598L114.002 32.78H104.342L102.774 36H98.5182ZM106.246 29.364H112.098L109.186 23.176L106.246 29.364ZM132.504 18.976H126.652V36H122.732V18.976H116.852V15.504H132.504V18.976ZM138.526 18.976V24.1H148.438V27.656H138.526V32.472H149.698V36H134.634V15.504H149.698V18.976H138.526ZM157.08 36H153.188V15.504H162.484C163.529 15.504 164.481 15.6813 165.34 16.036C166.217 16.372 166.964 16.8573 167.58 17.492C168.196 18.108 168.672 18.8547 169.008 19.732C169.362 20.5907 169.54 21.5333 169.54 22.56C169.54 24.1093 169.148 25.4627 168.364 26.62C167.598 27.7773 166.572 28.608 165.284 29.112C167.02 31.3893 168.728 33.6853 170.408 36H165.732C164.91 34.936 164.108 33.8627 163.324 32.78C162.54 31.6973 161.756 30.596 160.972 29.476H157.08V36ZM157.08 26.004H162.484C162.838 26.004 163.202 25.9387 163.576 25.808C163.968 25.6587 164.313 25.444 164.612 25.164C164.91 24.8653 165.153 24.5013 165.34 24.072C165.545 23.6427 165.648 23.1387 165.648 22.56C165.648 22.2613 165.61 21.9067 165.536 21.496C165.461 21.0853 165.312 20.6933 165.088 20.32C164.864 19.9467 164.546 19.6293 164.136 19.368C163.725 19.1067 163.174 18.976 162.484 18.976H157.08V26.004Z" fill="white"/>
</svg>
