<svg width="116" height="116" viewBox="0 0 116 116" fill="none" xmlns="http://www.w3.org/2000/svg">
<path d="M26.0852 73.0665C26.0632 73.0252 26.0412 72.9839 26.0193 72.9425C26.5391 72.9496 26.4236 72.4275 26.5858 72.1754C26.8914 71.7004 27.005 71.1048 27.2201 70.568C27.6289 69.5479 28.0662 68.5389 28.4668 67.5156C28.8181 66.6179 29.1267 65.7368 29.1113 64.7177C29.0522 60.8158 29.1089 56.9122 29.0746 53.0097C29.064 51.8068 29.339 50.5707 28.7631 49.4023C28.613 49.3985 28.6104 49.3727 28.6267 49.2153C28.639 49.0967 28.6011 48.9635 28.554 48.8499C28.3237 48.2951 28.0839 47.7441 27.8453 47.1928C27.7335 46.9344 27.6094 46.6811 27.5033 46.4204C27.1476 45.5471 26.7716 44.6806 26.4607 43.7915C26.3631 43.5126 26.2399 43.3027 26.061 43.145C26.1497 43.1627 26.197 43.1663 26.2442 43.1698C26.2163 43.1312 26.1883 43.0926 26.1603 43.054C25.7892 42.1437 25.4097 41.2368 25.0501 40.322C24.8231 39.7444 24.633 39.1524 24.4119 38.5723C24.3171 38.3238 24.1855 38.0893 24.0619 37.8301C23.9295 37.8434 23.9371 37.8266 23.9528 37.6721C23.9664 37.5389 23.9337 37.3879 23.8793 37.2631C23.6316 36.6944 23.3558 36.1377 23.1157 35.5659C22.9136 35.0847 22.7429 34.59 22.5658 34.0986C22.4366 33.7401 22.3248 33.3752 22.1953 33.0167C22.1136 32.7904 22.2791 32.4774 22.5246 32.4404C22.6395 32.4231 22.7592 32.4369 22.8767 32.4369C27.798 32.4369 32.7192 32.4376 37.6405 32.4342C37.8367 32.434 38.0329 32.3945 38.2324 32.3053C38.1577 32.2772 38.083 32.249 37.9799 32.2102C38.6616 31.8501 39.5347 31.8562 39.9375 31.0708C40.2398 31.1327 40.5125 31.1667 40.6506 30.7762C40.6858 30.6765 40.8968 30.6366 41.0293 30.5739C41.4602 30.3703 41.901 30.1856 42.3208 29.9616C42.6988 29.76 43.0542 29.5163 43.4142 29.2944C43.3741 29.2671 43.3214 29.231 43.2218 29.163C44.1306 28.7095 44.9907 28.2803 45.8403 27.8563C45.8357 27.8502 45.7897 27.7888 45.8094 27.8151C46.1368 27.6787 46.4519 27.5474 46.7915 27.4059C46.7208 27.339 46.6756 27.2962 46.6734 27.2941C47.1339 27.0654 47.609 26.8853 48.0194 26.6091C48.3968 26.3551 48.9962 26.3694 49.1345 25.8689C49.3787 25.7695 49.6366 25.7208 49.821 25.5776C50.2009 25.2825 50.5532 24.9485 50.8929 24.6067C51.0411 24.4575 51.1207 24.2424 51.2496 24.0708C51.3645 23.9179 51.5044 23.7837 51.6247 23.6507C51.4056 23.4643 51.5357 23.2862 51.7067 23.1865C51.9445 23.0479 52.0355 22.8138 52.1916 22.6204C52.3253 22.4547 52.5179 22.3375 52.6758 22.1895C52.7353 22.1338 52.7979 22.0574 52.8123 21.9815C52.919 21.4188 53.3121 21.0525 53.683 20.6659C53.9056 20.4338 54.2577 20.1982 54.2842 19.937C54.3195 19.5889 54.5604 19.4172 54.6891 19.1695C54.8993 18.7648 55.2244 18.4192 55.5058 18.0523C55.8157 17.6484 56.1379 17.2538 56.4381 16.8429C56.4979 16.7611 56.4575 16.6104 56.5095 16.5172C56.5522 16.4408 56.6635 16.4027 56.7779 16.4248C56.9726 16.11 57.121 15.7509 57.3713 15.4893C57.9518 14.8824 58.3244 14.8963 58.8166 15.6772C59.0453 16.0399 59.1997 16.5383 59.7224 16.6647C59.776 16.6776 59.8371 16.7699 59.8475 16.8332C59.9077 17.1993 60.057 17.4842 60.4184 17.5486C60.4094 17.6968 60.3469 17.8614 60.4034 17.9361C60.7781 18.4316 61.1935 18.8964 61.5662 19.3933C61.9819 19.9475 62.3896 20.511 62.7518 21.1005C62.8809 21.3107 63.1515 21.2883 63.2433 21.6111C63.3819 22.0985 63.6801 22.5825 64.0303 22.9551C64.3479 23.293 64.5471 23.733 64.8501 24.0096C65.1943 24.3236 65.3174 24.76 65.644 25.0342C66.006 25.3382 66.4391 25.5459 66.8702 25.7577C67.2146 25.9269 67.6991 25.9249 67.8592 26.4436C67.9156 26.6263 68.2258 26.8077 68.4451 26.8457C68.798 26.9069 68.9908 27.398 69.458 27.178C69.5528 27.1334 69.7922 27.4162 69.9752 27.5317C70.1032 27.6124 70.2488 27.6652 70.3234 27.774C70.3881 27.8587 70.4348 27.9804 70.5204 28.022C71.0268 28.2685 71.5422 28.4964 72.0262 28.7176C72.0136 28.7221 71.9397 28.7487 71.8481 28.7816C72.4581 29.1206 73.027 29.5286 73.6603 29.7623C74.2625 29.9845 74.7022 30.4024 75.218 30.7279C75.8232 31.1099 76.4384 31.4804 77.0738 31.8083C77.3795 31.9661 77.7415 32.0148 78.1119 32.1228C78.0619 32.192 78.0196 32.2506 77.9405 32.36C78.1426 32.3871 78.328 32.4336 78.5134 32.4337C83.3906 32.4377 88.2678 32.4369 93.145 32.4369C93.9492 32.4369 94.2292 32.9019 93.8582 33.6253C93.721 33.8927 93.5531 34.1468 93.4407 34.4237C93.2179 34.9731 93.0409 35.5412 92.8142 36.0888C92.4785 36.8995 92.1029 37.6936 91.7695 38.5051C91.5389 39.0662 91.3664 39.6511 91.1391 40.2137C90.9269 40.7387 90.6636 41.2429 90.4477 41.7665C90.3039 42.1152 90.2237 42.4901 90.0794 42.8386C89.8408 43.415 89.5659 43.9765 89.3211 44.5505C89.1885 44.8616 89.0955 45.1894 88.9686 45.5031C88.731 46.0906 88.4702 46.6689 88.2404 47.2593C87.9909 47.9002 87.85 48.5994 87.5109 49.1859C86.9345 50.1827 87.0981 51.2384 87.0949 52.2818C87.0812 56.7036 87.0825 61.1254 87.1006 65.5471C87.1022 65.9327 87.2205 66.3358 87.3643 66.6993C87.7678 67.7188 88.2238 68.7175 88.6377 69.7332C88.8774 70.3214 89.0627 70.9317 89.297 71.5223C89.5269 72.1018 89.7876 72.6691 90.0354 73.2416C90.3096 73.8751 90.5978 74.5029 90.8549 75.1433C91.065 75.6668 91.2251 76.2102 91.4309 76.7356C91.7452 77.5384 92.0839 78.3315 92.4045 79.1318C92.7331 79.9523 93.0488 80.7779 93.3775 81.5983C93.4928 81.8861 93.6299 82.1652 93.749 82.4304C93.7787 82.3823 93.8271 82.3041 93.8883 82.205C93.9162 82.534 93.9468 82.8178 93.9631 83.1025C93.9952 83.6655 93.9225 83.7394 93.358 83.7394C88.4367 83.7396 83.5155 83.7385 78.5942 83.7424C78.3135 83.7426 78.0864 83.7263 77.8483 84.055C77.6279 84.3592 77.0944 84.4286 76.7106 84.6246C76.321 84.8235 75.9386 85.0392 75.5674 85.2704C75.371 85.3927 75.2192 85.5868 75.0223 85.7078C74.6755 85.9209 74.3153 86.1145 73.95 86.2946C73.56 86.487 73.1577 86.6544 72.7104 86.8553C72.8251 86.8951 72.8918 86.9183 73.0011 86.9563C72.4415 87.3031 71.6362 87.2005 71.2489 87.9467C71.0441 88.0085 70.7316 88.0973 70.4246 88.2021C70.3829 88.2163 70.3686 88.3107 70.2908 88.4757C70.1375 88.5591 69.8639 88.7174 69.582 88.8593C69.1172 89.0934 68.6381 89.3007 68.1826 89.5513C67.9174 89.6972 67.6995 89.9276 67.4375 90.0809C66.906 90.3918 66.3445 90.6531 65.8256 90.9825C65.6161 91.1156 65.4724 91.3642 65.3235 91.5774C65.1543 91.8195 65.0566 92.1298 64.8458 92.3191C64.6643 92.4822 64.5055 92.5824 64.5984 92.8501C64.6016 92.8593 64.4509 92.9218 64.372 92.9595C64.3455 92.9176 64.3189 92.8758 64.2924 92.8339C63.9274 93.484 63.5854 94.1485 63.1882 94.7782C62.9785 95.1107 62.6762 95.3858 62.4087 95.6805C62.2579 95.8467 62.0681 95.9829 61.9418 96.1645C61.8377 96.3141 61.8107 96.5152 61.7317 96.6852C61.6602 96.8392 61.5646 96.982 61.4796 97.1297C61.4178 97.0919 61.3561 97.0541 61.2796 97.0072C60.8687 97.6116 60.4504 98.2522 60.0054 98.8738C59.6273 99.402 59.215 99.9057 58.8252 100.426C58.7052 100.586 58.649 100.829 58.4956 100.922C58.049 101.195 57.7153 101.139 57.3916 100.754C57.2342 100.567 57.1611 100.312 57.0257 100.103C56.9281 99.9526 56.7988 99.8197 56.6688 99.6943C56.4917 99.5234 56.3005 99.3672 56.0548 99.1516C56.2039 99.1213 56.2624 99.1095 56.3208 99.0976C56.2946 99.0491 56.2785 98.969 56.2406 98.9569C55.6653 98.773 55.5638 98.2353 55.3551 97.7802C55.1702 97.3773 54.9791 96.9858 54.5487 96.7784C54.4807 96.7456 54.4008 96.6606 54.3929 96.5921C54.3368 96.1041 53.9952 95.8417 53.664 95.5345C53.3792 95.2703 53.2005 94.8923 52.9711 94.5673C52.9129 94.4849 52.828 94.4202 52.7763 94.3347C52.5439 93.9511 52.3112 93.5674 52.0958 93.1742C52.0183 93.0327 51.5045 92.6013 51.3316 92.4235C51.123 92.2088 51.0292 91.8875 50.8469 91.641C50.6484 91.3726 50.4117 91.1311 50.1795 90.8895C50.0483 90.7529 49.9081 90.6105 49.7438 90.5246C49.5992 90.449 49.4113 90.4615 49.2501 90.4107C49.1107 90.3667 48.9561 90.3164 48.8533 90.2205C48.4487 89.8434 48.0788 89.4261 47.4717 89.3716C47.3908 89.3643 47.3206 89.2363 47.2455 89.1642C47.1697 89.0914 47.066 88.9417 47.0224 88.9575C46.5348 89.1349 46.3181 88.5421 45.8873 88.5659C45.8573 88.5675 45.8186 88.413 45.7839 88.331C45.8256 88.297 45.8672 88.2629 45.9089 88.2289C45.2981 88.0025 44.6873 87.776 43.9779 87.513C44.1613 87.4536 44.2333 87.4303 44.38 87.3828C43.9399 87.2517 43.5625 87.1392 43.1851 87.0268C43.191 86.9984 43.1968 86.9699 43.2026 86.9415C43.2686 86.9245 43.3346 86.9075 43.4506 86.8776C43.2824 86.7955 43.1462 86.7366 43.0176 86.664C42.8942 86.5943 42.7787 86.5104 42.6093 86.5053C42.6491 86.5413 42.6889 86.5773 42.7287 86.6132C42.719 86.6323 42.7093 86.6514 42.6996 86.6705C42.5984 86.6182 42.4946 86.5704 42.3965 86.5129C41.8733 86.2063 41.3505 85.899 40.8308 85.5864C40.7825 85.5573 40.76 85.4874 40.7211 85.4402C40.6407 85.3428 40.5638 85.172 40.474 85.1642C39.9095 85.1155 39.64 84.5975 39.1887 84.3942C38.84 84.2372 38.4405 84.1933 37.9646 84.0744C38.1109 83.9563 38.1598 83.9168 38.2758 83.8231C38.0342 83.7899 37.8508 83.7429 37.6674 83.7428C32.7314 83.7387 27.7955 83.7365 22.8595 83.7458C22.5046 83.7465 22.1945 83.703 22.1699 83.3027C22.1541 83.0463 22.2503 82.7711 22.3453 82.5231C22.4468 82.2578 22.6288 82.0238 22.7356 81.7599C23.1 80.8596 23.456 79.9556 23.7935 79.0449C23.8743 78.8268 23.8709 78.5774 23.9073 78.3351C23.8993 78.3337 23.9894 78.3504 24.0858 78.3683C24.1086 78.3411 24.1322 78.3234 24.1416 78.2999C24.3148 77.8669 24.4888 77.4341 24.6576 76.9993C24.8559 76.4888 25.0435 75.974 25.2465 75.4654C25.4915 74.8515 25.7515 74.2436 25.9963 73.6296C26.0536 73.4859 26.0758 73.3282 26.1558 73.1338C26.2094 73.0613 26.2214 73.032 26.2334 73.0027C26.184 73.024 26.1346 73.0452 26.0852 73.0665ZM79.0077 32.9409C78.5934 32.8929 78.1192 32.9583 77.7754 32.7768C76.4548 32.08 75.1779 31.3008 73.8813 30.5584C72.2939 29.6493 70.703 28.7462 69.0788 27.7922C67.9253 27.1248 66.7696 26.461 65.6207 25.7858C65.4485 25.6846 65.2732 25.5548 65.1582 25.3957C63.3818 22.9382 61.6188 20.471 59.8441 18.0122C59.2728 17.2208 58.6767 16.4473 58.0271 15.6728C57.9282 15.7997 57.825 15.9235 57.7312 16.0539C55.5043 19.1503 53.2798 22.2484 51.0482 25.3414C50.932 25.5025 50.7758 25.6533 50.6058 25.7538C49.5703 26.3657 48.5235 26.9584 47.4856 27.5661C47.3169 27.6648 47.1734 27.8065 46.9603 27.9252C46.8528 27.9706 46.739 28.005 46.6387 28.0628C44.6199 29.2248 42.6188 30.4189 40.5787 31.542C39.4761 32.1489 38.5112 33.1357 37.0111 32.956C36.9235 32.9489 36.8359 32.9356 36.7484 32.9355C32.2549 32.9345 27.7614 32.9345 23.2679 32.9355C23.1805 32.9355 23.0931 32.9491 22.9324 32.9386C22.6445 32.9303 22.7173 33.0892 22.7837 33.2522C23.5832 35.2142 24.3814 37.1767 25.2048 39.2001C26.6112 42.6834 28.0197 46.1658 29.4186 49.6521C29.5031 49.8628 29.543 50.1034 29.5491 50.3316C29.5733 51.2404 29.5759 52.1498 29.5622 53.1391C29.5597 56.3918 29.557 59.6445 29.556 62.8972C29.556 62.9692 29.5759 63.0411 29.5614 63.1917C29.559 64.0868 29.5629 64.982 29.5494 65.8769C29.5464 66.0766 29.515 66.2885 29.4414 66.4726C28.6302 68.5014 27.8043 70.5243 26.9901 72.5518C26.3895 74.0476 25.8003 75.5478 25.1673 77.0943C25.0381 77.4043 24.9047 77.7126 24.7802 78.0244C24.1261 79.6643 23.4742 81.305 22.7785 83.0035C22.6849 83.4497 23.0401 83.2283 23.167 83.2287C27.6526 83.2412 32.1383 83.2396 36.624 83.2376C36.7839 83.2375 36.9438 83.213 37.1844 83.2183C37.5712 83.2579 38.0183 83.1855 38.3344 83.356C39.8537 84.1754 41.3363 85.0625 42.8343 85.9214C44.2422 86.7286 45.653 87.5307 47.1006 88.3814C48.2546 89.0507 49.4114 89.7151 50.5595 90.3943C50.7424 90.5024 50.919 90.6531 51.0427 90.8244C53.0852 93.6533 55.116 96.4906 57.1572 99.3205C57.4522 99.7294 57.787 100.11 58.1584 100.478C58.1962 100.434 58.2373 100.391 58.2714 100.344C60.2905 97.5316 62.3047 94.716 64.3311 91.9093C64.8234 91.2273 65.247 90.5035 66.0691 90.0931C67.1143 89.5714 68.0972 88.9246 69.1706 88.3275C71.6466 86.903 74.1295 85.4902 76.5947 84.0471C77.3959 83.578 78.1699 83.0882 79.2358 83.2403C83.9629 83.2403 88.69 83.2403 93.4789 83.2403C93.413 83.0952 93.379 83.0205 93.3455 82.881C93.0842 82.2302 92.8279 81.5774 92.5607 80.929C92.0155 79.6058 91.4645 78.2849 90.9124 76.8925C90.8778 76.7962 90.8466 76.6987 90.8083 76.6039C89.4603 73.2643 88.1089 69.9259 86.7691 66.5829C86.6743 66.3462 86.631 66.0763 86.6221 65.8198C86.5909 64.914 86.5851 64.0072 86.5733 63.02C86.5712 59.7043 86.5692 56.3886 86.5922 53.0035C86.5996 52.1093 86.6016 51.2149 86.6186 50.3209C86.6224 50.1202 86.6429 49.9062 86.7162 49.7225C87.6025 47.5032 88.5034 45.2898 89.3934 43.072C89.9061 41.7945 90.406 40.5118 90.9511 39.1872C91.7914 37.1265 92.6318 35.0659 93.4914 32.958C93.3346 32.958 93.2526 32.958 93.0901 32.937C88.5259 32.9358 83.9617 32.9343 79.3975 32.9344C79.2957 32.9344 79.1939 32.9525 79.0077 32.9409Z" fill="#FAFAF9"/>
<path d="M87.441 54.4741C87.441 58.4302 87.441 62.3421 87.441 66.2541C87.4183 66.254 87.3955 66.2539 87.3728 66.2539C87.3728 60.8113 87.3728 55.3687 87.3728 49.9261C87.3955 49.9259 87.4183 49.9257 87.441 49.9255C87.441 51.427 87.441 52.9285 87.441 54.4741Z" fill="#FEFEFE"/>
<path d="M28.7354 65.0511C28.7354 59.9587 28.7354 54.9102 28.7354 49.8617C28.7552 49.8617 28.775 49.8617 28.7948 49.8617C28.7948 55.346 28.7948 60.8303 28.7948 66.3146C28.775 66.3155 28.7552 66.3164 28.7354 66.3173C28.7354 65.9099 28.7354 65.5025 28.7354 65.0511Z" fill="#FFFEFE"/>
<path d="M58.0918 15.6655C58.6765 16.4472 59.2727 17.2207 59.8439 18.0121C61.6186 20.4709 63.3816 22.9381 65.158 25.3956C65.2731 25.5547 65.4484 25.6846 65.6205 25.7857C66.7694 26.461 67.9251 27.1247 69.0827 27.847C68.6863 29.0004 68.2877 30.0997 67.8847 31.1973C67.3961 32.5281 66.8941 33.8541 66.416 35.1886C66.0071 36.33 65.6238 37.4805 65.2037 38.6466C63.2869 39.128 61.3977 39.5987 59.5025 40.0437C59.1626 40.1235 59.0876 40.2566 59.1537 40.5845C59.5502 42.5503 59.9507 44.5157 60.3035 46.4896C60.4131 47.1029 60.6313 47.5512 61.2403 47.7711C61.4138 47.8337 61.5605 47.9704 61.713 48.1101C61.3162 49.2137 60.9259 50.2803 60.5041 51.3408C59.6797 50.8801 58.8868 50.4256 58.0933 49.9302C58.0924 38.4814 58.0921 27.0735 58.0918 15.6655Z" fill="#FCD701"/>
<path d="M69.1069 88.3316C68.0972 88.9245 67.1143 89.5714 66.069 90.0931C65.247 90.5035 64.8234 91.2273 64.331 91.9092C62.3046 94.716 60.2905 97.5316 58.2713 100.344C58.2372 100.391 58.1962 100.434 58.1272 100.448C58.0941 100.3 58.0906 100.183 58.0906 100.065C58.0909 88.7774 58.0915 77.4895 58.1189 66.1876C58.9381 65.736 59.7303 65.2984 60.5394 64.8906C60.9385 65.9758 61.3207 67.0311 61.6897 68.1118C61.4248 68.2877 61.1835 68.4608 60.9188 68.583C60.5747 68.7417 60.4444 68.9955 60.376 69.3602C59.9929 71.4049 59.5869 73.4453 59.1799 75.4854C59.07 76.0364 59.0594 76.019 59.5936 76.1484C61.4714 76.6036 63.3464 77.0697 65.2214 77.5678C66.5158 81.1798 67.8114 84.7557 69.1069 88.3316Z" fill="#A59D90"/>
<path d="M58.0593 15.6692C58.092 27.0735 58.0923 38.4815 58.0664 49.9459C57.2325 50.4524 56.4248 50.9024 55.6149 51.3154C55.2229 50.2197 54.8329 49.161 54.4636 48.0799C54.7481 47.8987 55.0023 47.7199 55.2785 47.5865C55.597 47.4326 55.7521 47.217 55.8126 46.8551C55.9796 45.8568 56.1989 44.8673 56.3935 43.8735C56.6327 42.6527 56.8678 41.4311 57.1088 40.1884C56.9696 40.1402 56.8639 40.0939 56.7535 40.0668C55.8412 39.843 54.9264 39.6294 54.0156 39.3998C52.9929 39.1419 51.9736 38.8705 50.9529 38.5707C50.9405 38.4793 50.9343 38.4199 50.9145 38.3654C49.7622 35.1805 48.6115 31.995 47.4508 28.8131C47.3389 28.5064 47.1638 28.2227 47.0181 27.9283C47.1732 27.8065 47.3167 27.6648 47.4854 27.566C48.5233 26.9583 49.5701 26.3656 50.6056 25.7537C50.7756 25.6532 50.9318 25.5024 51.0479 25.3414C53.2796 22.2484 55.5041 19.1503 57.731 16.0539C57.8248 15.9234 57.928 15.7997 58.0593 15.6692Z" fill="#C6883D"/>
<path d="M58.0919 66.2015C58.0913 77.4894 58.0907 88.7774 58.0904 100.065C58.0904 100.183 58.0939 100.3 58.0995 100.46C57.7868 100.109 57.452 99.7293 57.1571 99.3204C55.1159 96.4906 53.085 93.6533 51.0425 90.8244C50.9188 90.6531 50.7422 90.5024 50.5594 90.3942C49.4112 89.715 48.2544 89.0506 47.0886 88.3263C47.1457 88.145 47.2321 88.0251 47.2806 87.8915C47.5999 87.0113 47.9064 86.1264 48.2257 85.2462C48.9091 83.3621 49.6038 81.482 50.2811 79.5957C50.5221 78.9247 50.726 78.2404 50.9757 77.5467C52.8834 77.0662 54.7602 76.5926 56.643 76.1443C56.9936 76.0608 57.1254 75.9603 57.0431 75.566C56.6743 73.8003 56.2906 72.0353 56.0116 70.2544C55.8604 69.2893 55.5758 68.519 54.5831 68.182C54.5704 68.1777 54.5612 68.1629 54.5527 68.1156C54.5918 67.9098 54.6128 67.736 54.6681 67.5739C54.9822 66.6536 55.3045 65.736 55.6567 64.8248C56.4903 65.2886 57.2911 65.7451 58.0919 66.2015Z" fill="#4BAEC6"/>
<path d="M29.5864 53.0589C29.5758 52.1497 29.5732 51.2403 29.5489 50.3315C29.5429 50.1033 29.503 49.8627 29.4184 49.652C28.0195 46.1657 26.611 42.6833 25.2258 39.1719C26.0366 39.5691 26.8356 39.9779 27.6133 40.424C28.4572 40.908 29.276 41.4355 30.1152 41.928C31.4244 42.6963 32.7407 43.4525 34.0556 44.211C36.0282 45.3491 38.0026 46.484 39.9753 47.6217C41.3877 48.4363 42.7976 49.2554 44.2106 50.069C46.5004 51.3874 48.7918 52.703 51.0795 54.0541C51.0659 55.0067 51.0555 55.9249 51.0093 56.8402C49.8541 56.6406 48.7346 56.4439 47.6049 56.2064C47.5928 55.8722 47.5629 55.5756 47.5959 55.2861C47.6391 54.9077 47.4916 54.6663 47.2074 54.4265C46.1766 53.5565 45.1686 52.6597 44.1509 51.7742C43.4689 51.1808 42.7852 50.5893 42.1054 49.9997C41.8623 50.2347 41.6466 50.4316 41.444 50.641C40.2006 51.926 38.9601 53.2139 37.6832 54.4924C34.9606 54.0089 32.2735 53.5339 29.5864 53.0589Z" fill="#2ECC28"/>
<path d="M25.2058 77.046C25.8001 75.5477 26.3894 74.0474 26.99 72.5517C27.8042 70.5242 28.6301 68.5013 29.4413 66.4725C29.5149 66.2884 29.5462 66.0765 29.5492 65.8768C29.5627 64.9819 29.5589 64.0867 29.6068 63.1514C29.7656 63.0855 29.8781 63.0548 29.9924 63.0347C32.0286 62.6779 34.0662 62.3283 36.1007 61.9623C36.6239 61.8681 37.1379 61.7229 37.6822 61.6134C39.1616 63.1442 40.615 64.6627 42.0825 66.1959C43.6299 64.8505 45.1011 63.5074 46.6465 62.2559C47.3587 61.6792 47.767 61.0766 47.5927 60.1522C47.5798 60.0839 47.6068 60.008 47.6503 59.9345C48.8048 59.7556 49.9244 59.5777 51.0546 59.4408C51.0741 60.3777 51.0828 61.2738 51.0578 62.1832C50.8798 62.2687 50.7313 62.3336 50.5919 62.4141C46.0771 65.0225 41.5636 67.6329 37.0492 70.2419C34.2342 71.8688 31.4195 73.4962 28.6018 75.1184C27.4738 75.7678 26.338 76.4038 25.2058 77.046Z" fill="#375D9D"/>
<path d="M90.9116 39.2314C90.406 40.5118 89.9061 41.7944 89.3934 43.0719C88.5033 45.2897 87.6024 47.5032 86.7162 49.7225C86.6428 49.9062 86.6224 50.1202 86.6186 50.3209C86.6016 51.2149 86.5996 52.1092 86.5431 53.0384C85.156 53.309 83.8172 53.5399 82.4803 53.7815C81.1579 54.0204 79.8376 54.2702 78.49 54.5006C77.3143 53.2934 76.1647 52.1013 75.0161 50.9082C74.7238 50.6046 74.4346 50.2979 74.1346 49.9827C73.9985 50.0935 73.9073 50.1638 73.8205 50.2392C72.4264 51.4516 71.0634 52.7025 69.6266 53.862C68.8847 54.4607 68.3991 55.0792 68.6035 56.0709C68.6146 56.1252 68.591 56.1867 68.5473 56.2462C67.3917 56.4448 66.2725 56.6419 65.1441 56.7995C65.132 55.8531 65.129 54.9462 65.1538 54.0257C65.2539 53.9617 65.3227 53.9058 65.3986 53.8621C68.3681 52.1542 71.3408 50.4517 74.3076 48.7392C76.8431 47.2757 79.3706 45.7983 81.9044 44.3319C84.3878 42.8947 86.8724 41.4596 89.3619 40.0331C89.866 39.7442 90.3944 39.4976 90.9116 39.2314Z" fill="#EC3F4D"/>
<path d="M86.5696 63.1007C86.5851 64.0071 86.5909 64.9139 86.6221 65.8198C86.631 66.0763 86.6743 66.3462 86.7692 66.5829C88.1089 69.9259 89.4603 73.2642 90.8083 76.6039C90.8466 76.6986 90.8779 76.7962 90.8791 76.9227C90.5482 76.7963 90.2447 76.6497 89.9537 76.4815C86.1067 74.2568 82.2626 72.0269 78.4153 69.8027C73.9838 67.2407 69.5496 64.6831 65.1208 62.0838C65.1337 61.1406 65.1423 60.237 65.1857 59.3348C66.3419 59.5343 67.4634 59.7323 68.5917 59.971C68.603 60.3052 68.629 60.6005 68.6064 60.892C68.5775 61.2642 68.7175 61.5164 69.0039 61.7543C69.7939 62.4107 70.5589 63.0974 71.3338 63.7721C72.25 64.5696 73.1662 65.367 73.9953 66.0887C74.6245 65.5137 75.2372 64.99 75.808 64.4241C76.7243 63.5156 77.6129 62.5792 78.5493 61.6684C81.2467 62.155 83.9082 62.6278 86.5696 63.1007Z" fill="#9433AF"/>
<path d="M37.1035 83.1998C36.9436 83.2129 36.7838 83.2375 36.6239 83.2375C32.1382 83.2396 27.6525 83.2412 23.1669 83.2286C23.04 83.2283 22.6848 83.4496 22.8345 82.9743C23.0116 82.9064 23.1514 82.8944 23.2505 82.8246C24.7302 81.7818 26.2063 80.7338 27.6797 79.6821C29.7233 78.2234 31.7596 76.7545 33.807 75.3012C36.2713 73.5521 38.7425 71.8127 41.2138 70.0735C41.8917 69.5964 42.5806 69.1349 43.2809 68.6957C43.6243 69.8346 43.9578 70.9422 44.2757 72.0543C44.4642 72.7139 44.6281 73.3804 44.7736 74.053C43.8502 75.1042 42.9498 76.1409 42.064 77.1898C40.7437 78.7532 39.4305 80.3225 38.1215 81.8953C37.7688 82.319 37.4422 82.7644 37.1035 83.1998Z" fill="#13ABD1"/>
<path d="M23.0056 32.9564C23.093 32.9491 23.1805 32.9354 23.2679 32.9354C27.7614 32.9344 32.2548 32.9345 36.7483 32.9355C36.8359 32.9355 36.9234 32.9489 37.0562 32.9979C37.404 33.4144 37.7011 33.7936 38.0103 34.1627C39.6526 36.1232 41.2937 38.0846 42.9443 40.0381C43.5461 40.7503 44.1727 41.4416 44.7915 42.1777C44.7591 42.3504 44.7264 42.4888 44.6866 42.625C44.2194 44.2245 43.7511 45.8237 43.2501 47.4225C43.0722 47.3586 42.9119 47.3173 42.7852 47.2282C42.0439 46.707 41.3118 46.1727 40.5741 45.6463C37.1829 43.2265 33.7949 40.8021 30.3977 38.3906C28.0379 36.7155 25.6631 35.0614 23.3025 33.3874C23.1689 33.2926 23.103 33.1023 23.0056 32.9564Z" fill="#C2D501"/>
<path d="M93.3449 82.9457C93.3789 83.0204 93.4129 83.0951 93.4788 83.2402C88.6899 83.2402 83.9628 83.2402 79.1924 83.1982C79.132 83.1163 79.1236 83.0689 79.0966 83.0375C78.1056 81.8879 77.1047 80.7466 76.1226 79.5894C75.0932 78.3763 74.0545 77.1694 73.0726 75.9184C72.5091 75.2005 71.7133 74.6394 71.4714 73.652C71.9901 71.8434 72.5122 70.0699 73.0638 68.3159C73.1314 68.7302 73.375 68.9557 73.6902 69.1729C74.5929 69.795 75.4661 70.4595 76.3598 71.0949C79.3156 73.1962 82.2759 75.2912 85.2334 77.3902C87.7379 79.1676 90.2391 80.9498 92.7488 82.7198C92.917 82.8384 93.1448 82.8724 93.3449 82.9457Z" fill="#402A3A"/>
<path d="M79.092 32.9621C79.1938 32.9524 79.2956 32.9343 79.3975 32.9343C83.9617 32.9342 88.5259 32.9357 93.1276 32.9795C93.0805 33.1344 93.0169 33.2756 92.9081 33.3547C91.9634 34.0421 91.013 34.7218 90.0596 35.3973C87.2223 37.4078 84.3834 39.416 81.5442 41.4238C78.9076 43.2883 76.2649 45.1442 73.64 47.025C73.3663 47.2211 73.149 47.3307 72.8248 47.1487C72.7597 46.9703 72.712 46.817 72.6678 46.6626C72.2389 45.1616 71.8105 43.6604 71.4097 42.1445C72.0516 41.4259 72.6762 40.7307 73.2781 40.0164C74.7733 38.2418 76.2625 36.4621 77.7449 34.6768C78.2091 34.1178 78.6438 33.5344 79.092 32.9621Z" fill="#FC5816"/>
<path d="M71.4748 73.6869C71.7133 74.6394 72.5091 75.2005 73.0725 75.9184C74.0544 77.1694 75.0931 78.3763 76.1226 79.5894C77.1046 80.7466 78.1055 81.8879 79.0965 83.0375C79.1236 83.0689 79.132 83.1163 79.1523 83.1872C78.1697 83.0881 77.3957 83.578 76.5945 84.047C74.1293 85.4901 71.6464 86.9029 69.1386 88.3295C67.8112 84.7556 66.5157 81.1797 65.2588 77.5683C66.8546 77.9083 68.4118 78.284 69.9729 78.6605C70.0164 78.5282 70.0404 78.4599 70.0613 78.3906C70.5327 76.8228 71.0037 75.2548 71.4748 73.6869Z" fill="#302927"/>
<path d="M44.788 42.1425C44.1727 41.4417 43.5461 40.7504 42.9443 40.0381C41.2938 38.0846 39.6526 36.1232 38.0103 34.1627C37.7011 33.7936 37.404 33.4144 37.0947 33.0099C38.5112 33.1357 39.476 32.1489 40.5786 31.5419C42.6188 30.4189 44.6199 29.2248 46.6386 28.0627C46.739 28.005 46.8528 27.9705 46.9893 27.9268C47.164 28.2227 47.3391 28.5064 47.451 28.8131C48.6117 31.995 49.7623 35.1805 50.9147 38.3654C50.9344 38.4199 50.9407 38.4793 50.9165 38.5746C50.7793 38.5956 50.6774 38.5842 50.5785 38.5602C49.2557 38.2385 47.9327 37.9175 46.6113 37.5898C46.3677 37.5294 46.1958 37.5282 46.1122 37.8292C45.8225 38.8732 45.5203 39.9139 45.2088 40.9517C45.0879 41.3544 44.9294 41.7459 44.788 42.1425Z" fill="#CBC694"/>
<path d="M37.144 83.2091C37.4423 82.7645 37.769 82.3191 38.1217 81.8954C39.4307 80.3226 40.7439 78.7532 42.0641 77.1899C42.95 76.1409 43.8503 75.1043 44.7961 74.0735C45.1995 75.2467 45.563 76.405 45.8989 77.5713C46.2222 78.6937 46.2064 78.6841 47.3192 78.4099C48.5249 78.1129 49.7375 77.8437 50.947 77.5623C50.7262 78.2405 50.5223 78.9248 50.2813 79.5958C49.604 81.4821 48.9093 83.3622 48.2259 85.2463C47.9066 86.1265 47.6001 87.0114 47.2808 87.8916C47.2323 88.0252 47.1459 88.1451 47.0698 88.3032C45.653 87.5307 44.2422 86.7286 42.8343 85.9214C41.3363 85.0625 39.8537 84.1754 38.3345 83.356C38.0183 83.1855 37.5712 83.2579 37.144 83.2091Z" fill="#6DC6E0"/>
<path d="M79.0498 32.9515C78.6438 33.5344 78.209 34.1178 77.7449 34.6768C76.2625 36.4621 74.7733 38.2418 73.278 40.0164C72.6761 40.7307 72.0516 41.4259 71.3891 42.1174C70.8894 40.5823 70.438 39.0596 69.9797 37.5132C69.5671 37.6109 69.2131 37.6955 68.8587 37.7784C67.649 38.0616 66.4391 38.3442 65.2292 38.627C65.6239 37.4806 66.0072 36.33 66.416 35.1886C66.8941 33.8541 67.3961 32.5281 67.8847 31.1973C68.2878 30.0997 68.6864 29.0005 69.1002 27.8712C70.7029 28.7462 72.2938 29.6493 73.8812 30.5583C75.1778 31.3008 76.4548 32.0799 77.7753 32.7767C78.1192 32.9582 78.5933 32.8929 79.0498 32.9515Z" fill="#FCAB01"/>
<path d="M72.8438 47.1733C73.1491 47.3307 73.3663 47.2211 73.64 47.025C76.2649 45.1442 78.9076 43.2883 81.5442 41.4238C84.3834 39.416 87.2223 37.4078 90.0597 35.3973C91.013 34.7218 91.9634 34.0422 92.9081 33.3548C93.0169 33.2756 93.0805 33.1345 93.1678 32.99C93.2526 32.958 93.3345 32.958 93.4914 32.958C92.6318 35.0659 91.7914 37.1265 90.9313 39.2093C90.3944 39.4976 89.866 39.7442 89.3619 40.0331C86.8724 41.4596 84.3878 42.8947 81.9044 44.3319C79.3706 45.7983 76.8431 47.2757 74.3076 48.7392C71.3408 50.4517 68.3681 52.1542 65.3986 53.8621C65.3227 53.9058 65.2539 53.9618 65.1285 54.0108C64.8327 53.8683 64.5903 53.7271 64.3538 53.5545C64.6841 53.325 65.0211 53.1448 65.3307 52.9259C66.7792 51.902 68.2231 50.8714 69.6585 49.8292C69.7738 49.7455 69.8125 49.5565 69.9074 49.3921C70.9874 49.0055 72.0467 48.6432 73.1153 48.2777C73.0163 47.8749 72.9301 47.5241 72.8438 47.1733Z" fill="#FB4311"/>
<path d="M93.3451 82.9134C93.1448 82.8724 92.9169 82.8385 92.7488 82.7199C90.239 80.9498 87.7378 79.1677 85.2333 77.3902C82.2758 75.2913 79.3155 73.1962 76.3597 71.0949C75.466 70.4596 74.5928 69.795 73.6902 69.173C73.3749 68.9557 73.1313 68.7302 73.0687 68.2798C73.1606 67.9805 73.0737 67.8727 72.821 67.7894C72.1636 67.5726 71.5172 67.3225 70.8747 67.0594C70.8634 66.9904 70.8558 66.9265 70.8228 66.9083C70.446 66.7 70.0464 66.527 69.6896 66.2895C68.9882 65.8227 68.307 65.3251 67.6229 64.8327C66.5728 64.0768 65.5274 63.3145 64.498 62.5306C64.7162 62.3787 64.9163 62.2511 65.1164 62.1235C69.5494 64.6831 73.9835 67.2407 78.4151 69.8027C82.2624 72.0269 86.1064 74.2568 89.9535 76.4814C90.2445 76.6497 90.548 76.7963 90.8807 76.958C91.4643 78.2849 92.0153 79.6057 92.5605 80.9289C92.8276 81.5773 93.084 82.2302 93.3451 82.9134Z" fill="#54374C"/>
<path d="M22.969 32.9475C23.1031 33.1022 23.1689 33.2926 23.3026 33.3873C25.6632 35.0613 28.0379 36.7155 30.3978 38.3906C33.795 40.802 37.1829 43.2264 40.5741 45.6463C41.3118 46.1727 42.0439 46.7069 42.7853 47.2281C42.912 47.3172 43.0723 47.3585 43.2517 47.456C43.1929 47.7367 43.0994 47.9834 43.0041 48.2349C44.1286 48.6372 45.2017 49.0211 46.2754 49.4359C46.3442 49.5832 46.3859 49.7343 46.4851 49.8103C46.993 50.1992 47.5133 50.5721 48.0337 50.9444C49.1346 51.7321 50.2413 52.5118 51.3363 53.3078C51.446 53.3875 51.4911 53.5561 51.5404 53.6977C51.3707 53.8146 51.2267 53.9172 51.0827 54.0198C48.792 52.703 46.5005 51.3875 44.2107 50.069C42.7977 49.2554 41.3879 48.4363 39.9754 47.6217C38.0027 46.484 36.0283 45.3491 34.0558 44.2111C32.7409 43.4525 31.4246 42.6963 30.1154 41.928C29.2762 41.4355 28.4574 40.908 27.6135 40.424C26.8358 39.978 26.0367 39.5691 25.2136 39.1414C24.3814 37.1766 23.5832 35.2141 22.7837 33.2521C22.7173 33.0892 22.6445 32.9302 22.969 32.9475Z" fill="#B8CF02"/>
<path d="M43.2646 68.6662C42.5807 69.1349 41.8918 69.5963 41.2139 70.0734C38.7426 71.8127 36.2714 73.552 33.8071 75.3012C31.7598 76.7545 29.7235 78.2234 27.6799 79.682C26.2064 80.7337 24.7303 81.7817 23.2506 82.8246C23.1515 82.8944 23.0117 82.9064 22.8562 82.9453C23.4742 81.3049 24.1261 79.6642 24.7803 78.0243C24.9047 77.7124 25.0381 77.4041 25.1867 77.0701C26.3382 76.4038 27.4739 75.7678 28.602 75.1184C31.4197 73.4962 34.2343 71.8688 37.0494 70.2419C41.5637 67.6329 46.0773 65.0225 50.592 62.4141C50.7314 62.3336 50.88 62.2687 51.0854 62.1967C51.3342 62.3136 51.5218 62.4304 51.6795 62.5647C51.3281 62.832 51.0168 63.0964 50.6834 63.3292C49.0513 64.4689 47.4124 65.5989 45.7809 66.7395C45.7147 66.7857 45.6989 66.9041 45.6328 67.0074C44.7701 67.3165 43.9342 67.607 43.0873 67.9014C43.1539 68.1891 43.2093 68.4277 43.2646 68.6662Z" fill="#19B7D7"/>
<path d="M37.6562 61.6012C37.1379 61.723 36.6239 61.8682 36.1007 61.9624C34.0662 62.3284 32.0287 62.6779 29.9924 63.0348C29.8781 63.0549 29.7656 63.0856 29.6193 63.1122C29.5758 63.0411 29.5559 62.9691 29.5559 62.8972C29.5569 59.6445 29.5596 56.3918 29.5743 53.099C32.2736 53.5339 34.9607 54.009 37.6732 54.5176C36.583 55.7268 35.4672 56.9023 34.347 58.0826C35.4718 59.2785 36.564 60.4398 37.6562 61.6012Z" fill="#0171B9"/>
<path d="M86.5714 63.0604C83.9081 62.6279 81.2467 62.155 78.5595 61.6425C79.6331 60.4359 80.7325 59.2689 81.8412 58.092C81.5033 57.7224 81.2105 57.3967 80.9119 57.0764C80.1147 56.2215 79.315 55.3688 78.5164 54.5153C79.8376 54.2702 81.1579 54.0205 82.4803 53.7815C83.8172 53.5399 85.156 53.309 86.5306 53.0731C86.5692 56.3885 86.5712 59.7043 86.5714 63.0604Z" fill="#EF96CE"/>
<path d="M26.1028 73.0817C26.1344 73.0451 26.1838 73.0238 26.2332 73.0026C26.2212 73.0319 26.2092 73.0612 26.1779 73.1075C26.1459 73.1153 26.1332 73.1062 26.1028 73.0817Z" fill="black"/>
<path d="M26.1407 43.067C26.1881 43.0925 26.2161 43.1311 26.2441 43.1697C26.1968 43.1662 26.1495 43.1627 26.0938 43.1346C26.0973 43.1001 26.1093 43.0901 26.1407 43.067Z" fill="black"/>
<path d="M51.7095 62.5473C51.5218 62.4304 51.3341 62.3136 51.1191 62.1833C51.0829 61.2738 51.0742 60.3778 51.0647 59.4017C51.0576 58.4955 51.0514 57.6693 51.0452 56.8431C51.0556 55.9249 51.0661 55.0067 51.0797 54.0541C51.2267 53.9172 51.3707 53.8146 51.5725 53.7017C52.2595 53.3093 52.8887 52.9271 53.5498 52.5448C54.2603 52.1472 54.9388 51.7497 55.6173 51.3523C56.425 50.9023 57.2327 50.4523 58.0673 49.9867C58.887 50.4256 59.6799 50.8801 60.5237 51.3615C61.2978 51.8007 62.021 52.2132 62.7654 52.6481C63.307 52.9756 63.8274 53.2808 64.3478 53.5859C64.5903 53.7271 64.8328 53.8683 65.1006 54.0244C65.129 54.9462 65.1321 55.853 65.1374 56.8415C65.1434 57.7265 65.1472 58.53 65.151 59.3335C65.1423 60.237 65.1337 61.1405 65.1209 62.0838C64.9165 62.2511 64.7165 62.3787 64.4683 62.5351C63.8658 62.8915 63.3115 63.2191 62.7258 63.5494C61.9705 63.9884 61.2466 64.4245 60.5226 64.8606C59.7304 65.2983 58.9381 65.736 58.119 66.1876C57.2913 65.7451 56.4905 65.2886 55.6401 64.8046C54.9076 64.3969 54.2248 64.0169 53.5214 63.6121C52.9037 63.2407 52.3066 62.894 51.7095 62.5473Z" fill="#FEFEFE"/>
<path d="M72.8247 47.1487C72.9299 47.524 73.0162 47.8748 73.1152 48.2776C72.0466 48.6431 70.9873 49.0054 69.8727 49.3963C68.734 49.7913 67.6545 50.1701 66.5636 50.5123C66.3706 50.5729 66.1103 50.5285 65.9153 50.4489C65.5655 50.3061 65.2417 50.0997 64.8904 49.8966C63.8223 49.2732 62.7709 48.6732 61.7195 48.0731C61.5605 47.9704 61.4137 47.8337 61.2403 47.7711C60.6313 47.5512 60.4131 47.1029 60.3034 46.4896C59.9507 44.5157 59.5502 42.5502 59.1537 40.5845C59.0876 40.2566 59.1626 40.1234 59.5024 40.0437C61.3977 39.5987 63.2869 39.128 65.2036 38.6465C66.439 38.3442 67.6489 38.0616 68.8586 37.7784C69.213 37.6954 69.567 37.6109 69.9796 37.5132C70.4379 39.0595 70.8893 40.5823 71.3613 42.1321C71.8104 43.6604 72.2387 45.1615 72.6677 46.6625C72.7118 46.8169 72.7596 46.9703 72.8247 47.1487Z" fill="#FFFEFD"/>
<path d="M61.7131 48.1101C62.7711 48.6732 63.8225 49.2732 64.8755 49.9278C64.514 50.4187 64.1458 50.8509 63.7893 51.2926C63.4348 51.732 63.0921 52.1809 62.7442 52.6256C62.021 52.2131 61.2978 51.8007 60.5552 51.3675C60.926 50.2803 61.3163 49.2137 61.7131 48.1101Z" fill="#FCAB03"/>
<path d="M70.8665 67.0857C71.5173 67.3225 72.1637 67.5726 72.8211 67.7894C73.0737 67.8727 73.1606 67.9806 73.0392 68.2602C72.5121 70.0699 71.9901 71.8435 71.4714 73.652C71.0037 75.2549 70.5327 76.8228 70.0613 78.3906C70.0405 78.4599 70.0164 78.5283 69.973 78.6606C68.4119 78.284 66.8547 77.9084 65.2599 77.5322C63.3463 77.0697 61.4712 76.6036 59.5935 76.1484C59.0593 76.0189 59.0699 76.0364 59.1798 75.4854C59.5868 73.4452 59.9928 71.4048 60.3759 69.3602C60.4443 68.9955 60.5746 68.7417 60.9187 68.5829C61.1834 68.4608 61.4247 68.2877 61.7232 68.1093C62.8157 67.4739 63.8612 66.8665 64.9392 66.2558C65.1753 66.1369 65.4005 66.0475 65.5784 65.9007C66.0174 65.5383 66.4489 65.5824 66.9583 65.7676C68.2501 66.237 69.5624 66.6501 70.8665 67.0857Z" fill="#FEFEFE"/>
<path d="M64.9068 66.2592C63.8612 66.8665 62.8157 67.4739 61.7364 68.0838C61.3206 67.0311 60.9384 65.9758 60.5393 64.8906C61.2464 64.4245 61.9704 63.9884 62.7376 63.5775C62.8646 63.7213 62.942 63.845 63.0332 63.9576C63.6561 64.7261 64.2819 65.4922 64.9068 66.2592Z" fill="#302927"/>
<path d="M46.2748 49.405C45.2017 49.0211 44.1286 48.6372 43.0042 48.2349C43.0994 47.9834 43.1929 47.7367 43.2847 47.4565C43.7512 45.8236 44.2194 44.2245 44.6867 42.625C44.7265 42.4887 44.7591 42.3503 44.7916 42.1777C44.9294 41.7458 45.0879 41.3544 45.2088 40.9516C45.5204 39.9139 45.8225 38.8731 46.1123 37.8291C46.1958 37.5282 46.3677 37.5293 46.6114 37.5897C47.9327 37.9175 49.2557 38.2385 50.5785 38.5601C50.6774 38.5842 50.7794 38.5955 50.9164 38.6088C51.9738 38.8704 52.9931 39.1418 54.0158 39.3997C54.9266 39.6294 55.8414 39.843 56.7537 40.0667C56.8641 40.0938 56.9698 40.1401 57.109 40.1883C56.868 41.4311 56.6328 42.6526 56.3937 43.8734C56.1991 44.8672 55.9798 45.8567 55.8128 46.8551C55.7523 47.217 55.5972 47.4325 55.2787 47.5864C55.0025 47.7199 54.7483 47.8986 54.4348 48.0884C53.5315 48.6055 52.6749 49.0867 51.8262 49.5815C51.6601 49.6784 51.5247 49.828 51.3416 49.9509C51.0347 50.0804 50.7346 50.176 50.494 50.3527C50.1296 50.6203 49.7985 50.5977 49.3918 50.4499C48.3623 50.0756 47.315 49.7501 46.2748 49.405Z" fill="#FFFEFE"/>
<path d="M51.375 49.9533C51.5246 49.828 51.66 49.6784 51.8262 49.5816C52.6748 49.0867 53.5314 48.6055 54.4142 48.111C54.8331 49.161 55.223 50.2197 55.615 51.3154C54.9387 51.7498 54.2602 52.1472 53.5208 52.5333C53.0146 52.0005 52.562 51.4851 52.1271 50.9552C51.8623 50.6328 51.6248 50.2881 51.375 49.9533Z" fill="#CBC694"/>
<path d="M43.2809 68.6957C43.2091 68.4277 43.1538 68.1891 43.0872 67.9014C43.9341 67.607 44.77 67.3165 45.6658 67.0072C47.0307 66.5418 48.3323 66.0844 49.6446 65.6604C49.8352 65.5988 50.0952 65.6525 50.2918 65.731C50.6695 65.8817 51.0248 66.0885 51.3964 66.3022C52.4525 66.9392 53.5015 67.5461 54.5504 68.153C54.5613 68.1629 54.5705 68.1776 54.5832 68.182C55.5759 68.519 55.8605 69.2893 56.0117 70.2544C56.2907 72.0353 56.6744 73.8003 57.0432 75.566C57.1255 75.9602 56.9937 76.0608 56.6431 76.1443C54.7603 76.5926 52.8835 77.0662 50.9758 77.5466C49.7374 77.8436 48.5248 78.1128 47.3191 78.4099C46.2063 78.684 46.2221 78.6936 45.8988 77.5713C45.5629 76.4049 45.1994 75.2466 44.8255 74.0643C44.6282 73.3804 44.4642 72.7138 44.2757 72.0543C43.9578 70.9422 43.6243 69.8346 43.2809 68.6957Z" fill="#FEFEFF"/>
<path d="M54.5528 68.1156C53.5015 67.5462 52.4525 66.9393 51.3923 66.2712C51.6852 65.8101 51.9734 65.3969 52.2974 65.0139C52.6967 64.5418 53.1257 64.0947 53.5419 63.6368C54.2247 64.0169 54.9076 64.397 55.6073 64.7973C55.3046 65.7361 54.9823 66.6536 54.6683 67.574C54.6129 67.736 54.592 67.9098 54.5528 68.1156Z" fill="#6DC6E0"/>
<path d="M37.6821 61.6134C36.5638 60.4398 35.4716 59.2785 34.3469 58.0826C35.4671 56.9023 36.5829 55.7268 37.7086 54.5261C38.9601 53.214 40.2005 51.9261 41.4439 50.641C41.6466 50.4316 41.8622 50.2348 42.1053 49.9998C42.7851 50.5894 43.4689 51.1808 44.1509 51.7743C45.1685 52.6598 46.1766 53.5566 47.2073 54.4265C47.4915 54.6664 47.6391 54.9077 47.5959 55.2862C47.5628 55.5756 47.5928 55.8722 47.5947 56.2457C47.6015 57.5291 47.6084 58.7324 47.6153 59.9357C47.6068 60.0081 47.5797 60.0839 47.5926 60.1523C47.767 61.0767 47.3587 61.6792 46.6464 62.256C45.101 63.5075 43.6298 64.8506 42.0825 66.196C40.6149 64.6627 39.1615 63.1442 37.6821 61.6134Z" fill="#FDFEFE"/>
<path d="M47.6504 59.9346C47.6086 58.7324 47.6017 57.5291 47.605 56.2865C48.7347 56.444 49.8543 56.6407 51.0095 56.8403C51.0514 57.6693 51.0576 58.4956 51.0539 59.3609C49.9245 59.5778 48.805 59.7556 47.6504 59.9346Z" fill="#0171B9"/>
<path d="M78.4898 54.5006C79.3149 55.3688 80.1145 56.2214 80.9117 57.0764C81.2103 57.3966 81.5032 57.7223 81.841 58.0919C80.7323 59.2688 79.6329 60.4358 78.5233 61.6287C77.6128 62.5792 76.7241 63.5156 75.8078 64.4241C75.237 64.99 74.6243 65.5137 73.9951 66.0887C73.166 65.367 72.2498 64.5696 71.3337 63.772C70.5587 63.0974 69.7938 62.4107 69.0037 61.7543C68.7173 61.5164 68.5773 61.2642 68.6062 60.892C68.6288 60.6005 68.6028 60.3052 68.5939 59.9304C68.5875 58.6478 68.5855 57.4463 68.5835 56.2448C68.5909 56.1866 68.6145 56.1252 68.6033 56.0709C68.399 55.0791 68.8846 54.4607 69.6265 53.862C71.0632 52.7025 72.4263 51.4516 73.8204 50.2392C73.9071 50.1637 73.9984 50.0935 74.1344 49.9827C74.4345 50.2979 74.7236 50.6045 75.0159 50.9082C76.1646 52.1013 77.3142 53.2934 78.4898 54.5006Z" fill="#FFFEFE"/>
<path d="M68.5472 56.2462C68.5855 57.4463 68.5875 58.6478 68.5872 59.8899C67.4633 59.7323 66.3418 59.5342 65.1856 59.3348C65.1471 58.53 65.1433 57.7266 65.1463 56.881C66.2724 56.6419 67.3917 56.4448 68.5472 56.2462Z" fill="#EF96CE"/>
<path d="M62.7654 52.6481C63.0921 52.1809 63.4348 51.732 63.7894 51.2927C64.1458 50.851 64.514 50.4188 64.8921 49.9512C65.2419 50.0998 65.5657 50.3061 65.9155 50.4489C66.1105 50.5286 66.3708 50.5729 66.5638 50.5124C67.6547 50.1701 68.7342 49.7913 69.8522 49.4207C69.8125 49.5565 69.7738 49.7455 69.6586 49.8292C68.2231 50.8713 66.7793 51.902 65.3307 52.9259C65.0211 53.1448 64.6841 53.325 64.3538 53.5545C63.8274 53.2808 63.307 52.9757 62.7654 52.6481Z" fill="#FC5816"/>
<path d="M64.9393 66.2558C64.2821 65.4923 63.6562 64.7261 63.0333 63.9576C62.9421 63.8451 62.8647 63.7213 62.769 63.5748C63.3115 63.2192 63.8658 62.8916 64.4501 62.5594C65.5276 63.3145 66.573 64.0768 67.6231 64.8327C68.3072 65.3252 68.9884 65.8227 69.6898 66.2895C70.0466 66.5271 70.4462 66.7001 70.823 66.9083C70.856 66.9265 70.8636 66.9905 70.8749 67.0594C69.5626 66.6501 68.2503 66.237 66.9585 65.7676C66.449 65.5825 66.0176 65.5383 65.5785 65.9007C65.4006 66.0475 65.1754 66.1369 64.9393 66.2558Z" fill="#402A3A"/>
<path d="M51.3416 49.9509C51.6248 50.288 51.8624 50.6327 52.1271 50.9552C52.5621 51.485 53.0147 52.0004 53.4888 52.5335C52.8886 52.9272 52.2595 53.3093 51.5982 53.6875C51.491 53.5561 51.4459 53.3875 51.3363 53.3078C50.2413 52.5119 49.1346 51.7321 48.0336 50.9444C47.5132 50.5721 46.9929 50.1992 46.4851 49.8103C46.3859 49.7343 46.3442 49.5832 46.2754 49.4359C47.315 49.7501 48.3622 50.0756 49.3918 50.4499C49.7984 50.5977 50.1295 50.6204 50.494 50.3527C50.7346 50.1761 51.0347 50.0804 51.3416 49.9509Z" fill="#C2D501"/>
<path d="M53.5213 63.6121C53.1257 64.0947 52.6967 64.5417 52.2974 65.0138C51.9735 65.3969 51.6852 65.8101 51.3853 66.2409C51.0248 66.0885 50.6695 65.8817 50.2919 65.731C50.0952 65.6525 49.8352 65.5988 49.6447 65.6604C48.3323 66.0844 47.0308 66.5418 45.6926 66.9887C45.6988 66.9041 45.7146 66.7857 45.7808 66.7395C47.4123 65.5989 49.0512 64.4689 50.6834 63.3292C51.0167 63.0964 51.3281 62.832 51.6795 62.5647C52.3065 62.894 52.9036 63.2407 53.5213 63.6121Z" fill="#13ABD1"/>
</svg>
