<svg width="204" height="55" viewBox="0 0 204 55" fill="none" xmlns="http://www.w3.org/2000/svg">
<rect width="204" height="55" rx="27.5" fill="#E9551E"/>
<path d="M43.2236 24.6398L37.2473 23.0054L41.381 17.2197C41.6492 16.8443 41.6351 16.3382 41.3447 15.9796C41.1452 15.7298 40.4888 15.1653 40.3286 14.9675C40.0423 14.6089 39.5524 14.4854 39.1208 14.6643L30.6178 18.256L28.4454 13.5589C28.3009 13.2457 27.9892 13.0945 27.6623 13.0507L27.4293 12.5468C27.0927 11.8177 25.8912 11.8177 25.5543 12.5468L22.8236 18.4498L13.8628 14.6639C13.4403 14.4851 12.9454 14.6077 12.655 14.9672C12.3655 15.3258 12.3505 15.8319 12.6187 16.2073L17.1914 22.6076L9.75909 24.6398C9.31038 24.7624 9 25.168 9 25.6308C9 26.0936 10.3461 27.5168 10.7752 27.6338L16.7524 29.2692L12.6187 35.053C12.3505 35.4284 12.3658 35.9345 12.655 36.294C12.8561 36.5438 13.5115 37.108 13.671 37.3061C13.9605 37.6657 14.4564 37.7901 14.8788 37.6072L23.3813 34.0173L25.5543 38.7138C25.7029 39.0364 26.0148 39.2273 26.3614 39.2743L26.5703 39.7259C26.7386 40.0914 28.2771 40.0914 28.4454 39.7259L31.1752 33.8239L40.1369 37.6072C40.5685 37.7919 41.0584 37.6613 41.3447 37.3061C41.6351 36.9466 41.6492 36.4405 41.381 36.0651L36.8083 29.667L44.2418 27.6338C44.6893 27.5112 45 27.1057 45 26.6429C45 26.18 43.6539 24.7571 43.2236 24.6398ZM25.2963 32.0591C25.1436 31.7278 24.8279 31.5437 24.4888 31.498L24.2802 31.047C24.1069 30.6716 23.7338 30.4486 23.3429 30.4486C23.2076 30.4486 23.0718 30.4747 22.9397 30.531L18.9085 32.2326L20.7461 29.6614C20.9416 29.3883 20.9909 29.0368 20.8782 28.7196C20.7642 28.4033 20.5041 28.1622 20.1788 28.0739L19.8915 27.9952C19.8862 27.8985 19.8956 27.8011 19.8621 27.7072C19.7482 27.3909 19.4881 27.1498 19.1627 27.0615L16.2912 26.2758L20.1788 25.2128C20.5035 25.1244 20.7646 24.8834 20.8782 24.5671C20.9913 24.2507 20.9416 23.8993 20.7461 23.6253L17.4334 18.9888L23.9555 21.7439C24.4695 21.9597 25.0634 21.7327 25.2963 21.2266L27.2342 17.0374L28.7037 20.2145C28.8585 20.5495 29.1749 20.7461 29.5171 20.7887L29.7198 21.2266C29.9536 21.7327 30.5485 21.9597 31.0606 21.7439L35.0918 20.041L33.2542 22.6135C33.0587 22.8875 33.0103 23.239 33.123 23.5553C33.2361 23.8716 33.4959 24.1126 33.8225 24.201L34.1091 24.2794C34.1148 24.3761 34.1057 24.4738 34.1388 24.5674C34.2518 24.8837 34.5116 25.1247 34.8382 25.2131L37.7091 25.9981L33.82 27.0618C33.4952 27.1501 33.2354 27.3912 33.1224 27.7075C33.0094 28.0247 33.0578 28.3762 33.2535 28.6493L36.566 33.2842L30.0439 30.531C29.5318 30.312 28.9369 30.541 28.703 31.047L26.7652 35.2362L25.2963 32.0591Z" fill="#73241F"/>
<path d="M39.5242 15.611L34.095 23.2094L42.9509 25.6308L34.095 28.0521L39.5242 35.6505L29.641 31.4762L26.4916 38.2849L23.3425 31.4762L13.4593 35.6505L18.8885 28.0521L10.0326 25.6308L18.8885 23.2094L13.4593 15.611L23.3425 19.7853L26.4916 12.9766L29.641 19.7853L39.5242 15.611Z" fill="#EFC13B"/>
<path d="M61.368 15.504C62.376 15.504 63.3187 15.7 64.196 16.092C65.092 16.4653 65.8667 16.9787 66.52 17.632C67.1733 18.2853 67.6867 19.06 68.06 19.956C68.452 20.8333 68.648 21.776 68.648 22.784C68.648 23.792 68.48 24.7253 68.144 25.584C67.808 26.4427 67.3133 27.1987 66.66 27.852C66.0067 28.4867 65.176 28.9907 64.168 29.364C63.1787 29.7187 62.0307 29.896 60.724 29.896H56.16V36H52.24V15.504H61.368ZM61.368 26.368C61.9467 26.368 62.4507 26.2747 62.88 26.088C63.3093 25.8827 63.6547 25.612 63.916 25.276C64.196 24.94 64.4013 24.5573 64.532 24.128C64.6627 23.6987 64.728 23.2507 64.728 22.784C64.728 22.3173 64.644 21.86 64.476 21.412C64.308 20.9453 64.0653 20.5347 63.748 20.18C63.4307 19.8253 63.0387 19.536 62.572 19.312C62.1053 19.088 61.564 18.976 60.948 18.976H56.16V26.368H61.368ZM88.5766 15.504V36H84.6846V27.852H74.5486V36H70.6566V15.504H74.5486V24.352H84.6846V15.504H88.5766ZM109.963 15.532C109.44 16.3907 108.834 17.3707 108.143 18.472C107.471 19.5733 106.78 20.7027 106.071 21.86C105.362 22.9987 104.662 24.128 103.971 25.248C103.28 26.3493 102.674 27.348 102.151 28.244V36H98.2311V28.244C97.0178 26.116 95.7298 23.9973 94.3671 21.888C93.0044 19.7787 91.7071 17.66 90.4751 15.532H95.0391C95.8791 16.932 96.7378 18.3787 97.6151 19.872C98.4924 21.3653 99.3511 22.812 100.191 24.212C100.602 23.5587 101.031 22.8587 101.479 22.112C101.927 21.3653 102.375 20.6187 102.823 19.872C103.271 19.1067 103.71 18.36 104.139 17.632C104.587 16.8853 105.007 16.1853 105.399 15.532H109.963ZM109.521 33.312L111.649 30.176C112.676 30.8853 113.731 31.5013 114.813 32.024C115.915 32.528 117.063 32.78 118.257 32.78C118.892 32.78 119.452 32.7053 119.937 32.556C120.423 32.388 120.833 32.1827 121.169 31.94C121.505 31.6787 121.757 31.3893 121.925 31.072C122.093 30.736 122.177 30.4093 122.177 30.092C122.177 29.6813 122.047 29.336 121.785 29.056C121.543 28.7573 121.207 28.5147 120.777 28.328C120.367 28.1413 119.872 27.9827 119.293 27.852C118.733 27.7213 118.145 27.6 117.529 27.488C117.119 27.4133 116.643 27.3293 116.101 27.236C115.56 27.124 115 26.984 114.421 26.816C113.843 26.6293 113.273 26.396 112.713 26.116C112.153 25.8173 111.649 25.4533 111.201 25.024C110.753 24.576 110.389 24.0533 110.109 23.456C109.848 22.84 109.717 22.1213 109.717 21.3C109.717 20.1053 109.96 19.116 110.445 18.332C110.931 17.5293 111.547 16.904 112.293 16.456C113.059 15.9893 113.899 15.6627 114.813 15.476C115.747 15.2893 116.643 15.196 117.501 15.196C118.36 15.196 119.125 15.252 119.797 15.364C120.469 15.476 121.095 15.644 121.673 15.868C122.252 16.0733 122.812 16.344 123.353 16.68C123.913 16.9973 124.511 17.38 125.145 17.828L122.961 20.908C121.991 20.236 121.057 19.7227 120.161 19.368C119.265 19.0133 118.323 18.836 117.333 18.836C116.997 18.836 116.615 18.8827 116.185 18.976C115.756 19.0507 115.345 19.1813 114.953 19.368C114.58 19.5547 114.263 19.7973 114.001 20.096C113.759 20.376 113.637 20.7213 113.637 21.132C113.637 21.5427 113.787 21.888 114.085 22.168C114.384 22.448 114.767 22.6813 115.233 22.868C115.7 23.0547 116.213 23.2133 116.773 23.344C117.333 23.4747 117.875 23.6053 118.397 23.736C118.789 23.8293 119.247 23.9227 119.769 24.016C120.311 24.1093 120.861 24.24 121.421 24.408C122 24.576 122.569 24.8 123.129 25.08C123.689 25.36 124.184 25.724 124.613 26.172C125.061 26.6013 125.416 27.1427 125.677 27.796C125.957 28.4307 126.097 29.2053 126.097 30.12C126.097 31.184 125.911 32.108 125.537 32.892C125.164 33.676 124.632 34.3293 123.941 34.852C123.251 35.356 122.429 35.7387 121.477 36C120.525 36.2613 119.471 36.392 118.313 36.392C117.249 36.392 116.307 36.308 115.485 36.14C114.683 35.9907 113.945 35.7853 113.273 35.524C112.601 35.244 111.967 34.9173 111.369 34.544C110.772 34.1707 110.156 33.76 109.521 33.312ZM133.285 36H129.365V15.532H133.285V36ZM156.52 30.96C156.072 31.7813 155.522 32.528 154.868 33.2C154.215 33.8533 153.487 34.4227 152.684 34.908C151.9 35.3747 151.042 35.7387 150.108 36C149.194 36.2613 148.242 36.392 147.252 36.392C145.796 36.392 144.424 36.112 143.136 35.552C141.848 34.992 140.719 34.236 139.748 33.284C138.796 32.3133 138.04 31.184 137.48 29.896C136.92 28.608 136.64 27.236 136.64 25.78C136.64 24.324 136.92 22.952 137.48 21.664C138.04 20.376 138.796 19.256 139.748 18.304C140.719 17.3333 141.848 16.568 143.136 16.008C144.424 15.448 145.796 15.168 147.252 15.168C148.242 15.168 149.194 15.2987 150.108 15.56C151.042 15.8213 151.9 16.1947 152.684 16.68C153.487 17.1467 154.215 17.716 154.868 18.388C155.522 19.0413 156.072 19.7693 156.52 20.572L152.852 22.056C152.554 21.608 152.199 21.188 151.788 20.796C151.396 20.404 150.958 20.0587 150.472 19.76C149.987 19.4613 149.474 19.228 148.932 19.06C148.391 18.892 147.831 18.808 147.252 18.808C146.319 18.808 145.442 19.004 144.62 19.396C143.818 19.7693 143.118 20.2733 142.52 20.908C141.923 21.5427 141.447 22.2893 141.092 23.148C140.738 23.988 140.56 24.8653 140.56 25.78C140.56 26.7133 140.738 27.6 141.092 28.44C141.447 29.28 141.923 30.0173 142.52 30.652C143.118 31.2867 143.818 31.8 144.62 32.192C145.442 32.5653 146.319 32.752 147.252 32.752C147.831 32.752 148.391 32.668 148.932 32.5C149.474 32.332 149.987 32.0987 150.472 31.8C150.958 31.5013 151.396 31.156 151.788 30.764C152.199 30.3533 152.554 29.924 152.852 29.476L156.52 30.96ZM156.046 36L166.518 15.532H166.91L177.382 36H173.126L171.53 32.78H161.87L160.302 36H156.046ZM163.774 29.364H169.626L166.714 23.176L163.774 29.364ZM193.314 32.528V36H178.558V15.504H182.478V32.528H193.314Z" fill="white"/>
</svg>
