<svg width="204" height="55" viewBox="0 0 204 55" fill="none" xmlns="http://www.w3.org/2000/svg">
<rect width="204" height="55" rx="27.5" fill="#5269AD"/>
<path fill-rule="evenodd" clip-rule="evenodd" d="M37.1038 46.8649C33.5859 47.045 29.5585 47.045 28.1898 46.8649C17.5137 45.4604 9 37.6547 9 27.1039C9 16.5531 17.7304 8 28.5 8C39.2696 8 48 16.5531 48 27.1039C48 32.011 46.1115 36.4859 43.0077 39.8693C42.1649 40.788 43.3213 41.4324 44.4962 42.0872C45.6486 42.7294 46.8187 43.3815 46.1387 44.312C45.3893 45.3374 41.3267 46.6488 37.1038 46.8649ZM25.7578 24.7159C25.7578 26.3644 24.3937 27.7009 22.7109 27.7009C21.0282 27.7009 19.6641 26.3644 19.6641 24.7159C19.6641 23.6103 20.2776 22.6451 21.1893 22.1292C21.2418 23.5666 22.4237 24.7158 23.874 24.7158L25.7578 24.7159ZM35.2013 22.1292C35.1488 23.5666 33.9669 24.7158 32.5166 24.7158H30.6328C30.6328 26.3644 31.997 27.7009 33.6797 27.7009C35.3624 27.7009 36.7266 26.3644 36.7266 24.7159C36.7266 23.6103 36.113 22.6451 35.2013 22.1292Z" fill="#8E97C0"/>
<path d="M93.12 25.8C93.1013 26.192 93.092 26.556 93.092 26.892C93.0733 27.1907 93.064 27.4893 93.064 27.788C93.064 28.068 93.0547 28.2827 93.036 28.432C92.924 29.72 92.5693 30.9147 91.972 32.016C91.3933 33.1173 90.6373 34.0693 89.704 34.872C88.7893 35.656 87.7253 36.272 86.512 36.72C85.3173 37.168 84.0573 37.392 82.732 37.392C81.276 37.392 79.904 37.112 78.616 36.552C77.328 35.992 76.1987 35.236 75.228 34.284C74.276 33.3133 73.52 32.184 72.96 30.896C72.4 29.608 72.12 28.236 72.12 26.78C72.12 25.324 72.4 23.952 72.96 22.664C73.52 21.3573 74.276 20.228 75.228 19.276C76.1987 18.3053 77.328 17.54 78.616 16.98C79.904 16.42 81.276 16.14 82.732 16.14C84.58 16.14 86.2693 16.5693 87.8 17.428C89.3493 18.2867 90.6 19.4347 91.552 20.872L88.192 22.916C87.5947 22.0387 86.8107 21.3013 85.84 20.704C84.888 20.1067 83.852 19.808 82.732 19.808C81.7987 19.808 80.9213 20.004 80.1 20.396C79.2973 20.7693 78.588 21.2733 77.972 21.908C77.3747 22.5427 76.8987 23.2893 76.544 24.148C76.1893 24.988 76.012 25.8653 76.012 26.78C76.012 27.7133 76.1893 28.6 76.544 29.44C76.8987 30.28 77.3747 31.0173 77.972 31.652C78.588 32.2867 79.2973 32.8 80.1 33.192C80.9213 33.5653 81.7987 33.752 82.732 33.752C83.4413 33.752 84.1227 33.6493 84.776 33.444C85.4293 33.22 86.0267 32.912 86.568 32.52C87.1093 32.128 87.576 31.6613 87.968 31.12C88.3787 30.5787 88.6773 29.9813 88.864 29.328H81.304V25.8H93.12ZM113.788 16.504V37H109.896V28.852H99.7595V37H95.8675V16.504H99.7595V25.352H109.896V16.504H113.788ZM127.278 37.392C125.822 37.392 124.45 37.112 123.162 36.552C121.874 35.992 120.745 35.236 119.774 34.284C118.822 33.3133 118.066 32.184 117.506 30.896C116.946 29.608 116.666 28.2267 116.666 26.752C116.666 25.296 116.946 23.924 117.506 22.636C118.066 21.3293 118.822 20.2 119.774 19.248C120.745 18.2773 121.874 17.512 123.162 16.952C124.45 16.392 125.822 16.112 127.278 16.112C128.753 16.112 130.134 16.392 131.422 16.952C132.71 17.512 133.83 18.2773 134.782 19.248C135.753 20.2 136.518 21.3293 137.078 22.636C137.638 23.924 137.918 25.296 137.918 26.752C137.918 28.2267 137.638 29.608 137.078 30.896C136.518 32.184 135.753 33.3133 134.782 34.284C133.83 35.236 132.71 35.992 131.422 36.552C130.134 37.112 128.753 37.392 127.278 37.392ZM127.278 19.78C126.345 19.78 125.467 19.976 124.646 20.368C123.843 20.7413 123.134 21.2453 122.518 21.88C121.921 22.5147 121.445 23.2613 121.09 24.12C120.735 24.96 120.558 25.8373 120.558 26.752C120.558 27.6853 120.735 28.572 121.09 29.412C121.445 30.252 121.921 30.9987 122.518 31.652C123.134 32.2867 123.843 32.8 124.646 33.192C125.467 33.5653 126.345 33.752 127.278 33.752C128.211 33.752 129.079 33.5653 129.882 33.192C130.703 32.8 131.413 32.2867 132.01 31.652C132.626 30.9987 133.111 30.252 133.466 29.412C133.821 28.572 133.998 27.6853 133.998 26.752C133.998 25.8373 133.821 24.96 133.466 24.12C133.111 23.2613 132.626 22.5147 132.01 21.88C131.413 21.2453 130.703 20.7413 129.882 20.368C129.079 19.976 128.211 19.78 127.278 19.78ZM140.01 34.312L142.138 31.176C143.164 31.8853 144.219 32.5013 145.302 33.024C146.403 33.528 147.551 33.78 148.746 33.78C149.38 33.78 149.94 33.7053 150.426 33.556C150.911 33.388 151.322 33.1827 151.658 32.94C151.994 32.6787 152.246 32.3893 152.414 32.072C152.582 31.736 152.666 31.4093 152.666 31.092C152.666 30.6813 152.535 30.336 152.274 30.056C152.031 29.7573 151.695 29.5147 151.266 29.328C150.855 29.1413 150.36 28.9827 149.782 28.852C149.222 28.7213 148.634 28.6 148.018 28.488C147.607 28.4133 147.131 28.3293 146.59 28.236C146.048 28.124 145.488 27.984 144.91 27.816C144.331 27.6293 143.762 27.396 143.202 27.116C142.642 26.8173 142.138 26.4533 141.69 26.024C141.242 25.576 140.878 25.0533 140.598 24.456C140.336 23.84 140.206 23.1213 140.206 22.3C140.206 21.1053 140.448 20.116 140.934 19.332C141.419 18.5293 142.035 17.904 142.782 17.456C143.547 16.9893 144.387 16.6627 145.302 16.476C146.235 16.2893 147.131 16.196 147.99 16.196C148.848 16.196 149.614 16.252 150.286 16.364C150.958 16.476 151.583 16.644 152.162 16.868C152.74 17.0733 153.3 17.344 153.842 17.68C154.402 17.9973 154.999 18.38 155.634 18.828L153.45 21.908C152.479 21.236 151.546 20.7227 150.65 20.368C149.754 20.0133 148.811 19.836 147.822 19.836C147.486 19.836 147.103 19.8827 146.674 19.976C146.244 20.0507 145.834 20.1813 145.442 20.368C145.068 20.5547 144.751 20.7973 144.49 21.096C144.247 21.376 144.126 21.7213 144.126 22.132C144.126 22.5427 144.275 22.888 144.574 23.168C144.872 23.448 145.255 23.6813 145.722 23.868C146.188 24.0547 146.702 24.2133 147.262 24.344C147.822 24.4747 148.363 24.6053 148.886 24.736C149.278 24.8293 149.735 24.9227 150.258 25.016C150.799 25.1093 151.35 25.24 151.91 25.408C152.488 25.576 153.058 25.8 153.618 26.08C154.178 26.36 154.672 26.724 155.102 27.172C155.55 27.6013 155.904 28.1427 156.166 28.796C156.446 29.4307 156.586 30.2053 156.586 31.12C156.586 32.184 156.399 33.108 156.026 33.892C155.652 34.676 155.12 35.3293 154.43 35.852C153.739 36.356 152.918 36.7387 151.966 37C151.014 37.2613 149.959 37.392 148.802 37.392C147.738 37.392 146.795 37.308 145.974 37.14C145.171 36.9907 144.434 36.7853 143.762 36.524C143.09 36.244 142.455 35.9173 141.858 35.544C141.26 35.1707 140.644 34.76 140.01 34.312ZM172.298 19.976H166.446V37H162.526V19.976H156.646V16.504H172.298V19.976Z" fill="white"/>
</svg>
