<svg width="204" height="55" viewBox="0 0 204 55" fill="none" xmlns="http://www.w3.org/2000/svg">
<rect width="204" height="55" rx="27.5" fill="#D97845"/>
<path fill-rule="evenodd" clip-rule="evenodd" d="M18.149 39.8949C18.1389 39.8949 18.1319 39.8849 18.1353 39.8754L27.5815 13.0097C27.5836 13.0039 27.5891 13 27.5952 13H37.6794C37.6855 13 37.6911 13.0039 37.6931 13.0098L46.9992 39.8755C47.0024 39.885 46.9954 39.8949 46.9855 39.8949H18.4328H18.149ZM10.0145 40C10.0044 40 9.99738 39.9898 10.0009 39.9803L17.0353 21.0779C17.0374 21.0722 17.0428 21.0684 17.0489 21.0684H23.1609C23.171 21.0684 23.178 21.0785 23.1746 21.088L16.3726 39.9904C16.3705 39.9961 16.365 40 16.3589 40H10.0145Z" fill="#E19F87"/>
<path d="M79.12 26.8C79.1013 27.192 79.092 27.556 79.092 27.892C79.0733 28.1907 79.064 28.4893 79.064 28.788C79.064 29.068 79.0547 29.2827 79.036 29.432C78.924 30.72 78.5693 31.9147 77.972 33.016C77.3933 34.1173 76.6373 35.0693 75.704 35.872C74.7893 36.656 73.7253 37.272 72.512 37.72C71.3173 38.168 70.0573 38.392 68.732 38.392C67.276 38.392 65.904 38.112 64.616 37.552C63.328 36.992 62.1987 36.236 61.228 35.284C60.276 34.3133 59.52 33.184 58.96 31.896C58.4 30.608 58.12 29.236 58.12 27.78C58.12 26.324 58.4 24.952 58.96 23.664C59.52 22.3573 60.276 21.228 61.228 20.276C62.1987 19.3053 63.328 18.54 64.616 17.98C65.904 17.42 67.276 17.14 68.732 17.14C70.58 17.14 72.2693 17.5693 73.8 18.428C75.3493 19.2867 76.6 20.4347 77.552 21.872L74.192 23.916C73.5947 23.0387 72.8107 22.3013 71.84 21.704C70.888 21.1067 69.852 20.808 68.732 20.808C67.7987 20.808 66.9213 21.004 66.1 21.396C65.2973 21.7693 64.588 22.2733 63.972 22.908C63.3747 23.5427 62.8987 24.2893 62.544 25.148C62.1893 25.988 62.012 26.8653 62.012 27.78C62.012 28.7133 62.1893 29.6 62.544 30.44C62.8987 31.28 63.3747 32.0173 63.972 32.652C64.588 33.2867 65.2973 33.8 66.1 34.192C66.9213 34.5653 67.7987 34.752 68.732 34.752C69.4413 34.752 70.1227 34.6493 70.776 34.444C71.4293 34.22 72.0267 33.912 72.568 33.52C73.1093 33.128 73.576 32.6613 73.968 32.12C74.3787 31.5787 74.6773 30.9813 74.864 30.328H67.304V26.8H79.12ZM85.7595 38H81.8675V17.504H91.1635C92.2088 17.504 93.1608 17.6813 94.0195 18.036C94.8968 18.372 95.6435 18.8573 96.2595 19.492C96.8755 20.108 97.3515 20.8547 97.6875 21.732C98.0422 22.5907 98.2195 23.5333 98.2195 24.56C98.2195 26.1093 97.8275 27.4627 97.0435 28.62C96.2782 29.7773 95.2515 30.608 93.9635 31.112C95.6995 33.3893 97.4075 35.6853 99.0875 38H94.4115C93.5902 36.936 92.7875 35.8627 92.0035 34.78C91.2195 33.6973 90.4355 32.596 89.6515 31.476H85.7595V38ZM85.7595 28.004H91.1635C91.5182 28.004 91.8822 27.9387 92.2555 27.808C92.6475 27.6587 92.9928 27.444 93.2915 27.164C93.5902 26.8653 93.8328 26.5013 94.0195 26.072C94.2248 25.6427 94.3275 25.1387 94.3275 24.56C94.3275 24.2613 94.2902 23.9067 94.2155 23.496C94.1408 23.0853 93.9915 22.6933 93.7675 22.32C93.5435 21.9467 93.2262 21.6293 92.8155 21.368C92.4048 21.1067 91.8542 20.976 91.1635 20.976H85.7595V28.004ZM111.036 38.392C109.58 38.392 108.208 38.112 106.92 37.552C105.632 36.992 104.503 36.236 103.532 35.284C102.58 34.3133 101.824 33.184 101.264 31.896C100.704 30.608 100.424 29.2267 100.424 27.752C100.424 26.296 100.704 24.924 101.264 23.636C101.824 22.3293 102.58 21.2 103.532 20.248C104.503 19.2773 105.632 18.512 106.92 17.952C108.208 17.392 109.58 17.112 111.036 17.112C112.511 17.112 113.892 17.392 115.18 17.952C116.468 18.512 117.588 19.2773 118.54 20.248C119.511 21.2 120.276 22.3293 120.836 23.636C121.396 24.924 121.676 26.296 121.676 27.752C121.676 29.2267 121.396 30.608 120.836 31.896C120.276 33.184 119.511 34.3133 118.54 35.284C117.588 36.236 116.468 36.992 115.18 37.552C113.892 38.112 112.511 38.392 111.036 38.392ZM111.036 20.78C110.103 20.78 109.225 20.976 108.404 21.368C107.601 21.7413 106.892 22.2453 106.276 22.88C105.679 23.5147 105.203 24.2613 104.848 25.12C104.493 25.96 104.316 26.8373 104.316 27.752C104.316 28.6853 104.493 29.572 104.848 30.412C105.203 31.252 105.679 31.9987 106.276 32.652C106.892 33.2867 107.601 33.8 108.404 34.192C109.225 34.5653 110.103 34.752 111.036 34.752C111.969 34.752 112.837 34.5653 113.64 34.192C114.461 33.8 115.171 33.2867 115.768 32.652C116.384 31.9987 116.869 31.252 117.224 30.412C117.579 29.572 117.756 28.6853 117.756 27.752C117.756 26.8373 117.579 25.96 117.224 25.12C116.869 24.2613 116.384 23.5147 115.768 22.88C115.171 22.2453 114.461 21.7413 113.64 21.368C112.837 20.976 111.969 20.78 111.036 20.78ZM133.372 38.364C132.046 38.364 130.842 38.1587 129.76 37.748C128.677 37.3373 127.753 36.7587 126.988 36.012C126.222 35.2653 125.625 34.36 125.196 33.296C124.785 32.232 124.58 31.0467 124.58 29.74V17.532H128.5V29.74C128.5 30.7667 128.668 31.616 129.004 32.288C129.34 32.96 129.75 33.492 130.236 33.884C130.74 34.276 131.272 34.5467 131.832 34.696C132.41 34.8453 132.924 34.92 133.372 34.92C133.82 34.92 134.324 34.8453 134.884 34.696C135.462 34.5467 135.994 34.276 136.48 33.884C136.984 33.492 137.404 32.96 137.74 32.288C138.076 31.616 138.244 30.7667 138.244 29.74V17.532H142.164V29.74C142.164 31.0467 141.958 32.232 141.548 33.296C141.137 34.36 140.549 35.2653 139.784 36.012C139.018 36.7587 138.094 37.3373 137.012 37.748C135.929 38.1587 134.716 38.364 133.372 38.364ZM163.474 38L149.978 25.82V38H146.086V17.532H146.506L159.974 29.908V17.532H163.894V38H163.474ZM175.903 38H167.811V17.504H175.903C178.834 17.504 181.242 18.3627 183.127 20.08C184.135 20.9947 184.891 22.1053 185.395 23.412C185.918 24.7 186.179 26.1467 186.179 27.752C186.179 29.376 185.918 30.8413 185.395 32.148C184.891 33.436 184.135 34.5373 183.127 35.452C182.212 36.292 181.139 36.9267 179.907 37.356C178.694 37.7853 177.359 38 175.903 38ZM171.731 34.528H175.903C176.631 34.528 177.368 34.444 178.115 34.276C178.862 34.108 179.534 33.7813 180.131 33.296C180.747 32.792 181.251 32.1013 181.643 31.224C182.035 30.3467 182.231 29.1987 182.231 27.78C182.231 26.3613 182.035 25.2133 181.643 24.336C181.251 23.44 180.747 22.7493 180.131 22.264C179.515 21.7787 178.834 21.452 178.087 21.284C177.34 21.116 176.612 21.032 175.903 21.032H171.731V34.528Z" fill="white"/>
</svg>
