<svg width="97" height="97" viewBox="0 0 97 97" fill="none" xmlns="http://www.w3.org/2000/svg">
<path d="M44.4316 0.0576324C22.2277 2.14162 4.53275 18.3209 0.592124 40.1459C-0.20358 44.6549 -0.20358 52.0436 0.630014 56.6662C4.04017 75.6115 18.5144 90.9951 37.0429 95.3147C42.9538 96.6787 47.8417 96.9819 53.3738 96.2998C59.891 95.5041 64.0968 94.2916 69.6288 91.5256C79.1394 86.7893 86.187 79.9311 90.9613 70.7237C94.7882 63.335 96.4175 56.8557 96.4554 48.7092C96.4933 35.9022 91.9085 24.194 83.2316 14.9865C76.487 7.8631 65.6503 2.10372 56.0261 0.588097C53.1843 0.171303 46.7429 -0.131821 44.4316 0.0576324ZM55.6472 4.18771C70.0835 6.68849 82.2464 15.8959 88.612 29.1576C101.419 55.9084 84.7472 87.6987 55.4199 92.4729C36.2472 95.5799 17.2261 85.9178 8.32181 68.526C-1.18874 49.9217 3.66126 27.0736 19.9921 13.6604C26.2062 8.50724 33.8601 5.21075 42.537 3.88458C45.0378 3.46779 52.616 3.69513 55.6472 4.18771Z" fill="#004D26"/>
<path d="M40.8319 12.1069C26.5092 15.4034 16.2787 25.2928 12.3381 39.6155C11.8077 41.5479 11.6561 43.4803 11.694 48.5198C11.694 54.3928 11.8077 55.2643 12.717 58.2198C14.7252 64.737 17.4534 69.5112 21.8487 74.0202C26.2819 78.6428 31.6623 81.8635 38.1795 83.7959C42.7643 85.1221 50.3803 85.501 55.003 84.5538C69.1362 81.6741 79.6319 72.0498 83.8756 57.9924C84.6713 55.3022 84.785 54.2413 84.785 48.5198C84.785 41.51 84.5577 40.1081 82.2842 34.3108C79.935 28.2104 74.062 21.0112 68.4541 17.4495C65.4229 15.4791 61.2549 13.6225 57.769 12.6752C54.0178 11.6143 44.3557 11.3112 40.8319 12.1069ZM52.3127 31.3553C53.4495 34.576 54.8514 36.3948 58.7541 39.767C62.8084 43.3288 65.0061 45.9053 66.5975 48.9745C67.6205 50.9448 67.7342 51.5131 67.7342 54.7717C67.7342 57.7272 67.5827 58.6366 66.9006 59.9249C64.703 64.0549 61.6338 66.7831 54.8514 70.61C51.517 72.5045 44.4694 75.3842 44.3936 74.8916C44.3557 74.778 44.3936 73.4518 44.3936 72.012C44.5452 65.9874 42.537 61.9709 36.285 55.719C32.7991 52.2331 31.3971 50.528 30.2225 48.3303C28.7827 45.6022 28.7069 45.337 28.7069 42.0784C28.7069 39.085 28.8584 38.403 29.8057 36.3948C32.2686 31.3553 39.9225 25.7096 48.7889 22.3752L51.0623 21.5038L51.2897 25.3686C51.4412 27.7178 51.8202 30.0291 52.3127 31.3553Z" fill="#004D26"/>
<path d="M44.6211 30.1807C42.2719 31.3932 40.2258 32.8709 40.3395 33.2499C40.4532 33.5151 48.9028 37.2284 49.5848 37.342C49.6227 37.342 49.0164 35.5612 48.2965 33.3635C47.5387 31.1659 46.743 29.385 46.5535 29.385C46.3262 29.4229 45.4547 29.7639 44.6211 30.1807Z" fill="#004D26"/>
<path d="M34.8073 38.1756C33.7085 39.7292 34.0116 40.2975 36.3988 40.9795C40.6804 42.2299 46.6292 44.7686 54.2831 48.5577C58.5648 50.6795 62.1265 52.3467 62.2023 52.271C62.5433 51.9678 61.7476 50.1112 60.8003 49.126C59.0573 47.2315 47.5765 41.6616 39.1648 38.6303C37.2323 37.9104 35.5652 37.342 35.4894 37.342C35.4515 37.342 35.1105 37.721 34.8073 38.1756Z" fill="#004D26"/>
<path d="M35.603 46.8147C35.8682 47.8756 38.2932 50.528 39.2405 50.8311C42.3096 51.7784 53.9041 57.6514 58.3373 60.4553C59.0951 60.9479 59.2846 60.91 60.3455 59.8869C60.9518 59.2807 61.4823 58.6744 61.4823 58.5608C61.4823 58.2576 58.2615 56.06 55.4576 54.4307C52.1233 52.4604 45.5303 49.5807 40.3393 47.7998C36.0576 46.3221 35.4514 46.2084 35.603 46.8147Z" fill="#004D26"/>
<path d="M48.1826 63.4866C48.9784 65.3432 49.6983 67.0104 49.8498 67.1241C50.0772 67.3514 54.1315 65.1916 54.4725 64.6233C54.6241 64.358 47.5764 60.0764 46.9701 60.0764C46.8565 60.0764 47.3869 61.592 48.1826 63.4866Z" fill="#004D26"/>
</svg>
