<svg width="204" height="55" viewBox="0 0 204 55" fill="none" xmlns="http://www.w3.org/2000/svg">
<rect width="204" height="55" rx="27.5" fill="#929DA3"/>
<path fill-rule="evenodd" clip-rule="evenodd" d="M46 27C46 37.4934 37.4934 46 27 46C16.5066 46 8 37.4934 8 27C8 16.5066 16.5066 8 27 8C37.4934 8 46 16.5066 46 27ZM37.8571 27C37.8571 32.9962 32.9962 37.8571 27 37.8571C21.0038 37.8571 16.1429 32.9962 16.1429 27C16.1429 21.0038 21.0038 16.1429 27 16.1429C32.9962 16.1429 37.8571 21.0038 37.8571 27Z" fill="#ACB4B7"/>
<path d="M78.628 37L65.132 24.82V37H61.24V16.532H61.66L75.128 28.908V16.532H79.048V37H78.628ZM92.5412 37.392C91.0852 37.392 89.7132 37.112 88.4252 36.552C87.1372 35.992 86.0078 35.236 85.0372 34.284C84.0852 33.3133 83.3292 32.184 82.7692 30.896C82.2092 29.608 81.9292 28.2267 81.9292 26.752C81.9292 25.296 82.2092 23.924 82.7692 22.636C83.3292 21.3293 84.0852 20.2 85.0372 19.248C86.0078 18.2773 87.1372 17.512 88.4252 16.952C89.7132 16.392 91.0852 16.112 92.5412 16.112C94.0158 16.112 95.3972 16.392 96.6852 16.952C97.9732 17.512 99.0932 18.2773 100.045 19.248C101.016 20.2 101.781 21.3293 102.341 22.636C102.901 23.924 103.181 25.296 103.181 26.752C103.181 28.2267 102.901 29.608 102.341 30.896C101.781 32.184 101.016 33.3133 100.045 34.284C99.0932 35.236 97.9732 35.992 96.6852 36.552C95.3972 37.112 94.0158 37.392 92.5412 37.392ZM92.5412 19.78C91.6078 19.78 90.7305 19.976 89.9092 20.368C89.1065 20.7413 88.3972 21.2453 87.7812 21.88C87.1838 22.5147 86.7078 23.2613 86.3532 24.12C85.9985 24.96 85.8212 25.8373 85.8212 26.752C85.8212 27.6853 85.9985 28.572 86.3532 29.412C86.7078 30.252 87.1838 30.9987 87.7812 31.652C88.3972 32.2867 89.1065 32.8 89.9092 33.192C90.7305 33.5653 91.6078 33.752 92.5412 33.752C93.4745 33.752 94.3425 33.5653 95.1452 33.192C95.9665 32.8 96.6758 32.2867 97.2732 31.652C97.8892 30.9987 98.3745 30.252 98.7292 29.412C99.0838 28.572 99.2612 27.6853 99.2612 26.752C99.2612 25.8373 99.0838 24.96 98.7292 24.12C98.3745 23.2613 97.8892 22.5147 97.2732 21.88C96.6758 21.2453 95.9665 20.7413 95.1452 20.368C94.3425 19.976 93.4745 19.78 92.5412 19.78ZM109.977 37H106.085V16.504H115.381C116.426 16.504 117.378 16.6813 118.237 17.036C119.114 17.372 119.861 17.8573 120.477 18.492C121.093 19.108 121.569 19.8547 121.905 20.732C122.26 21.5907 122.437 22.5333 122.437 23.56C122.437 25.1093 122.045 26.4627 121.261 27.62C120.496 28.7773 119.469 29.608 118.181 30.112C119.917 32.3893 121.625 34.6853 123.305 37H118.629C117.808 35.936 117.005 34.8627 116.221 33.78C115.437 32.6973 114.653 31.596 113.869 30.476H109.977V37ZM109.977 27.004H115.381C115.736 27.004 116.1 26.9387 116.473 26.808C116.865 26.6587 117.21 26.444 117.509 26.164C117.808 25.8653 118.05 25.5013 118.237 25.072C118.442 24.6427 118.545 24.1387 118.545 23.56C118.545 23.2613 118.508 22.9067 118.433 22.496C118.358 22.0853 118.209 21.6933 117.985 21.32C117.761 20.9467 117.444 20.6293 117.033 20.368C116.622 20.1067 116.072 19.976 115.381 19.976H109.977V27.004ZM146.313 16.532V37H142.393V26.64L135.981 34.34L129.597 26.64V37H125.677V16.532H125.929L135.981 28.348L146.061 16.532H146.313ZM147.846 37L158.318 16.532H158.71L169.182 37H164.926L163.33 33.78H153.67L152.102 37H147.846ZM155.574 30.364H161.426L158.514 24.176L155.574 30.364ZM185.114 33.528V37H170.358V16.504H174.278V33.528H185.114Z" fill="white"/>
</svg>
