<svg width="204" height="55" viewBox="0 0 204 55" fill="none" xmlns="http://www.w3.org/2000/svg">
<rect width="204" height="55" rx="27.5" fill="#FA7179"/>
<path fill-rule="evenodd" clip-rule="evenodd" d="M42.0813 41.2211C42.0813 41.2211 37.0569 45.2668 27.0587 43.5926C19.4731 42.3224 15.4273 33.9273 15.4273 29.4147C15.4273 18.7159 23.3145 16.2812 28.6468 16.2812C33.979 16.2812 37.4576 21.5005 37.4576 25.5416C37.4576 29.5826 34.6107 33.1173 30.1804 33.1173C25.7502 33.1173 24.4381 29.9946 24.4381 27.1238C24.4381 24.253 26.7516 23.2416 28.8615 23.2416C30.9714 23.2416 31.6938 25.05 31.6938 26.6044C31.6938 28.1587 30.4926 28.7154 29.4907 28.7154C28.4888 28.7154 28.3897 28.2079 28.0063 27.6746C27.6227 27.1413 28.4953 25.1226 27.0587 25.1226C25.622 25.1226 25.3542 27.4433 25.3542 27.4433C25.3542 27.4433 25.878 31.9229 30.1804 31.8456C34.483 31.7683 36.5241 28.4289 35.9309 25.1226C35.3377 21.8163 32.1417 18.3031 26.5326 19.013C20.9235 19.7229 18.6333 25.4129 19.6428 31.4936C20.6522 37.5743 27.908 41.0975 33.613 39.8299C39.318 38.5624 45 34.4158 45 23.9027C45 13.3896 35.9309 7.0702 25.1168 8.11166C14.3027 9.15313 7.58979 18.6451 8.01947 30.0498C8.44915 41.4546 19.2281 47.6659 28.3428 47.986C37.4576 48.3062 43.0453 43.009 43.0453 43.009C43.0453 43.009 44.3019 41.884 43.8092 41.0054C43.3166 40.1269 42.0813 41.2211 42.0813 41.2211Z" fill="#FA9B9C"/>
<path d="M70.368 16.504C71.376 16.504 72.3187 16.7 73.196 17.092C74.092 17.4653 74.8667 17.9787 75.52 18.632C76.1733 19.2853 76.6867 20.06 77.06 20.956C77.452 21.8333 77.648 22.776 77.648 23.784C77.648 24.792 77.48 25.7253 77.144 26.584C76.808 27.4427 76.3133 28.1987 75.66 28.852C75.0067 29.4867 74.176 29.9907 73.168 30.364C72.1787 30.7187 71.0307 30.896 69.724 30.896H65.16V37H61.24V16.504H70.368ZM70.368 27.368C70.9467 27.368 71.4507 27.2747 71.88 27.088C72.3093 26.8827 72.6547 26.612 72.916 26.276C73.196 25.94 73.4013 25.5573 73.532 25.128C73.6627 24.6987 73.728 24.2507 73.728 23.784C73.728 23.3173 73.644 22.86 73.476 22.412C73.308 21.9453 73.0653 21.5347 72.748 21.18C72.4307 20.8253 72.0387 20.536 71.572 20.312C71.1053 20.088 70.564 19.976 69.948 19.976H65.16V27.368H70.368ZM78.8446 34.312L80.9726 31.176C81.9992 31.8853 83.0539 32.5013 84.1366 33.024C85.2379 33.528 86.3859 33.78 87.5806 33.78C88.2152 33.78 88.7752 33.7053 89.2606 33.556C89.7459 33.388 90.1566 33.1827 90.4926 32.94C90.8286 32.6787 91.0806 32.3893 91.2486 32.072C91.4166 31.736 91.5006 31.4093 91.5006 31.092C91.5006 30.6813 91.3699 30.336 91.1086 30.056C90.8659 29.7573 90.5299 29.5147 90.1006 29.328C89.6899 29.1413 89.1952 28.9827 88.6166 28.852C88.0566 28.7213 87.4686 28.6 86.8526 28.488C86.4419 28.4133 85.9659 28.3293 85.4246 28.236C84.8832 28.124 84.3232 27.984 83.7446 27.816C83.1659 27.6293 82.5966 27.396 82.0366 27.116C81.4766 26.8173 80.9726 26.4533 80.5246 26.024C80.0766 25.576 79.7126 25.0533 79.4326 24.456C79.1712 23.84 79.0406 23.1213 79.0406 22.3C79.0406 21.1053 79.2832 20.116 79.7686 19.332C80.2539 18.5293 80.8699 17.904 81.6166 17.456C82.3819 16.9893 83.2219 16.6627 84.1366 16.476C85.0699 16.2893 85.9659 16.196 86.8246 16.196C87.6832 16.196 88.4486 16.252 89.1206 16.364C89.7926 16.476 90.4179 16.644 90.9966 16.868C91.5752 17.0733 92.1352 17.344 92.6766 17.68C93.2366 17.9973 93.8339 18.38 94.4686 18.828L92.2846 21.908C91.3139 21.236 90.3806 20.7227 89.4846 20.368C88.5886 20.0133 87.6459 19.836 86.6566 19.836C86.3206 19.836 85.9379 19.8827 85.5086 19.976C85.0792 20.0507 84.6686 20.1813 84.2766 20.368C83.9032 20.5547 83.5859 20.7973 83.3246 21.096C83.0819 21.376 82.9606 21.7213 82.9606 22.132C82.9606 22.5427 83.1099 22.888 83.4086 23.168C83.7072 23.448 84.0899 23.6813 84.5566 23.868C85.0232 24.0547 85.5366 24.2133 86.0966 24.344C86.6566 24.4747 87.1979 24.6053 87.7206 24.736C88.1126 24.8293 88.5699 24.9227 89.0926 25.016C89.6339 25.1093 90.1846 25.24 90.7446 25.408C91.3232 25.576 91.8926 25.8 92.4526 26.08C93.0126 26.36 93.5072 26.724 93.9366 27.172C94.3846 27.6013 94.7392 28.1427 95.0006 28.796C95.2806 29.4307 95.4206 30.2053 95.4206 31.12C95.4206 32.184 95.2339 33.108 94.8606 33.892C94.4872 34.676 93.9552 35.3293 93.2646 35.852C92.5739 36.356 91.7526 36.7387 90.8006 37C89.8486 37.2613 88.7939 37.392 87.6366 37.392C86.5726 37.392 85.6299 37.308 84.8086 37.14C84.0059 36.9907 83.2686 36.7853 82.5966 36.524C81.9246 36.244 81.2899 35.9173 80.6926 35.544C80.0952 35.1707 79.4792 34.76 78.8446 34.312ZM114.424 16.532C113.901 17.3907 113.295 18.3707 112.604 19.472C111.932 20.5733 111.241 21.7027 110.532 22.86C109.823 23.9987 109.123 25.128 108.432 26.248C107.741 27.3493 107.135 28.348 106.612 29.244V37H102.692V29.244C101.479 27.116 100.191 24.9973 98.828 22.888C97.4654 20.7787 96.168 18.66 94.936 16.532H99.5C100.34 17.932 101.199 19.3787 102.076 20.872C102.953 22.3653 103.812 23.812 104.652 25.212C105.063 24.5587 105.492 23.8587 105.94 23.112C106.388 22.3653 106.836 21.6187 107.284 20.872C107.732 20.1067 108.171 19.36 108.6 18.632C109.048 17.8853 109.468 17.1853 109.86 16.532H114.424ZM133.554 31.96C133.106 32.7813 132.556 33.528 131.902 34.2C131.249 34.8533 130.521 35.4227 129.718 35.908C128.934 36.3747 128.076 36.7387 127.142 37C126.228 37.2613 125.276 37.392 124.286 37.392C122.83 37.392 121.458 37.112 120.17 36.552C118.882 35.992 117.753 35.236 116.782 34.284C115.83 33.3133 115.074 32.184 114.514 30.896C113.954 29.608 113.674 28.236 113.674 26.78C113.674 25.324 113.954 23.952 114.514 22.664C115.074 21.376 115.83 20.256 116.782 19.304C117.753 18.3333 118.882 17.568 120.17 17.008C121.458 16.448 122.83 16.168 124.286 16.168C125.276 16.168 126.228 16.2987 127.142 16.56C128.076 16.8213 128.934 17.1947 129.718 17.68C130.521 18.1467 131.249 18.716 131.902 19.388C132.556 20.0413 133.106 20.7693 133.554 21.572L129.886 23.056C129.588 22.608 129.233 22.188 128.822 21.796C128.43 21.404 127.992 21.0587 127.506 20.76C127.021 20.4613 126.508 20.228 125.966 20.06C125.425 19.892 124.865 19.808 124.286 19.808C123.353 19.808 122.476 20.004 121.654 20.396C120.852 20.7693 120.152 21.2733 119.554 21.908C118.957 22.5427 118.481 23.2893 118.126 24.148C117.772 24.988 117.594 25.8653 117.594 26.78C117.594 27.7133 117.772 28.6 118.126 29.44C118.481 30.28 118.957 31.0173 119.554 31.652C120.152 32.2867 120.852 32.8 121.654 33.192C122.476 33.5653 123.353 33.752 124.286 33.752C124.865 33.752 125.425 33.668 125.966 33.5C126.508 33.332 127.021 33.0987 127.506 32.8C127.992 32.5013 128.43 32.156 128.822 31.764C129.233 31.3533 129.588 30.924 129.886 30.476L133.554 31.96ZM153.947 16.504V37H150.055V28.852H139.919V37H136.027V16.504H139.919V25.352H150.055V16.504H153.947ZM162.342 37H158.422V16.532H162.342V37ZM185.578 31.96C185.13 32.7813 184.579 33.528 183.926 34.2C183.272 34.8533 182.544 35.4227 181.742 35.908C180.958 36.3747 180.099 36.7387 179.166 37C178.251 37.2613 177.299 37.392 176.31 37.392C174.854 37.392 173.481 37.112 172.193 36.552C170.905 35.992 169.776 35.236 168.805 34.284C167.853 33.3133 167.097 32.184 166.537 30.896C165.977 29.608 165.697 28.236 165.697 26.78C165.697 25.324 165.977 23.952 166.537 22.664C167.097 21.376 167.853 20.256 168.805 19.304C169.776 18.3333 170.905 17.568 172.193 17.008C173.481 16.448 174.854 16.168 176.31 16.168C177.299 16.168 178.251 16.2987 179.166 16.56C180.099 16.8213 180.958 17.1947 181.742 17.68C182.544 18.1467 183.272 18.716 183.926 19.388C184.579 20.0413 185.13 20.7693 185.578 21.572L181.909 23.056C181.611 22.608 181.256 22.188 180.846 21.796C180.453 21.404 180.015 21.0587 179.53 20.76C179.044 20.4613 178.531 20.228 177.99 20.06C177.448 19.892 176.888 19.808 176.31 19.808C175.376 19.808 174.499 20.004 173.677 20.396C172.875 20.7693 172.175 21.2733 171.577 21.908C170.98 22.5427 170.504 23.2893 170.149 24.148C169.795 24.988 169.617 25.8653 169.617 26.78C169.617 27.7133 169.795 28.6 170.149 29.44C170.504 30.28 170.98 31.0173 171.577 31.652C172.175 32.2867 172.875 32.8 173.677 33.192C174.499 33.5653 175.376 33.752 176.31 33.752C176.888 33.752 177.448 33.668 177.99 33.5C178.531 33.332 179.044 33.0987 179.53 32.8C180.015 32.5013 180.453 32.156 180.846 31.764C181.256 31.3533 181.611 30.924 181.909 30.476L185.578 31.96Z" fill="white"/>
</svg>
